<svg width="105" height="19" viewBox="0 0 105 19" fill="none" xmlns="http://www.w3.org/2000/svg">
<path d="M21.7511 16.4907L28.4846 7.10683V5.59078H18.8841V7.7603H25.3283L18.6211 17.1441V18.6602H28.7476V16.4907H21.7511Z" fill="#00072B"/>
<path d="M32.2578 13.171H43.2786C43.3312 12.8312 43.3575 12.4914 43.3575 12.1516C43.3575 8.49219 40.7799 5.25097 36.8082 5.25097C32.7049 5.25097 29.9169 8.25694 29.9169 12.1255C29.9169 16.0463 32.7312 19 36.966 19C39.5962 19 41.5952 17.8238 42.7526 16.0463L40.8062 14.9485C40.1486 16.0202 38.8335 16.8566 37.0186 16.8566C34.5724 16.8566 32.7049 15.5235 32.2578 13.171ZM36.8082 7.39436C38.7809 7.39436 40.6483 8.59674 41.0429 11.1845H32.2578C32.626 8.91041 34.3357 7.39436 36.8082 7.39436Z" fill="#00072B"/>
<path d="M52.5374 5.25097C50.6962 5.25097 49.2495 5.93058 48.2763 7.47277V5.59078H45.988V18.6602H48.2763V11.7334C48.2763 8.64902 49.986 7.4205 52.0902 7.4205C54.1155 7.4205 55.3517 8.62288 55.3517 10.7663V18.6602H57.6401V10.6356C57.6401 7.2898 55.6148 5.25097 52.5374 5.25097Z" fill="#00072B"/>
<path d="M62.8073 9.11952C62.8073 7.94327 63.9646 7.36822 65.1483 7.36822C66.3056 7.36822 67.4629 7.86486 67.9626 9.0411L69.8827 7.96941C69.0411 6.27039 67.3051 5.25097 65.1483 5.25097C62.4917 5.25097 60.4927 6.84544 60.4927 9.14566C60.4927 13.8768 67.8574 12.2823 67.8574 15.0792C67.8574 16.36 66.6475 16.8566 65.2535 16.8566C63.6227 16.8566 62.4128 16.0724 61.9919 14.8178L60.0192 15.9418C60.782 17.7453 62.6232 19 65.2535 19C68.0679 19 70.1721 17.5101 70.1721 15.0792C70.1721 10.2696 62.8073 11.9164 62.8073 9.11952Z" fill="#00072B"/>
<path d="M78.703 19C82.5432 19 85.6469 15.994 85.6469 12.1255C85.6469 8.25694 82.5432 5.25097 78.703 5.25097C74.8628 5.25097 71.7854 8.25694 71.7854 12.1255C71.7854 15.994 74.8628 19 78.703 19ZM78.703 16.7782C76.099 16.7782 74.0737 14.7655 74.0737 12.1255C74.0737 9.48546 76.099 7.47277 78.703 7.47277C81.3332 7.47277 83.3585 9.48546 83.3585 12.1255C83.3585 14.7655 81.3332 16.7782 78.703 16.7782Z" fill="#00072B"/>
<path d="M94.6163 2.21887V0.023207C90.855 -0.238181 88.856 1.72223 88.856 5.1987V5.59078H86.7518V7.78644H88.856V18.6602H91.1443V7.78644H94.6163V5.59078H91.1443V5.1987C91.1443 2.92462 92.328 2.0359 94.6163 2.21887Z" fill="#00072B"/>
<path d="M104.001 7.78644V5.59078H100.503V1.93134L98.2144 2.61095V5.59078H95.6105V7.78644H98.2144V14.8701C98.2144 18.1374 100.056 19.183 104.001 18.6602V16.6214C101.66 16.7259 100.503 16.8566 100.503 14.8701V7.78644H104.001Z" fill="#00072B"/>
<path fill-rule="evenodd" clip-rule="evenodd" d="M7.9476 5.25757L11.9214 11.9588L15.8952 18.6693H7.9476H0L3.9738 11.9588L7.9476 5.25757Z" fill="#008CE4"/>
</svg>
