<?xml version="1.0" standalone="no"?>
<!DOCTYPE svg PUBLIC "-//W3C//DTD SVG 1.1//EN" "http://www.w3.org/Graphics/SVG/1.1/DTD/svg11.dtd" >
<svg xmlns="http://www.w3.org/2000/svg" xmlns:xlink="http://www.w3.org/1999/xlink" version="1.1">
<metadata>
Created by FontForge 20190801 at Fri Jul 26 12:25:56 2019
 By Jimmy Wärting
Copyright 2019 The Quicksand Project Authors (https://github.com/andrew-paglinawan/QuicksandFamily.git), with Reserved Font Name "Quicksand"
</metadata>
<defs>
<font id="Quicksand-Regular" horiz-adv-x="0" >
  <font-face 
    font-family="Quicksand"
    font-weight="400"
    font-stretch="normal"
    units-per-em="1000"
    panose-1="0 0 0 0 0 0 0 0 0 0"
    ascent="800"
    descent="-200"
    x-height="508"
    cap-height="700"
    bbox="-62 -216 1317 1133"
    underline-thickness="50"
    underline-position="-125"
    unicode-range="U+000D-FB02"
  />
<missing-glyph horiz-adv-x="584" 
d="M40 665q0 35 35 35h434q35 0 35 -35v-630q0 -35 -35 -35h-434q-35 0 -35 35v630zM95 670q-7 0 -3 -6l416 -599q2 -3 4 -2.5t2 4.5v598q0 5 -5 5h-414zM70 35q0 -5 5 -5h413q7 0 3 6l-415 599q-2 3 -4 2.5t-2 -4.5v-598z" />
    <glyph glyph-name="f_f" unicode="ff" horiz-adv-x="707" 
d="M264 736q15 0 32.5 -3t30.5 -10.5t13 -22.5q0 -11 -8 -19.5t-18 -8.5t-25 5.5t-32 5.5q-21 0 -36 -9.5t-23 -27t-8 -42.5v-574q0 -12 -8.5 -21t-21.5 -9t-21.5 9t-8.5 21v574q0 64 37.5 98t96.5 34zM302 501q12 0 20 -8t8 -20t-8 -20t-20 -8h-245q-11 0 -19.5 8.5
t-8.5 19.5q0 13 8.5 20.5t19.5 7.5h245zM617 736q15 0 32.5 -3t30.5 -10.5t13 -22.5q0 -11 -8 -19.5t-18 -8.5t-25 5.5t-32 5.5q-21 0 -36 -9.5t-23 -27t-8 -42.5v-574q0 -12 -8.5 -21t-21.5 -9t-21.5 9t-8.5 21v574q0 64 37.5 98t96.5 34zM655 501q12 0 20 -8t8 -20t-8 -20
t-20 -8h-245q-11 0 -19.5 8.5t-8.5 19.5q0 13 8.5 20.5t19.5 7.5h245z" />
    <glyph glyph-name="f_f_i" unicode="ffi" horiz-adv-x="920" 
d="M264 736q15 0 32.5 -3t30.5 -10.5t13 -22.5q0 -11 -8 -19.5t-18 -8.5t-25 5.5t-32 5.5q-21 0 -36 -9.5t-23 -27t-8 -42.5v-574q0 -12 -8.5 -21t-21.5 -9t-21.5 9t-8.5 21v574q0 64 37.5 98t96.5 34zM302 501q12 0 20 -8t8 -20t-8 -20t-20 -8h-245q-11 0 -19.5 8.5
t-8.5 19.5q0 13 8.5 20.5t19.5 7.5h245zM617 736q15 0 32.5 -3t30.5 -10.5t13 -22.5q0 -11 -8 -19.5t-18 -8.5t-25 5.5t-32 5.5q-21 0 -36 -9.5t-23 -27t-8 -42.5v-574q0 -12 -8.5 -21t-21.5 -9t-21.5 9t-8.5 21v574q0 64 37.5 98t96.5 34zM655 501q12 0 20 -8t8 -20t-8 -20
t-20 -8h-245q-11 0 -19.5 8.5t-8.5 19.5q0 13 8.5 20.5t19.5 7.5h245zM844 30q0 -12 -9 -21t-21 -9q-13 0 -21.5 9t-8.5 21v460q0 12 8.5 21t21.5 9t21.5 -9t8.5 -21v-460zM814 587q-21 0 -31.5 9.5t-10.5 27.5v10q0 18 11.5 27.5t31.5 9.5q19 0 29.5 -9.5t10.5 -27.5v-10
q0 -18 -10.5 -27.5t-30.5 -9.5z" />
    <glyph glyph-name="f_f_l" unicode="ffl" horiz-adv-x="936" 
d="M264 736q15 0 32.5 -3t30.5 -10.5t13 -22.5q0 -11 -8 -19.5t-18 -8.5t-25 5.5t-32 5.5q-21 0 -36 -9.5t-23 -27t-8 -42.5v-574q0 -12 -8.5 -21t-21.5 -9t-21.5 9t-8.5 21v574q0 64 37.5 98t96.5 34zM302 501q12 0 20 -8t8 -20t-8 -20t-20 -8h-245q-11 0 -19.5 8.5
t-8.5 19.5q0 13 8.5 20.5t19.5 7.5h245zM617 736q15 0 32.5 -3t30.5 -10.5t13 -22.5q0 -11 -8 -19.5t-18 -8.5t-25 5.5t-32 5.5q-21 0 -36 -9.5t-23 -27t-8 -42.5v-574q0 -12 -8.5 -21t-21.5 -9t-21.5 9t-8.5 21v574q0 64 37.5 98t96.5 34zM655 501q12 0 20 -8t8 -20t-8 -20
t-20 -8h-245q-11 0 -19.5 8.5t-8.5 19.5q0 13 8.5 20.5t19.5 7.5h245zM852 30q0 -12 -9 -21t-21 -9q-13 0 -21.5 9t-8.5 21v680q0 12 9 21t21 9q13 0 21.5 -9t8.5 -21v-680z" />
    <glyph glyph-name="fi" unicode="fi" horiz-adv-x="567" 
d="M264 736q15 0 32.5 -3t30.5 -10.5t13 -22.5q0 -11 -8 -19.5t-18 -8.5t-25 5.5t-32 5.5q-21 0 -36 -9.5t-23 -27t-8 -42.5v-574q0 -12 -8.5 -21t-21.5 -9t-21.5 9t-8.5 21v574q0 64 37.5 98t96.5 34zM302 501q12 0 20 -8t8 -20t-8 -20t-20 -8h-245q-11 0 -19.5 8.5
t-8.5 19.5q0 13 8.5 20.5t19.5 7.5h245zM490 30q0 -12 -9 -21t-21 -9q-13 0 -21.5 9t-8.5 21v460q0 12 8.5 21t21.5 9t21.5 -9t8.5 -21v-460zM460 587q-21 0 -31.5 9.5t-10.5 27.5v10q0 18 11.5 27.5t31.5 9.5q19 0 29.5 -9.5t10.5 -27.5v-10q0 -18 -10.5 -27.5t-30.5 -9.5z
" />
    <glyph glyph-name="fl" unicode="fl" horiz-adv-x="583" 
d="M264 736q15 0 32.5 -3t30.5 -10.5t13 -22.5q0 -11 -8 -19.5t-18 -8.5t-25 5.5t-32 5.5q-21 0 -36 -9.5t-23 -27t-8 -42.5v-574q0 -12 -8.5 -21t-21.5 -9t-21.5 9t-8.5 21v574q0 64 37.5 98t96.5 34zM302 501q12 0 20 -8t8 -20t-8 -20t-20 -8h-245q-11 0 -19.5 8.5
t-8.5 19.5q0 13 8.5 20.5t19.5 7.5h245zM498 30q0 -12 -9 -21t-21 -9q-13 0 -21.5 9t-8.5 21v680q0 12 9 21t21 9q13 0 21.5 -9t8.5 -21v-680z" />
    <glyph glyph-name=".notdef" horiz-adv-x="584" 
d="M40 665q0 35 35 35h434q35 0 35 -35v-630q0 -35 -35 -35h-434q-35 0 -35 35v630zM95 670q-7 0 -3 -6l416 -599q2 -3 4 -2.5t2 4.5v598q0 5 -5 5h-414zM70 35q0 -5 5 -5h413q7 0 3 6l-415 599q-2 3 -4 2.5t-2 -4.5v-598z" />
    <glyph glyph-name="A" unicode="A" horiz-adv-x="647" 
d="M328 623l-243 -604q-4 -10 -11 -15t-16 -5q-14 0 -21 7.5t-8 18.5q-1 5 1 12l264 646q5 11 12.5 15.5t17.5 4.5t17.5 -5.5t11.5 -14.5l263 -643q2 -6 2 -12q0 -14 -9 -21.5t-21 -7.5q-10 0 -17.5 5.5t-11.5 14.5l-249 608zM143 202l25 59h310l12 -59h-347z" />
    <glyph glyph-name="Aacute" unicode="&#xc1;" horiz-adv-x="647" 
d="M328 623l-243 -604q-4 -10 -11 -15t-16 -5q-14 0 -21 7.5t-8 18.5q-1 5 1 12l264 646q5 11 12.5 15.5t17.5 4.5t17.5 -5.5t11.5 -14.5l263 -643q2 -6 2 -12q0 -14 -9 -21.5t-21 -7.5q-10 0 -17.5 5.5t-11.5 14.5l-249 608zM143 202l25 59h310l12 -59h-347zM327 746
q-10 0 -14.5 5.5t-4.5 12.5q0 5 2.5 9.5t7.5 8.5l89 69q6 4 13 7.5t16 3.5q13 0 21.5 -8.5t8.5 -21.5q0 -10 -5 -18t-14 -13l-98 -49q-5 -2 -10.5 -4t-11.5 -2z" />
    <glyph glyph-name="Abreve" unicode="&#x102;" horiz-adv-x="647" 
d="M328 623l-243 -604q-4 -10 -11 -15t-16 -5q-14 0 -21 7.5t-8 18.5q-1 5 1 12l264 646q5 11 12.5 15.5t17.5 4.5t17.5 -5.5t11.5 -14.5l263 -643q2 -6 2 -12q0 -14 -9 -21.5t-21 -7.5q-10 0 -17.5 5.5t-11.5 14.5l-249 608zM143 202l25 59h310l12 -59h-347zM324 774
q-51 0 -87 26.5t-50 74.5q-4 14 1 22t18 8q12 0 17.5 -5.5t12.5 -16.5q13 -28 34.5 -43t53.5 -15q62 0 88 58q6 11 12.5 16t17.5 5q13 0 18 -7t1 -22q-13 -48 -49 -74.5t-88 -26.5z" />
    <glyph glyph-name="uni1EAE" unicode="&#x1eae;" horiz-adv-x="647" 
d="M328 623l-243 -604q-4 -10 -11 -15t-16 -5q-14 0 -21 7.5t-8 18.5q-1 5 1 12l264 646q5 11 12.5 15.5t17.5 4.5t17.5 -5.5t11.5 -14.5l263 -643q2 -6 2 -12q0 -14 -9 -21.5t-21 -7.5q-10 0 -17.5 5.5t-11.5 14.5l-249 608zM143 202l25 59h310l12 -59h-347zM324 774
q-51 0 -87 26.5t-50 74.5q-4 14 1 22t18 8q12 0 17.5 -5.5t12.5 -16.5q13 -28 34.5 -43t53.5 -15q62 0 88 58q6 11 12.5 16t17.5 5q13 0 18 -7t1 -22q-13 -48 -49 -74.5t-88 -26.5zM327 945q-10 0 -14.5 5.5t-4.5 12.5q0 5 2.5 9.5t7.5 8.5l89 69q6 4 13 7.5t16 3.5
q13 0 21.5 -8.5t8.5 -21.5q0 -10 -5 -18t-14 -13l-98 -49q-5 -2 -10.5 -4t-11.5 -2z" />
    <glyph glyph-name="uni1EB6" unicode="&#x1eb6;" horiz-adv-x="647" 
d="M328 623l-243 -604q-4 -10 -11 -15t-16 -5q-14 0 -21 7.5t-8 18.5q-1 5 1 12l264 646q5 11 12.5 15.5t17.5 4.5t17.5 -5.5t11.5 -14.5l263 -643q2 -6 2 -12q0 -14 -9 -21.5t-21 -7.5q-10 0 -17.5 5.5t-11.5 14.5l-249 608zM143 202l25 59h310l12 -59h-347zM324 -139
q-21 0 -31.5 10t-10.5 29v11q0 19 11.5 29t30.5 10q20 0 30.5 -10t10.5 -29v-11q0 -19 -10.5 -29t-30.5 -10zM324 774q-51 0 -87 26.5t-50 74.5q-4 14 1 22t18 8q12 0 17.5 -5.5t12.5 -16.5q13 -28 34.5 -43t53.5 -15q62 0 88 58q6 11 12.5 16t17.5 5q13 0 18 -7t1 -22
q-13 -48 -49 -74.5t-88 -26.5z" />
    <glyph glyph-name="uni1EB0" unicode="&#x1eb0;" horiz-adv-x="647" 
d="M328 623l-243 -604q-4 -10 -11 -15t-16 -5q-14 0 -21 7.5t-8 18.5q-1 5 1 12l264 646q5 11 12.5 15.5t17.5 4.5t17.5 -5.5t11.5 -14.5l263 -643q2 -6 2 -12q0 -14 -9 -21.5t-21 -7.5q-10 0 -17.5 5.5t-11.5 14.5l-249 608zM143 202l25 59h310l12 -59h-347zM324 774
q-51 0 -87 26.5t-50 74.5q-4 14 1 22t18 8q12 0 17.5 -5.5t12.5 -16.5q13 -28 34.5 -43t53.5 -15q62 0 88 58q6 11 12.5 16t17.5 5q13 0 18 -7t1 -22q-13 -48 -49 -74.5t-88 -26.5zM324 946q-6 0 -11 2t-11 4l-97 49q-20 11 -20 31q0 13 8.5 21.5t21.5 8.5q9 0 16.5 -3.5
t12.5 -7.5l89 -69q5 -4 7.5 -8.5t2.5 -9.5q0 -7 -4.5 -12.5t-14.5 -5.5z" />
    <glyph glyph-name="uni1EB2" unicode="&#x1eb2;" horiz-adv-x="647" 
d="M328 623l-243 -604q-4 -10 -11 -15t-16 -5q-14 0 -21 7.5t-8 18.5q-1 5 1 12l264 646q5 11 12.5 15.5t17.5 4.5t17.5 -5.5t11.5 -14.5l263 -643q2 -6 2 -12q0 -14 -9 -21.5t-21 -7.5q-10 0 -17.5 5.5t-11.5 14.5l-249 608zM143 202l25 59h310l12 -59h-347zM324 774
q-51 0 -87 26.5t-50 74.5q-4 14 1 22t18 8q12 0 17.5 -5.5t12.5 -16.5q13 -28 34.5 -43t53.5 -15q62 0 88 58q6 11 12.5 16t17.5 5q13 0 18 -7t1 -22q-13 -48 -49 -74.5t-88 -26.5zM248 1102q14 13 33 22t41 9q32 0 49.5 -12t25 -29.5t7.5 -32.5q0 -17 -9 -30.5t-25 -29.5
q-5 -6 -8.5 -12t-3.5 -15q-1 -8 -7.5 -12t-15.5 -4q-8 0 -13.5 5t-5.5 12q0 9 2.5 19.5t11.5 20.5q13 13 21 23t8 22q0 13 -10.5 21.5t-25.5 8.5q-14 0 -25.5 -5.5t-20.5 -12.5q-7 -7 -16 -7.5t-17 7.5q-6 7 -5 15.5t9 16.5z" />
    <glyph glyph-name="uni1EB4" unicode="&#x1eb4;" horiz-adv-x="647" 
d="M328 623l-243 -604q-4 -10 -11 -15t-16 -5q-14 0 -21 7.5t-8 18.5q-1 5 1 12l264 646q5 11 12.5 15.5t17.5 4.5t17.5 -5.5t11.5 -14.5l263 -643q2 -6 2 -12q0 -14 -9 -21.5t-21 -7.5q-10 0 -17.5 5.5t-11.5 14.5l-249 608zM143 202l25 59h310l12 -59h-347zM324 774
q-51 0 -87 26.5t-50 74.5q-4 14 1 22t18 8q12 0 17.5 -5.5t12.5 -16.5q13 -28 34.5 -43t53.5 -15q62 0 88 58q6 11 12.5 16t17.5 5q13 0 18 -7t1 -22q-13 -48 -49 -74.5t-88 -26.5zM195 970q-13 0 -19.5 11.5t-3.5 32.5q7 32 31.5 49.5t55.5 17.5q25 0 50 -14.5t48.5 -29
t40.5 -14.5q14 0 22.5 11t10.5 28q-1 12 5.5 19t16.5 7q15 0 21 -12t3 -31q-3 -22 -14.5 -38t-28 -24.5t-38.5 -8.5q-24 0 -49.5 14.5t-49.5 28.5t-41 14q-14 0 -24 -9.5t-15 -29.5q1 -10 -6.5 -16t-15.5 -6z" />
    <glyph glyph-name="uni01CD" unicode="&#x1cd;" horiz-adv-x="647" 
d="M328 623l-243 -604q-4 -10 -11 -15t-16 -5q-14 0 -21 7.5t-8 18.5q-1 5 1 12l264 646q5 11 12.5 15.5t17.5 4.5t17.5 -5.5t11.5 -14.5l263 -643q2 -6 2 -12q0 -14 -9 -21.5t-21 -7.5q-10 0 -17.5 5.5t-11.5 14.5l-249 608zM143 202l25 59h310l12 -59h-347zM316 802l88 70
q8 7 15 10t12 3q8 0 12.5 -4.5t4.5 -10.5q0 -4 -2 -8t-6 -9l-77 -82q-6 -9 -14 -13t-19 -4h-11q-11 0 -19 4t-15 13l-76 81q-5 5 -6.5 9t-1.5 8q0 6 4.5 10.5t11.5 4.5q11 0 27 -12l90 -67z" />
    <glyph glyph-name="Acircumflex" unicode="&#xc2;" horiz-adv-x="647" 
d="M328 623l-243 -604q-4 -10 -11 -15t-16 -5q-14 0 -21 7.5t-8 18.5q-1 5 1 12l264 646q5 11 12.5 15.5t17.5 4.5t17.5 -5.5t11.5 -14.5l263 -643q2 -6 2 -12q0 -14 -9 -21.5t-21 -7.5q-10 0 -17.5 5.5t-11.5 14.5l-249 608zM143 202l25 59h310l12 -59h-347zM332 843
l-88 -69q-8 -5 -14.5 -9t-12.5 -4q-7 0 -12 5t-5 10t2 8.5t6 8.5l77 82q7 8 14.5 12.5t18.5 4.5h11q11 0 18.5 -4.5t15.5 -12.5l76 -81q5 -5 6.5 -9t1.5 -8q0 -5 -4.5 -10t-11.5 -5q-6 0 -12.5 3.5t-14.5 9.5l-90 65z" />
    <glyph glyph-name="uni1EA4" unicode="&#x1ea4;" horiz-adv-x="647" 
d="M328 623l-243 -604q-4 -10 -11 -15t-16 -5q-14 0 -21 7.5t-8 18.5q-1 5 1 12l264 646q5 11 12.5 15.5t17.5 4.5t17.5 -5.5t11.5 -14.5l263 -643q2 -6 2 -12q0 -14 -9 -21.5t-21 -7.5q-10 0 -17.5 5.5t-11.5 14.5l-249 608zM143 202l25 59h310l12 -59h-347zM332 843
l-88 -69q-8 -5 -14.5 -9t-12.5 -4q-7 0 -12 5t-5 10t2 8.5t6 8.5l77 82q7 8 14.5 12.5t18.5 4.5h11q11 0 18.5 -4.5t15.5 -12.5l76 -81q5 -5 6.5 -9t1.5 -8q0 -5 -4.5 -10t-11.5 -5q-6 0 -12.5 3.5t-14.5 9.5l-90 65zM456 827q-10 0 -14.5 5.5t-4.5 12.5q0 5 2.5 9.5
t7.5 8.5l89 69q6 4 13 7.5t16 3.5q13 0 21.5 -8.5t8.5 -21.5q0 -10 -5 -18t-14 -13l-98 -49q-5 -2 -10.5 -4t-11.5 -2z" />
    <glyph glyph-name="uni1EAC" unicode="&#x1eac;" horiz-adv-x="647" 
d="M328 623l-243 -604q-4 -10 -11 -15t-16 -5q-14 0 -21 7.5t-8 18.5q-1 5 1 12l264 646q5 11 12.5 15.5t17.5 4.5t17.5 -5.5t11.5 -14.5l263 -643q2 -6 2 -12q0 -14 -9 -21.5t-21 -7.5q-10 0 -17.5 5.5t-11.5 14.5l-249 608zM143 202l25 59h310l12 -59h-347zM324 -139
q-21 0 -31.5 10t-10.5 29v11q0 19 11.5 29t30.5 10q20 0 30.5 -10t10.5 -29v-11q0 -19 -10.5 -29t-30.5 -10zM332 843l-88 -69q-8 -5 -14.5 -9t-12.5 -4q-7 0 -12 5t-5 10t2 8.5t6 8.5l77 82q7 8 14.5 12.5t18.5 4.5h11q11 0 18.5 -4.5t15.5 -12.5l76 -81q5 -5 6.5 -9
t1.5 -8q0 -5 -4.5 -10t-11.5 -5q-6 0 -12.5 3.5t-14.5 9.5l-90 65z" />
    <glyph glyph-name="uni1EA6" unicode="&#x1ea6;" horiz-adv-x="647" 
d="M328 623l-243 -604q-4 -10 -11 -15t-16 -5q-14 0 -21 7.5t-8 18.5q-1 5 1 12l264 646q5 11 12.5 15.5t17.5 4.5t17.5 -5.5t11.5 -14.5l263 -643q2 -6 2 -12q0 -14 -9 -21.5t-21 -7.5q-10 0 -17.5 5.5t-11.5 14.5l-249 608zM143 202l25 59h310l12 -59h-347zM332 843
l-88 -69q-8 -5 -14.5 -9t-12.5 -4q-7 0 -12 5t-5 10t2 8.5t6 8.5l77 82q7 8 14.5 12.5t18.5 4.5h11q11 0 18.5 -4.5t15.5 -12.5l76 -81q5 -5 6.5 -9t1.5 -8q0 -5 -4.5 -10t-11.5 -5q-6 0 -12.5 3.5t-14.5 9.5l-90 65zM445 874q-6 0 -11 2t-11 4l-97 49q-20 11 -20 31
q0 13 8.5 21.5t21.5 8.5q9 0 16.5 -3.5t12.5 -7.5l89 -69q5 -4 7.5 -8.5t2.5 -9.5q0 -7 -4.5 -12.5t-14.5 -5.5z" />
    <glyph glyph-name="uni1EA8" unicode="&#x1ea8;" horiz-adv-x="647" 
d="M328 623l-243 -604q-4 -10 -11 -15t-16 -5q-14 0 -21 7.5t-8 18.5q-1 5 1 12l264 646q5 11 12.5 15.5t17.5 4.5t17.5 -5.5t11.5 -14.5l263 -643q2 -6 2 -12q0 -14 -9 -21.5t-21 -7.5q-10 0 -17.5 5.5t-11.5 14.5l-249 608zM143 202l25 59h310l12 -59h-347zM332 843
l-88 -69q-8 -5 -14.5 -9t-12.5 -4q-7 0 -12 5t-5 10t2 8.5t6 8.5l77 82q7 8 14.5 12.5t18.5 4.5h11q11 0 18.5 -4.5t15.5 -12.5l76 -81q5 -5 6.5 -9t1.5 -8q0 -5 -4.5 -10t-11.5 -5q-6 0 -12.5 3.5t-14.5 9.5l-90 65zM401 951q14 13 33 22t41 9q32 0 49.5 -12t25 -29.5
t7.5 -32.5q0 -17 -9 -30.5t-25 -29.5q-5 -6 -8.5 -12t-3.5 -15q-1 -8 -7.5 -12t-15.5 -4q-8 0 -13.5 5t-5.5 12q0 9 2.5 19.5t11.5 20.5q13 13 21 23t8 22q0 13 -10.5 21.5t-25.5 8.5q-14 0 -25.5 -5.5t-20.5 -12.5q-7 -7 -16 -7.5t-17 7.5q-6 7 -5 15.5t9 16.5z" />
    <glyph glyph-name="uni1EAA" unicode="&#x1eaa;" horiz-adv-x="647" 
d="M328 623l-243 -604q-4 -10 -11 -15t-16 -5q-14 0 -21 7.5t-8 18.5q-1 5 1 12l264 646q5 11 12.5 15.5t17.5 4.5t17.5 -5.5t11.5 -14.5l263 -643q2 -6 2 -12q0 -14 -9 -21.5t-21 -7.5q-10 0 -17.5 5.5t-11.5 14.5l-249 608zM143 202l25 59h310l12 -59h-347zM332 814
l-88 -69q-8 -5 -14.5 -9t-12.5 -4q-7 0 -12 5t-5 10t2 8.5t6 8.5l77 82q7 8 14.5 12.5t18.5 4.5h11q11 0 18.5 -4.5t15.5 -12.5l76 -81q5 -5 6.5 -9t1.5 -8q0 -5 -4.5 -10t-11.5 -5q-6 0 -12.5 3.5t-14.5 9.5l-90 65zM195 867q-13 0 -19.5 11.5t-3.5 32.5q7 32 31.5 49.5
t55.5 17.5q25 0 50 -14.5t48.5 -29t40.5 -14.5q14 0 22.5 11t10.5 28q-1 12 5.5 19t16.5 7q15 0 21 -12t3 -31q-3 -22 -14.5 -38t-28 -24.5t-38.5 -8.5q-24 0 -49.5 14.5t-49.5 28.5t-41 14q-14 0 -24 -9.5t-15 -29.5q1 -10 -6.5 -16t-15.5 -6z" />
    <glyph glyph-name="uni0200" unicode="&#x200;" horiz-adv-x="647" 
d="M328 623l-243 -604q-4 -10 -11 -15t-16 -5q-14 0 -21 7.5t-8 18.5q-1 5 1 12l264 646q5 11 12.5 15.5t17.5 4.5t17.5 -5.5t11.5 -14.5l263 -643q2 -6 2 -12q0 -14 -9 -21.5t-21 -7.5q-10 0 -17.5 5.5t-11.5 14.5l-249 608zM143 202l25 59h310l12 -59h-347zM276 755
q-6 0 -11 2.5t-11 4.5l-97 48q-20 11 -20 32q0 12 8.5 21t21.5 9q9 0 16.5 -3.5t12.5 -8.5l89 -69q5 -4 7.5 -8t2.5 -10q0 -7 -4.5 -12.5t-14.5 -5.5zM444 755q-6 0 -11.5 2t-10.5 4l-98 49q-19 11 -19 31q0 13 8.5 21.5t21.5 8.5q9 0 16 -3.5t13 -7.5l89 -69q5 -4 7.5 -8.5
t2.5 -9.5q0 -7 -4.5 -12.5t-14.5 -5.5z" />
    <glyph glyph-name="Adieresis" unicode="&#xc4;" horiz-adv-x="647" 
d="M328 623l-243 -604q-4 -10 -11 -15t-16 -5q-14 0 -21 7.5t-8 18.5q-1 5 1 12l264 646q5 11 12.5 15.5t17.5 4.5t17.5 -5.5t11.5 -14.5l263 -643q2 -6 2 -12q0 -14 -9 -21.5t-21 -7.5q-10 0 -17.5 5.5t-11.5 14.5l-249 608zM143 202l25 59h310l12 -59h-347zM410 775
q-19 0 -30 10.5t-11 29.5v10q0 19 11.5 29.5t30.5 10.5t30 -10.5t11 -29.5v-10q0 -20 -11 -30t-31 -10zM238 775q-19 0 -30 10.5t-11 29.5v10q0 19 11.5 29.5t30.5 10.5t30 -10.5t11 -29.5v-10q0 -20 -11 -30t-31 -10z" />
    <glyph glyph-name="uni1EA0" unicode="&#x1ea0;" horiz-adv-x="647" 
d="M328 623l-243 -604q-4 -10 -11 -15t-16 -5q-14 0 -21 7.5t-8 18.5q-1 5 1 12l264 646q5 11 12.5 15.5t17.5 4.5t17.5 -5.5t11.5 -14.5l263 -643q2 -6 2 -12q0 -14 -9 -21.5t-21 -7.5q-10 0 -17.5 5.5t-11.5 14.5l-249 608zM143 202l25 59h310l12 -59h-347zM324 -139
q-21 0 -31.5 10t-10.5 29v11q0 19 11.5 29t30.5 10q20 0 30.5 -10t10.5 -29v-11q0 -19 -10.5 -29t-30.5 -10z" />
    <glyph glyph-name="Agrave" unicode="&#xc0;" horiz-adv-x="647" 
d="M328 623l-243 -604q-4 -10 -11 -15t-16 -5q-14 0 -21 7.5t-8 18.5q-1 5 1 12l264 646q5 11 12.5 15.5t17.5 4.5t17.5 -5.5t11.5 -14.5l263 -643q2 -6 2 -12q0 -14 -9 -21.5t-21 -7.5q-10 0 -17.5 5.5t-11.5 14.5l-249 608zM143 202l25 59h310l12 -59h-347zM324 747
q-6 0 -11 2t-11 4l-97 49q-20 11 -20 31q0 13 8.5 21.5t21.5 8.5q9 0 16.5 -3.5t12.5 -7.5l89 -69q5 -4 7.5 -8.5t2.5 -9.5q0 -7 -4.5 -12.5t-14.5 -5.5z" />
    <glyph glyph-name="uni1EA2" unicode="&#x1ea2;" horiz-adv-x="647" 
d="M328 623l-243 -604q-4 -10 -11 -15t-16 -5q-14 0 -21 7.5t-8 18.5q-1 5 1 12l264 646q5 11 12.5 15.5t17.5 4.5t17.5 -5.5t11.5 -14.5l263 -643q2 -6 2 -12q0 -14 -9 -21.5t-21 -7.5q-10 0 -17.5 5.5t-11.5 14.5l-249 608zM143 202l25 59h310l12 -59h-347zM248 903
q14 13 33 22t41 9q32 0 49.5 -12t25 -29.5t7.5 -32.5q0 -17 -9 -30.5t-25 -29.5q-5 -6 -8.5 -12t-3.5 -15q-1 -8 -7.5 -12t-15.5 -4q-8 0 -13.5 5t-5.5 12q0 9 2.5 19.5t11.5 20.5q13 13 21 23t8 22q0 13 -10.5 21.5t-25.5 8.5q-14 0 -25.5 -5.5t-20.5 -12.5q-7 -7 -16 -7.5
t-17 7.5q-6 7 -5 15.5t9 16.5z" />
    <glyph glyph-name="uni0202" unicode="&#x202;" horiz-adv-x="647" 
d="M328 623l-243 -604q-4 -10 -11 -15t-16 -5q-14 0 -21 7.5t-8 18.5q-1 5 1 12l264 646q5 11 12.5 15.5t17.5 4.5t17.5 -5.5t11.5 -14.5l263 -643q2 -6 2 -12q0 -14 -9 -21.5t-21 -7.5q-10 0 -17.5 5.5t-11.5 14.5l-249 608zM143 202l25 59h310l12 -59h-347zM323 865
q35 0 63 -13t46 -35.5t21 -49.5q3 -12 -4 -19.5t-18 -7.5q-12 0 -18.5 6.5t-11.5 17.5q-7 25 -28.5 38t-49.5 13q-29 0 -50.5 -13t-27.5 -38q-4 -11 -11 -17.5t-20 -6.5q-11 0 -17.5 7.5t-4.5 18.5q3 28 21 50.5t46.5 35.5t63.5 13z" />
    <glyph glyph-name="Amacron" unicode="&#x100;" horiz-adv-x="647" 
d="M328 623l-243 -604q-4 -10 -11 -15t-16 -5q-14 0 -21 7.5t-8 18.5q-1 5 1 12l264 646q5 11 12.5 15.5t17.5 4.5t17.5 -5.5t11.5 -14.5l263 -643q2 -6 2 -12q0 -14 -9 -21.5t-21 -7.5q-10 0 -17.5 5.5t-11.5 14.5l-249 608zM143 202l25 59h310l12 -59h-347zM200 788
q-29 0 -29 25q0 26 29 26h255q29 0 29 -26q0 -25 -29 -25h-255z" />
    <glyph glyph-name="Aogonek" unicode="&#x104;" horiz-adv-x="648" 
d="M562 -190q-37 0 -66.5 25t-29.5 70q0 28 10 49t26.5 37t36 26t37.5 16l7 -13l-21 -8l-252 615l18 -4l-243 -604q-4 -10 -11 -15t-16 -5q-15 0 -21.5 7t-7.5 18q-1 6 2 14l263 645q5 11 12.5 15.5t17.5 4.5t17.5 -5.5t11.5 -14.5l266 -650q2 -6 2 -11q0 -9 -5.5 -14.5
t-16.5 -7.5q-31 -7 -55 -31t-24 -52t15 -42t33 -14q22 0 30 12q5 7 11 11t13 4q10 0 16.5 -6.5t6.5 -16.5q0 -14 -12 -27t-31 -20.5t-40 -7.5zM148 202l20 59h310l12 -59h-342z" />
    <glyph glyph-name="Aring" unicode="&#xc5;" horiz-adv-x="648" 
d="M324 662q-27 0 -50 13t-37.5 35.5t-14.5 49.5t14.5 49.5t37.5 35.5t50 13t50.5 -13t37.5 -35.5t14 -49.5t-14 -49.5t-37.5 -35.5t-50.5 -13zM324 704q25 0 41.5 16.5t16.5 39.5q0 25 -17 41t-41 16q-23 0 -40 -16.5t-17 -40.5q0 -23 17 -39.5t40 -16.5zM328 623
l-243 -604q-4 -10 -11 -15t-16 -5q-14 0 -21 7.5t-8 18.5q-1 5 1 12l264 646q5 11 12.5 15.5t17.5 4.5t17.5 -5.5t11.5 -14.5l263 -643q2 -6 2 -12q0 -14 -9 -21.5t-21 -7.5q-10 0 -17.5 5.5t-11.5 14.5l-249 608zM143 202l25 59h310l12 -59h-347z" />
    <glyph glyph-name="Aringacute" unicode="&#x1fa;" horiz-adv-x="648" 
d="M324 662q-27 0 -50 13t-37.5 35.5t-14.5 49.5t14.5 49.5t37.5 35.5t50 13t50.5 -13t37.5 -35.5t14 -49.5t-14 -49.5t-37.5 -35.5t-50.5 -13zM324 704q25 0 41.5 16.5t16.5 39.5q0 25 -17 41t-41 16q-23 0 -40 -16.5t-17 -40.5q0 -23 17 -39.5t40 -16.5zM328 623
l-243 -604q-4 -10 -11 -15t-16 -5q-14 0 -21 7.5t-8 18.5q-1 5 1 12l264 646q5 11 12.5 15.5t17.5 4.5t17.5 -5.5t11.5 -14.5l263 -643q2 -6 2 -12q0 -14 -9 -21.5t-21 -7.5q-10 0 -17.5 5.5t-11.5 14.5l-249 608zM143 202l25 59h310l12 -59h-347zM327 903q-10 0 -14.5 5.5
t-4.5 12.5q0 5 2.5 9.5t7.5 8.5l89 69q6 4 13 7.5t16 3.5q13 0 21.5 -8.5t8.5 -21.5q0 -10 -5 -18t-14 -13l-98 -49q-5 -2 -10.5 -4t-11.5 -2z" />
    <glyph glyph-name="Atilde" unicode="&#xc3;" horiz-adv-x="647" 
d="M328 623l-243 -604q-4 -10 -11 -15t-16 -5q-14 0 -21 7.5t-8 18.5q-1 5 1 12l264 646q5 11 12.5 15.5t17.5 4.5t17.5 -5.5t11.5 -14.5l263 -643q2 -6 2 -12q0 -14 -9 -21.5t-21 -7.5q-10 0 -17.5 5.5t-11.5 14.5l-249 608zM143 202l25 59h310l12 -59h-347zM195 771
q-13 0 -19.5 11.5t-3.5 32.5q7 32 31.5 49.5t55.5 17.5q25 0 50 -14.5t48.5 -29t40.5 -14.5q14 0 22.5 11t10.5 28q-1 12 5.5 19t16.5 7q15 0 21 -12t3 -31q-3 -22 -14.5 -38t-28 -24.5t-38.5 -8.5q-24 0 -49.5 14.5t-49.5 28.5t-41 14q-14 0 -24 -9.5t-15 -29.5
q1 -10 -6.5 -16t-15.5 -6z" />
    <glyph glyph-name="AE" unicode="&#xc6;" horiz-adv-x="919" 
d="M175 227h300l-18 -22v418l15 -18l-412 -594q-9 -13 -24 -13q-10 0 -19 8t-9 21q0 10 5 19l449 641q6 7 13 10t14 3h353q12 0 21 -8.5t9 -21.5t-9 -21t-21 -8h-331l8 10v-275l-7 12h285q12 0 21 -8.5t9 -20.5q0 -13 -9 -21t-21 -8h-287l9 10v-295l-7 14h330q12 0 21 -9
t9 -21q0 -13 -9 -21t-21 -8h-354q-13 0 -22 9t-9 21v152l19 -13h-345z" />
    <glyph glyph-name="AEacute" unicode="&#x1fc;" horiz-adv-x="919" 
d="M175 227h300l-18 -22v418l15 -18l-412 -594q-9 -13 -24 -13q-10 0 -19 8t-9 21q0 10 5 19l449 641q6 7 13 10t14 3h353q12 0 21 -8.5t9 -21.5t-9 -21t-21 -8h-331l8 10v-275l-7 12h285q12 0 21 -8.5t9 -20.5q0 -13 -9 -21t-21 -8h-287l9 10v-295l-7 14h330q12 0 21 -9
t9 -21q0 -13 -9 -21t-21 -8h-354q-13 0 -22 9t-9 21v152l19 -13h-345zM627 746q-10 0 -14.5 5.5t-4.5 12.5q0 5 2.5 9.5t7.5 8.5l89 69q6 4 13 7.5t16 3.5q13 0 21.5 -8.5t8.5 -21.5q0 -10 -5 -18t-14 -13l-98 -49q-5 -2 -10.5 -4t-11.5 -2z" />
    <glyph glyph-name="B" unicode="B" horiz-adv-x="651" 
d="M389 700q84 0 131.5 -45.5t47.5 -126.5q0 -42 -18 -80t-53 -61.5t-87 -26.5l-4 20q37 0 72.5 -10.5t63.5 -33.5t45 -57.5t17 -83.5q0 -52 -17.5 -89.5t-47 -60.5t-67.5 -34t-79 -11h-269q-12 0 -21 9t-9 21v640q0 12 9 21t21 9h265zM381 641h-235l12 18v-283l-11 15h234
q52 1 87.5 34t35.5 98q0 55 -32 86.5t-91 31.5zM388 331h-235l5 6v-287l-6 9h238q64 0 107 32.5t43 103.5q0 50 -21 80t-56 43t-75 13z" />
    <glyph glyph-name="C" unicode="C" horiz-adv-x="653" 
d="M605 648q12 -8 14 -20.5t-6 -24.5q-7 -9 -18 -10t-21 4q-38 25 -81.5 39t-93.5 14q-61 0 -113.5 -21.5t-91.5 -62t-60.5 -95.5t-21.5 -121q0 -68 22 -123.5t61.5 -95.5t91.5 -61t112 -21q49 0 92.5 14t81.5 38q10 6 21.5 4.5t18.5 -11.5q9 -11 6.5 -23.5t-13.5 -19.5
q-25 -16 -59 -30t-72 -22.5t-76 -8.5q-72 0 -135 26t-112 73.5t-76.5 113.5t-27.5 147q0 78 27 143.5t75 113.5t112 75t137 27q57 0 110 -16t96 -45z" />
    <glyph glyph-name="Cacute" unicode="&#x106;" horiz-adv-x="653" 
d="M605 648q12 -8 14 -20.5t-6 -24.5q-7 -9 -18 -10t-21 4q-38 25 -81.5 39t-93.5 14q-61 0 -113.5 -21.5t-91.5 -62t-60.5 -95.5t-21.5 -121q0 -68 22 -123.5t61.5 -95.5t91.5 -61t112 -21q49 0 92.5 14t81.5 38q10 6 21.5 4.5t18.5 -11.5q9 -11 6.5 -23.5t-13.5 -19.5
q-25 -16 -59 -30t-72 -22.5t-76 -8.5q-72 0 -135 26t-112 73.5t-76.5 113.5t-27.5 147q0 78 27 143.5t75 113.5t112 75t137 27q57 0 110 -16t96 -45zM393 746q-10 0 -14.5 5.5t-4.5 12.5q0 5 2.5 9.5t7.5 8.5l89 69q6 4 13 7.5t16 3.5q13 0 21.5 -8.5t8.5 -21.5
q0 -10 -5 -18t-14 -13l-98 -49q-5 -2 -10.5 -4t-11.5 -2z" />
    <glyph glyph-name="Ccaron" unicode="&#x10c;" horiz-adv-x="653" 
d="M605 648q12 -8 14 -20.5t-6 -24.5q-7 -9 -18 -10t-21 4q-38 25 -81.5 39t-93.5 14q-61 0 -113.5 -21.5t-91.5 -62t-60.5 -95.5t-21.5 -121q0 -68 22 -123.5t61.5 -95.5t91.5 -61t112 -21q49 0 92.5 14t81.5 38q10 6 21.5 4.5t18.5 -11.5q9 -11 6.5 -23.5t-13.5 -19.5
q-25 -16 -59 -30t-72 -22.5t-76 -8.5q-72 0 -135 26t-112 73.5t-76.5 113.5t-27.5 147q0 78 27 143.5t75 113.5t112 75t137 27q57 0 110 -16t96 -45zM382 802l88 70q8 7 15 10t12 3q8 0 12.5 -4.5t4.5 -10.5q0 -4 -2 -8t-6 -9l-77 -82q-6 -9 -14 -13t-19 -4h-11q-11 0 -19 4
t-15 13l-76 81q-5 5 -6.5 9t-1.5 8q0 6 4.5 10.5t11.5 4.5q11 0 27 -12l90 -67z" />
    <glyph glyph-name="Ccedilla" unicode="&#xc7;" horiz-adv-x="653" 
d="M605 648q12 -8 14 -20.5t-6 -24.5q-7 -9 -18 -10t-21 4q-38 25 -81.5 39t-93.5 14q-61 0 -113.5 -21.5t-91.5 -62t-60.5 -95.5t-21.5 -121q0 -68 22 -123.5t61.5 -95.5t91.5 -61t112 -21q49 0 92.5 14t81.5 38q10 6 21.5 4.5t18.5 -11.5q9 -11 6.5 -23.5t-13.5 -19.5
q-25 -16 -59 -30t-72 -22.5t-76 -8.5q-72 0 -135 26t-112 73.5t-76.5 113.5t-27.5 147q0 78 27 143.5t75 113.5t112 75t137 27q57 0 110 -16t96 -45zM338 -143q-6 0 -16 4t-18 11.5t-8 15.5q0 11 7 18l87 109h38l-64 -139q-8 -19 -26 -19z" />
    <glyph glyph-name="uni1E08" unicode="&#x1e08;" horiz-adv-x="653" 
d="M605 648q12 -8 14 -20.5t-6 -24.5q-7 -9 -18 -10t-21 4q-38 25 -81.5 39t-93.5 14q-61 0 -113.5 -21.5t-91.5 -62t-60.5 -95.5t-21.5 -121q0 -68 22 -123.5t61.5 -95.5t91.5 -61t112 -21q49 0 92.5 14t81.5 38q10 6 21.5 4.5t18.5 -11.5q9 -11 6.5 -23.5t-13.5 -19.5
q-25 -16 -59 -30t-72 -22.5t-76 -8.5q-72 0 -135 26t-112 73.5t-76.5 113.5t-27.5 147q0 78 27 143.5t75 113.5t112 75t137 27q57 0 110 -16t96 -45zM338 -143q-6 0 -16 4t-18 11.5t-8 15.5q0 11 7 18l87 109h38l-64 -139q-8 -19 -26 -19zM393 746q-10 0 -14.5 5.5
t-4.5 12.5q0 5 2.5 9.5t7.5 8.5l89 69q6 4 13 7.5t16 3.5q13 0 21.5 -8.5t8.5 -21.5q0 -10 -5 -18t-14 -13l-98 -49q-5 -2 -10.5 -4t-11.5 -2z" />
    <glyph glyph-name="Ccircumflex" unicode="&#x108;" horiz-adv-x="653" 
d="M605 648q12 -8 14 -20.5t-6 -24.5q-7 -9 -18 -10t-21 4q-38 25 -81.5 39t-93.5 14q-61 0 -113.5 -21.5t-91.5 -62t-60.5 -95.5t-21.5 -121q0 -68 22 -123.5t61.5 -95.5t91.5 -61t112 -21q49 0 92.5 14t81.5 38q10 6 21.5 4.5t18.5 -11.5q9 -11 6.5 -23.5t-13.5 -19.5
q-25 -16 -59 -30t-72 -22.5t-76 -8.5q-72 0 -135 26t-112 73.5t-76.5 113.5t-27.5 147q0 78 27 143.5t75 113.5t112 75t137 27q57 0 110 -16t96 -45zM398 843l-88 -69q-8 -5 -14.5 -9t-12.5 -4q-7 0 -12 5t-5 10t2 8.5t6 8.5l77 82q7 8 14.5 12.5t18.5 4.5h11
q11 0 18.5 -4.5t15.5 -12.5l76 -81q5 -5 6.5 -9t1.5 -8q0 -5 -4.5 -10t-11.5 -5q-6 0 -12.5 3.5t-14.5 9.5l-90 65z" />
    <glyph glyph-name="Cdotaccent" unicode="&#x10a;" horiz-adv-x="653" 
d="M605 648q12 -8 14 -20.5t-6 -24.5q-7 -9 -18 -10t-21 4q-38 25 -81.5 39t-93.5 14q-61 0 -113.5 -21.5t-91.5 -62t-60.5 -95.5t-21.5 -121q0 -68 22 -123.5t61.5 -95.5t91.5 -61t112 -21q49 0 92.5 14t81.5 38q10 6 21.5 4.5t18.5 -11.5q9 -11 6.5 -23.5t-13.5 -19.5
q-25 -16 -59 -30t-72 -22.5t-76 -8.5q-72 0 -135 26t-112 73.5t-76.5 113.5t-27.5 147q0 78 27 143.5t75 113.5t112 75t137 27q57 0 110 -16t96 -45zM376 770q-21 0 -31.5 10.5t-10.5 29.5v10q0 20 11.5 30t31.5 10q19 0 29.5 -10t10.5 -30v-10q0 -20 -10.5 -30t-30.5 -10z
" />
    <glyph glyph-name="D" unicode="D" horiz-adv-x="719" 
d="M379 700q74 0 129.5 -28t91.5 -77.5t53.5 -112.5t17.5 -132q0 -96 -31.5 -175.5t-96 -127t-164.5 -47.5h-255q-12 0 -21 9t-9 21v640q0 12 9 21t21 9h255zM369 59q85 0 137 39t76.5 105.5t24.5 146.5q0 58 -13.5 110.5t-42 93t-74 64t-108.5 23.5h-219l7 9v-601l-6 10
h218z" />
    <glyph glyph-name="uni01C4" unicode="&#x1c4;" horiz-adv-x="1363" 
d="M379 700q74 0 129.5 -28t91.5 -77.5t53.5 -112.5t17.5 -132q0 -96 -31.5 -175.5t-96 -127t-164.5 -47.5h-255q-12 0 -21 9t-9 21v640q0 12 9 21t21 9h255zM369 59q85 0 137 39t76.5 105.5t24.5 146.5q0 58 -13.5 110.5t-42 93t-74 64t-108.5 23.5h-219l7 9v-601l-6 10
h218zM1284 700q15 0 24 -9t9 -21q0 -10 -6 -18l-455 -603l-2 8h429q12 0 21 -8t9 -20t-9 -20.5t-21 -8.5h-479q-14 0 -22.5 10t-8.5 21q0 10 6 18l453 598l6 -4h-409q-13 0 -21.5 8.5t-8.5 20.5t8.5 20t21.5 8h455zM1033 802l88 70q8 7 15 10t12 3q8 0 12.5 -4.5t4.5 -10.5
q0 -4 -2 -8t-6 -9l-77 -82q-6 -9 -14 -13t-19 -4h-11q-11 0 -19 4t-15 13l-76 81q-5 5 -6.5 9t-1.5 8q0 6 4.5 10.5t11.5 4.5q11 0 27 -12l90 -67z" />
    <glyph glyph-name="Eth" unicode="&#xd0;" horiz-adv-x="719" 
d="M379 700q74 0 129.5 -28t91.5 -77.5t53.5 -112.5t17.5 -132q0 -96 -31.5 -175.5t-96 -127t-164.5 -47.5h-255q-12 0 -21 9t-9 21v640q0 12 9 21t21 9h255zM369 59q85 0 137 39t76.5 105.5t24.5 146.5q0 58 -13.5 110.5t-42 93t-74 64t-108.5 23.5h-219l7 9v-601l-6 10
h218zM47 323q-14 0 -22 7.5t-8 21.5q0 12 8 19.5t22 7.5h164q14 0 22 -7.5t8 -20.5t-8 -20.5t-22 -7.5h-164z" />
    <glyph glyph-name="Dcaron" unicode="&#x10e;" horiz-adv-x="719" 
d="M379 700q74 0 129.5 -28t91.5 -77.5t53.5 -112.5t17.5 -132q0 -96 -31.5 -175.5t-96 -127t-164.5 -47.5h-255q-12 0 -21 9t-9 21v640q0 12 9 21t21 9h255zM369 59q85 0 137 39t76.5 105.5t24.5 146.5q0 58 -13.5 110.5t-42 93t-74 64t-108.5 23.5h-219l7 9v-601l-6 10
h218zM303 802l88 70q8 7 15 10t12 3q8 0 12.5 -4.5t4.5 -10.5q0 -4 -2 -8t-6 -9l-77 -82q-6 -9 -14 -13t-19 -4h-11q-11 0 -19 4t-15 13l-76 81q-5 5 -6.5 9t-1.5 8q0 6 4.5 10.5t11.5 4.5q11 0 27 -12l90 -67z" />
    <glyph glyph-name="Dcroat" unicode="&#x110;" horiz-adv-x="719" 
d="M379 700q74 0 129.5 -28t91.5 -77.5t53.5 -112.5t17.5 -132q0 -96 -31.5 -175.5t-96 -127t-164.5 -47.5h-255q-12 0 -21 9t-9 21v640q0 12 9 21t21 9h255zM369 59q85 0 137 39t76.5 105.5t24.5 146.5q0 58 -13.5 110.5t-42 93t-74 64t-108.5 23.5h-219l7 9v-601l-6 10
h218zM47 323q-14 0 -22 7.5t-8 21.5q0 12 8 19.5t22 7.5h164q14 0 22 -7.5t8 -20.5t-8 -20.5t-22 -7.5h-164z" />
    <glyph glyph-name="uni1E0C" unicode="&#x1e0c;" horiz-adv-x="719" 
d="M379 700q74 0 129.5 -28t91.5 -77.5t53.5 -112.5t17.5 -132q0 -96 -31.5 -175.5t-96 -127t-164.5 -47.5h-255q-12 0 -21 9t-9 21v640q0 12 9 21t21 9h255zM369 59q85 0 137 39t76.5 105.5t24.5 146.5q0 58 -13.5 110.5t-42 93t-74 64t-108.5 23.5h-219l7 9v-601l-6 10
h218zM320 -139q-21 0 -31.5 10t-10.5 29v11q0 19 11.5 29t30.5 10q20 0 30.5 -10t10.5 -29v-11q0 -19 -10.5 -29t-30.5 -10z" />
    <glyph glyph-name="uni1E0E" unicode="&#x1e0e;" horiz-adv-x="719" 
d="M379 700q74 0 129.5 -28t91.5 -77.5t53.5 -112.5t17.5 -132q0 -96 -31.5 -175.5t-96 -127t-164.5 -47.5h-255q-12 0 -21 9t-9 21v640q0 12 9 21t21 9h255zM369 59q85 0 137 39t76.5 105.5t24.5 146.5q0 58 -13.5 110.5t-42 93t-74 64t-108.5 23.5h-219l7 9v-601l-6 10
h218zM221 -126q-28 0 -28 25t28 25h210q28 0 28 -25t-28 -25h-210z" />
    <glyph glyph-name="uni01F2" unicode="&#x1f2;" horiz-adv-x="1197" 
d="M379 700q74 0 129.5 -28t91.5 -77.5t53.5 -112.5t17.5 -132q0 -96 -31.5 -175.5t-96 -127t-164.5 -47.5h-255q-12 0 -21 9t-9 21v640q0 12 9 21t21 9h255zM369 59q85 0 137 39t76.5 105.5t24.5 146.5q0 58 -13.5 110.5t-42 93t-74 64t-108.5 23.5h-219l7 9v-601l-6 10
h218zM1117 56q12 0 20.5 -8.5t8.5 -19.5q0 -12 -8.5 -20t-20.5 -8h-325q-13 0 -21 10t-8 19q0 6 2 11.5t7 11.5l303 419l4 -9h-262q-12 0 -20.5 8.5t-8.5 19.5q0 12 8.5 20t20.5 8h307q11 0 19.5 -9t8.5 -21q0 -6 -2 -11t-6 -11l-301 -415l-12 5h286z" />
    <glyph glyph-name="uni01C5" unicode="&#x1c5;" horiz-adv-x="1198" 
d="M379 700q74 0 129.5 -28t91.5 -77.5t53.5 -112.5t17.5 -132q0 -96 -31.5 -175.5t-96 -127t-164.5 -47.5h-255q-12 0 -21 9t-9 21v640q0 12 9 21t21 9h255zM369 59q85 0 137 39t76.5 105.5t24.5 146.5q0 58 -13.5 110.5t-42 93t-74 64t-108.5 23.5h-219l7 9v-601l-6 10
h218zM1118 56q12 0 20.5 -8.5t8.5 -19.5q0 -12 -8.5 -20t-20.5 -8h-325q-13 0 -21 10t-8 19q0 6 2 11.5t7 11.5l303 419l4 -9h-262q-12 0 -20.5 8.5t-8.5 19.5q0 12 8.5 20t20.5 8h307q11 0 19.5 -9t8.5 -21q0 -6 -2 -11t-6 -11l-301 -415l-12 5h286zM967 569q-22 0 -34 16
l-71 78q-8 8 -8 17q0 7 5.5 11.5t13.5 4.5q10 0 26 -13l84 -68l-14 -2l82 70q8 7 14.5 10.5t13.5 3.5q8 0 13 -4.5t5 -11.5q0 -4 -2 -8.5t-7 -9.5l-72 -78q-11 -16 -33 -16h-16z" />
    <glyph glyph-name="E" unicode="E" horiz-adv-x="568" 
d="M124 700h367q12 0 21 -8.5t9 -21.5t-9 -21t-21 -8h-344l10 17v-281l-11 13h300q12 0 21 -9t9 -21q0 -13 -9 -21t-21 -8h-298l9 10v-288l-5 6h339q12 0 21 -9t9 -21q0 -13 -9 -21t-21 -8h-367q-12 0 -21 9t-9 21v640q0 12 9 21t21 9z" />
    <glyph glyph-name="Eacute" unicode="&#xc9;" horiz-adv-x="568" 
d="M124 700h367q12 0 21 -8.5t9 -21.5t-9 -21t-21 -8h-344l10 17v-281l-11 13h300q12 0 21 -9t9 -21q0 -13 -9 -21t-21 -8h-298l9 10v-288l-5 6h339q12 0 21 -9t9 -21q0 -13 -9 -21t-21 -8h-367q-12 0 -21 9t-9 21v640q0 12 9 21t21 9zM321 746q-10 0 -14.5 5.5t-4.5 12.5
q0 5 2.5 9.5t7.5 8.5l89 69q6 4 13 7.5t16 3.5q13 0 21.5 -8.5t8.5 -21.5q0 -10 -5 -18t-14 -13l-98 -49q-5 -2 -10.5 -4t-11.5 -2z" />
    <glyph glyph-name="Ebreve" unicode="&#x114;" horiz-adv-x="568" 
d="M124 700h367q12 0 21 -8.5t9 -21.5t-9 -21t-21 -8h-344l10 17v-281l-11 13h300q12 0 21 -9t9 -21q0 -13 -9 -21t-21 -8h-298l9 10v-288l-5 6h339q12 0 21 -9t9 -21q0 -13 -9 -21t-21 -8h-367q-12 0 -21 9t-9 21v640q0 12 9 21t21 9zM318 774q-51 0 -87 26.5t-50 74.5
q-4 14 1 22t18 8q12 0 17.5 -5.5t12.5 -16.5q13 -28 34.5 -43t53.5 -15q62 0 88 58q6 11 12.5 16t17.5 5q13 0 18 -7t1 -22q-13 -48 -49 -74.5t-88 -26.5z" />
    <glyph glyph-name="Ecaron" unicode="&#x11a;" horiz-adv-x="568" 
d="M124 700h367q12 0 21 -8.5t9 -21.5t-9 -21t-21 -8h-344l10 17v-281l-11 13h300q12 0 21 -9t9 -21q0 -13 -9 -21t-21 -8h-298l9 10v-288l-5 6h339q12 0 21 -9t9 -21q0 -13 -9 -21t-21 -8h-367q-12 0 -21 9t-9 21v640q0 12 9 21t21 9zM309 802l88 70q8 7 15 10t12 3
q8 0 12.5 -4.5t4.5 -10.5q0 -4 -2 -8t-6 -9l-77 -82q-6 -9 -14 -13t-19 -4h-11q-11 0 -19 4t-15 13l-76 81q-5 5 -6.5 9t-1.5 8q0 6 4.5 10.5t11.5 4.5q11 0 27 -12l90 -67z" />
    <glyph glyph-name="uni1E1C" unicode="&#x1e1c;" horiz-adv-x="568" 
d="M124 700h367q12 0 21 -8.5t9 -21.5t-9 -21t-21 -8h-344l10 17v-281l-11 13h300q12 0 21 -9t9 -21q0 -13 -9 -21t-21 -8h-298l9 10v-288l-5 6h339q12 0 21 -9t9 -21q0 -13 -9 -21t-21 -8h-367q-12 0 -21 9t-9 21v640q0 12 9 21t21 9zM245 -143q-6 0 -16 4t-18 11.5
t-8 15.5q0 11 7 18l87 109h38l-64 -139q-8 -19 -26 -19zM318 774q-51 0 -87 26.5t-50 74.5q-4 14 1 22t18 8q12 0 17.5 -5.5t12.5 -16.5q13 -28 34.5 -43t53.5 -15q62 0 88 58q6 11 12.5 16t17.5 5q13 0 18 -7t1 -22q-13 -48 -49 -74.5t-88 -26.5z" />
    <glyph glyph-name="Ecircumflex" unicode="&#xca;" horiz-adv-x="568" 
d="M124 700h367q12 0 21 -8.5t9 -21.5t-9 -21t-21 -8h-344l10 17v-281l-11 13h300q12 0 21 -9t9 -21q0 -13 -9 -21t-21 -8h-298l9 10v-288l-5 6h339q12 0 21 -9t9 -21q0 -13 -9 -21t-21 -8h-367q-12 0 -21 9t-9 21v640q0 12 9 21t21 9zM326 843l-88 -69q-8 -5 -14.5 -9
t-12.5 -4q-7 0 -12 5t-5 10t2 8.5t6 8.5l77 82q7 8 14.5 12.5t18.5 4.5h11q11 0 18.5 -4.5t15.5 -12.5l76 -81q5 -5 6.5 -9t1.5 -8q0 -5 -4.5 -10t-11.5 -5q-6 0 -12.5 3.5t-14.5 9.5l-90 65z" />
    <glyph glyph-name="uni1EBE" unicode="&#x1ebe;" horiz-adv-x="568" 
d="M124 700h367q12 0 21 -8.5t9 -21.5t-9 -21t-21 -8h-344l10 17v-281l-11 13h300q12 0 21 -9t9 -21q0 -13 -9 -21t-21 -8h-298l9 10v-288l-5 6h339q12 0 21 -9t9 -21q0 -13 -9 -21t-21 -8h-367q-12 0 -21 9t-9 21v640q0 12 9 21t21 9zM326 843l-88 -69q-8 -5 -14.5 -9
t-12.5 -4q-7 0 -12 5t-5 10t2 8.5t6 8.5l77 82q7 8 14.5 12.5t18.5 4.5h11q11 0 18.5 -4.5t15.5 -12.5l76 -81q5 -5 6.5 -9t1.5 -8q0 -5 -4.5 -10t-11.5 -5q-6 0 -12.5 3.5t-14.5 9.5l-90 65zM465 820q-10 0 -14.5 5.5t-4.5 12.5q0 5 2.5 9.5t7.5 8.5l89 69q6 4 13 7.5
t16 3.5q13 0 21.5 -8.5t8.5 -21.5q0 -10 -5 -18t-14 -13l-98 -49q-5 -2 -10.5 -4t-11.5 -2z" />
    <glyph glyph-name="uni1EC6" unicode="&#x1ec6;" horiz-adv-x="568" 
d="M124 700h367q12 0 21 -8.5t9 -21.5t-9 -21t-21 -8h-344l10 17v-281l-11 13h300q12 0 21 -9t9 -21q0 -13 -9 -21t-21 -8h-298l9 10v-288l-5 6h339q12 0 21 -9t9 -21q0 -13 -9 -21t-21 -8h-367q-12 0 -21 9t-9 21v640q0 12 9 21t21 9zM312 -139q-21 0 -31.5 10t-10.5 29v11
q0 19 11.5 29t30.5 10q20 0 30.5 -10t10.5 -29v-11q0 -19 -10.5 -29t-30.5 -10zM326 843l-88 -69q-8 -5 -14.5 -9t-12.5 -4q-7 0 -12 5t-5 10t2 8.5t6 8.5l77 82q7 8 14.5 12.5t18.5 4.5h11q11 0 18.5 -4.5t15.5 -12.5l76 -81q5 -5 6.5 -9t1.5 -8q0 -5 -4.5 -10t-11.5 -5
q-6 0 -12.5 3.5t-14.5 9.5l-90 65z" />
    <glyph glyph-name="uni1EC0" unicode="&#x1ec0;" horiz-adv-x="568" 
d="M124 700h367q12 0 21 -8.5t9 -21.5t-9 -21t-21 -8h-344l10 17v-281l-11 13h300q12 0 21 -9t9 -21q0 -13 -9 -21t-21 -8h-298l9 10v-288l-5 6h339q12 0 21 -9t9 -21q0 -13 -9 -21t-21 -8h-367q-12 0 -21 9t-9 21v640q0 12 9 21t21 9zM326 843l-88 -69q-8 -5 -14.5 -9
t-12.5 -4q-7 0 -12 5t-5 10t2 8.5t6 8.5l77 82q7 8 14.5 12.5t18.5 4.5h11q11 0 18.5 -4.5t15.5 -12.5l76 -81q5 -5 6.5 -9t1.5 -8q0 -5 -4.5 -10t-11.5 -5q-6 0 -12.5 3.5t-14.5 9.5l-90 65zM440 884q-6 0 -11 2t-11 4l-97 49q-20 11 -20 31q0 13 8.5 21.5t21.5 8.5
q9 0 16.5 -3.5t12.5 -7.5l89 -69q5 -4 7.5 -8.5t2.5 -9.5q0 -7 -4.5 -12.5t-14.5 -5.5z" />
    <glyph glyph-name="uni1EC2" unicode="&#x1ec2;" horiz-adv-x="568" 
d="M124 700h367q12 0 21 -8.5t9 -21.5t-9 -21t-21 -8h-344l10 17v-281l-11 13h300q12 0 21 -9t9 -21q0 -13 -9 -21t-21 -8h-298l9 10v-288l-5 6h339q12 0 21 -9t9 -21q0 -13 -9 -21t-21 -8h-367q-12 0 -21 9t-9 21v640q0 12 9 21t21 9zM326 843l-88 -69q-8 -5 -14.5 -9
t-12.5 -4q-7 0 -12 5t-5 10t2 8.5t6 8.5l77 82q7 8 14.5 12.5t18.5 4.5h11q11 0 18.5 -4.5t15.5 -12.5l76 -81q5 -5 6.5 -9t1.5 -8q0 -5 -4.5 -10t-11.5 -5q-6 0 -12.5 3.5t-14.5 9.5l-90 65zM242 1102q14 13 33 22t41 9q32 0 49.5 -12t25 -29.5t7.5 -32.5q0 -17 -9 -30.5
t-25 -29.5q-5 -6 -8.5 -12t-3.5 -15q-1 -8 -7.5 -12t-15.5 -4q-8 0 -13.5 5t-5.5 12q0 9 2.5 19.5t11.5 20.5q13 13 21 23t8 22q0 13 -10.5 21.5t-25.5 8.5q-14 0 -25.5 -5.5t-20.5 -12.5q-7 -7 -16 -7.5t-17 7.5q-6 7 -5 15.5t9 16.5z" />
    <glyph glyph-name="uni1EC4" unicode="&#x1ec4;" horiz-adv-x="568" 
d="M124 700h367q12 0 21 -8.5t9 -21.5t-9 -21t-21 -8h-344l10 17v-281l-11 13h300q12 0 21 -9t9 -21q0 -13 -9 -21t-21 -8h-298l9 10v-288l-5 6h339q12 0 21 -9t9 -21q0 -13 -9 -21t-21 -8h-367q-12 0 -21 9t-9 21v640q0 12 9 21t21 9zM326 843l-88 -69q-8 -5 -14.5 -9
t-12.5 -4q-7 0 -12 5t-5 10t2 8.5t6 8.5l77 82q7 8 14.5 12.5t18.5 4.5h11q11 0 18.5 -4.5t15.5 -12.5l76 -81q5 -5 6.5 -9t1.5 -8q0 -5 -4.5 -10t-11.5 -5q-6 0 -12.5 3.5t-14.5 9.5l-90 65zM189 898q-13 0 -19.5 11.5t-3.5 32.5q7 32 31.5 49.5t55.5 17.5q25 0 50 -14.5
t48.5 -29t40.5 -14.5q14 0 22.5 11t10.5 28q-1 12 5.5 19t16.5 7q15 0 21 -12t3 -31q-3 -22 -14.5 -38t-28 -24.5t-38.5 -8.5q-24 0 -49.5 14.5t-49.5 28.5t-41 14q-14 0 -24 -9.5t-15 -29.5q1 -10 -6.5 -16t-15.5 -6z" />
    <glyph glyph-name="uni0204" unicode="&#x204;" horiz-adv-x="568" 
d="M124 700h367q12 0 21 -8.5t9 -21.5t-9 -21t-21 -8h-344l10 17v-281l-11 13h300q12 0 21 -9t9 -21q0 -13 -9 -21t-21 -8h-298l9 10v-288l-5 6h339q12 0 21 -9t9 -21q0 -13 -9 -21t-21 -8h-367q-12 0 -21 9t-9 21v640q0 12 9 21t21 9zM269 755q-6 0 -11 2.5t-11 4.5l-97 48
q-20 11 -20 32q0 12 8.5 21t21.5 9q9 0 16.5 -3.5t12.5 -8.5l89 -69q5 -4 7.5 -8t2.5 -10q0 -7 -4.5 -12.5t-14.5 -5.5zM437 755q-6 0 -11.5 2t-10.5 4l-98 49q-19 11 -19 31q0 13 8.5 21.5t21.5 8.5q9 0 16 -3.5t13 -7.5l89 -69q5 -4 7.5 -8.5t2.5 -9.5q0 -7 -4.5 -12.5
t-14.5 -5.5z" />
    <glyph glyph-name="Edieresis" unicode="&#xcb;" horiz-adv-x="568" 
d="M124 700h367q12 0 21 -8.5t9 -21.5t-9 -21t-21 -8h-344l10 17v-281l-11 13h300q12 0 21 -9t9 -21q0 -13 -9 -21t-21 -8h-298l9 10v-288l-5 6h339q12 0 21 -9t9 -21q0 -13 -9 -21t-21 -8h-367q-12 0 -21 9t-9 21v640q0 12 9 21t21 9zM404 775q-19 0 -30 10.5t-11 29.5v10
q0 19 11.5 29.5t30.5 10.5t30 -10.5t11 -29.5v-10q0 -20 -11 -30t-31 -10zM232 775q-19 0 -30 10.5t-11 29.5v10q0 19 11.5 29.5t30.5 10.5t30 -10.5t11 -29.5v-10q0 -20 -11 -30t-31 -10z" />
    <glyph glyph-name="Edotaccent" unicode="&#x116;" horiz-adv-x="568" 
d="M124 700h367q12 0 21 -8.5t9 -21.5t-9 -21t-21 -8h-344l10 17v-281l-11 13h300q12 0 21 -9t9 -21q0 -13 -9 -21t-21 -8h-298l9 10v-288l-5 6h339q12 0 21 -9t9 -21q0 -13 -9 -21t-21 -8h-367q-12 0 -21 9t-9 21v640q0 12 9 21t21 9zM318 770q-21 0 -31.5 10.5t-10.5 29.5
v10q0 20 11.5 30t31.5 10q19 0 29.5 -10t10.5 -30v-10q0 -20 -10.5 -30t-30.5 -10z" />
    <glyph glyph-name="uni1EB8" unicode="&#x1eb8;" horiz-adv-x="568" 
d="M124 700h367q12 0 21 -8.5t9 -21.5t-9 -21t-21 -8h-344l10 17v-281l-11 13h300q12 0 21 -9t9 -21q0 -13 -9 -21t-21 -8h-298l9 10v-288l-5 6h339q12 0 21 -9t9 -21q0 -13 -9 -21t-21 -8h-367q-12 0 -21 9t-9 21v640q0 12 9 21t21 9zM312 -139q-21 0 -31.5 10t-10.5 29v11
q0 19 11.5 29t30.5 10q20 0 30.5 -10t10.5 -29v-11q0 -19 -10.5 -29t-30.5 -10z" />
    <glyph glyph-name="Egrave" unicode="&#xc8;" horiz-adv-x="568" 
d="M124 700h367q12 0 21 -8.5t9 -21.5t-9 -21t-21 -8h-344l10 17v-281l-11 13h300q12 0 21 -9t9 -21q0 -13 -9 -21t-21 -8h-298l9 10v-288l-5 6h339q12 0 21 -9t9 -21q0 -13 -9 -21t-21 -8h-367q-12 0 -21 9t-9 21v640q0 12 9 21t21 9zM318 747q-6 0 -11 2t-11 4l-97 49
q-20 11 -20 31q0 13 8.5 21.5t21.5 8.5q9 0 16.5 -3.5t12.5 -7.5l89 -69q5 -4 7.5 -8.5t2.5 -9.5q0 -7 -4.5 -12.5t-14.5 -5.5z" />
    <glyph glyph-name="uni1EBA" unicode="&#x1eba;" horiz-adv-x="568" 
d="M124 700h367q12 0 21 -8.5t9 -21.5t-9 -21t-21 -8h-344l10 17v-281l-11 13h300q12 0 21 -9t9 -21q0 -13 -9 -21t-21 -8h-298l9 10v-288l-5 6h339q12 0 21 -9t9 -21q0 -13 -9 -21t-21 -8h-367q-12 0 -21 9t-9 21v640q0 12 9 21t21 9zM242 903q14 13 33 22t41 9
q32 0 49.5 -12t25 -29.5t7.5 -32.5q0 -17 -9 -30.5t-25 -29.5q-5 -6 -8.5 -12t-3.5 -15q-1 -8 -7.5 -12t-15.5 -4q-8 0 -13.5 5t-5.5 12q0 9 2.5 19.5t11.5 20.5q13 13 21 23t8 22q0 13 -10.5 21.5t-25.5 8.5q-14 0 -25.5 -5.5t-20.5 -12.5q-7 -7 -16 -7.5t-17 7.5
q-6 7 -5 15.5t9 16.5z" />
    <glyph glyph-name="uni0206" unicode="&#x206;" horiz-adv-x="568" 
d="M124 700h367q12 0 21 -8.5t9 -21.5t-9 -21t-21 -8h-344l10 17v-281l-11 13h300q12 0 21 -9t9 -21q0 -13 -9 -21t-21 -8h-298l9 10v-288l-5 6h339q12 0 21 -9t9 -21q0 -13 -9 -21t-21 -8h-367q-12 0 -21 9t-9 21v640q0 12 9 21t21 9zM317 865q35 0 63 -13t46 -35.5
t21 -49.5q3 -12 -4 -19.5t-18 -7.5q-12 0 -18.5 6.5t-11.5 17.5q-7 25 -28.5 38t-49.5 13q-29 0 -50.5 -13t-27.5 -38q-4 -11 -11 -17.5t-20 -6.5q-11 0 -17.5 7.5t-4.5 18.5q3 28 21 50.5t46.5 35.5t63.5 13z" />
    <glyph glyph-name="Emacron" unicode="&#x112;" horiz-adv-x="568" 
d="M124 700h367q12 0 21 -8.5t9 -21.5t-9 -21t-21 -8h-344l10 17v-281l-11 13h300q12 0 21 -9t9 -21q0 -13 -9 -21t-21 -8h-298l9 10v-288l-5 6h339q12 0 21 -9t9 -21q0 -13 -9 -21t-21 -8h-367q-12 0 -21 9t-9 21v640q0 12 9 21t21 9zM194 788q-29 0 -29 25q0 26 29 26h255
q29 0 29 -26q0 -25 -29 -25h-255z" />
    <glyph glyph-name="uni1E16" unicode="&#x1e16;" horiz-adv-x="568" 
d="M124 700h367q12 0 21 -8.5t9 -21.5t-9 -21t-21 -8h-344l10 17v-281l-11 13h300q12 0 21 -9t9 -21q0 -13 -9 -21t-21 -8h-298l9 10v-288l-5 6h339q12 0 21 -9t9 -21q0 -13 -9 -21t-21 -8h-367q-12 0 -21 9t-9 21v640q0 12 9 21t21 9zM194 788q-29 0 -29 25q0 26 29 26h255
q29 0 29 -26q0 -25 -29 -25h-255zM321 900q-10 0 -14.5 5.5t-4.5 12.5q0 5 2.5 9.5t7.5 8.5l89 69q6 4 13 7.5t16 3.5q13 0 21.5 -8.5t8.5 -21.5q0 -10 -5 -18t-14 -13l-98 -49q-5 -2 -10.5 -4t-11.5 -2z" />
    <glyph glyph-name="uni1E14" unicode="&#x1e14;" horiz-adv-x="568" 
d="M124 700h367q12 0 21 -8.5t9 -21.5t-9 -21t-21 -8h-344l10 17v-281l-11 13h300q12 0 21 -9t9 -21q0 -13 -9 -21t-21 -8h-298l9 10v-288l-5 6h339q12 0 21 -9t9 -21q0 -13 -9 -21t-21 -8h-367q-12 0 -21 9t-9 21v640q0 12 9 21t21 9zM194 788q-29 0 -29 25q0 26 29 26h255
q29 0 29 -26q0 -25 -29 -25h-255zM318 901q-6 0 -11 2t-11 4l-97 49q-20 11 -20 31q0 13 8.5 21.5t21.5 8.5q9 0 16.5 -3.5t12.5 -7.5l89 -69q5 -4 7.5 -8.5t2.5 -9.5q0 -7 -4.5 -12.5t-14.5 -5.5z" />
    <glyph glyph-name="Eogonek" unicode="&#x118;" horiz-adv-x="579" 
d="M442 -190q-37 0 -66.5 25t-29.5 70q0 26 10.5 46.5t27 35t36.5 24.5t39 16l4 -27h-339q-12 0 -21 9t-9 21v640q0 12 9 21t21 9h367q12 0 21 -8.5t9 -21.5q0 -12 -9 -20t-21 -8h-344l10 17v-282l-11 13h300q12 0 21 -9t9 -21t-9 -20.5t-21 -8.5h-298l9 10v-288l-5 6h339
q12 0 21 -8.5t9 -21.5t-9 -20t-25 -10q-21 -2 -41 -13.5t-33 -29.5t-13 -39q0 -27 15 -41.5t34 -14.5q23 0 29 11q5 8 12 12t14 4q10 0 15.5 -6.5t5.5 -16.5q0 -14 -11 -27t-29.5 -20.5t-42.5 -7.5z" />
    <glyph glyph-name="uni1EBC" unicode="&#x1ebc;" horiz-adv-x="568" 
d="M124 700h367q12 0 21 -8.5t9 -21.5t-9 -21t-21 -8h-344l10 17v-281l-11 13h300q12 0 21 -9t9 -21q0 -13 -9 -21t-21 -8h-298l9 10v-288l-5 6h339q12 0 21 -9t9 -21q0 -13 -9 -21t-21 -8h-367q-12 0 -21 9t-9 21v640q0 12 9 21t21 9zM189 771q-13 0 -19.5 11.5t-3.5 32.5
q7 32 31.5 49.5t55.5 17.5q25 0 50 -14.5t48.5 -29t40.5 -14.5q14 0 22.5 11t10.5 28q-1 12 5.5 19t16.5 7q15 0 21 -12t3 -31q-3 -22 -14.5 -38t-28 -24.5t-38.5 -8.5q-24 0 -49.5 14.5t-49.5 28.5t-41 14q-14 0 -24 -9.5t-15 -29.5q1 -10 -6.5 -16t-15.5 -6z" />
    <glyph glyph-name="F" unicode="F" horiz-adv-x="566" 
d="M125 0q-14 0 -22.5 9t-8.5 21v640q0 12 9 21t21 9h364q13 0 21.5 -8.5t8.5 -21.5q0 -12 -8.5 -20.5t-21.5 -8.5h-337l4 6v-266l-5 9h293q13 0 21.5 -8.5t8.5 -20.5q0 -13 -8.5 -21t-21.5 -8h-295l7 8v-310q0 -12 -8.5 -21t-21.5 -9z" />
    <glyph glyph-name="G" unicode="G" horiz-adv-x="695" 
d="M408 -10q-77 0 -143 27t-114.5 75.5t-75.5 114.5t-27 143t27 143t75.5 114.5t114.5 75.5t143 27q53 0 102.5 -12.5t88.5 -37.5q7 -5 10.5 -11.5t3.5 -13.5q0 -14 -9 -22.5t-19 -8.5q-5 0 -9.5 1.5t-8.5 3.5q-34 19 -74 30t-85 11q-86 0 -153 -39t-105 -107t-38 -154
t38 -154t105 -107t153 -39q45 0 90.5 13t78.5 35l-5 -21v230l15 -14h-173q-13 0 -22 9t-9 21q0 14 9 22t22 8h191q13 0 21.5 -8.5t8.5 -21.5v-241q0 -8 -4 -15t-11 -12q-44 -30 -98.5 -47.5t-113.5 -17.5z" />
    <glyph glyph-name="Gbreve" unicode="&#x11e;" horiz-adv-x="695" 
d="M408 -10q-77 0 -143 27t-114.5 75.5t-75.5 114.5t-27 143t27 143t75.5 114.5t114.5 75.5t143 27q53 0 102.5 -12.5t88.5 -37.5q7 -5 10.5 -11.5t3.5 -13.5q0 -14 -9 -22.5t-19 -8.5q-5 0 -9.5 1.5t-8.5 3.5q-34 19 -74 30t-85 11q-86 0 -153 -39t-105 -107t-38 -154
t38 -154t105 -107t153 -39q45 0 90.5 13t78.5 35l-5 -21v230l15 -14h-173q-13 0 -22 9t-9 21q0 14 9 22t22 8h191q13 0 21.5 -8.5t8.5 -21.5v-241q0 -8 -4 -15t-11 -12q-44 -30 -98.5 -47.5t-113.5 -17.5zM380 774q-51 0 -87 26.5t-50 74.5q-4 14 1 22t18 8q12 0 17.5 -5.5
t12.5 -16.5q13 -28 34.5 -43t53.5 -15q62 0 88 58q6 11 12.5 16t17.5 5q13 0 18 -7t1 -22q-13 -48 -49 -74.5t-88 -26.5z" />
    <glyph glyph-name="Gcaron" unicode="&#x1e6;" horiz-adv-x="695" 
d="M408 -10q-77 0 -143 27t-114.5 75.5t-75.5 114.5t-27 143t27 143t75.5 114.5t114.5 75.5t143 27q53 0 102.5 -12.5t88.5 -37.5q7 -5 10.5 -11.5t3.5 -13.5q0 -14 -9 -22.5t-19 -8.5q-5 0 -9.5 1.5t-8.5 3.5q-34 19 -74 30t-85 11q-86 0 -153 -39t-105 -107t-38 -154
t38 -154t105 -107t153 -39q45 0 90.5 13t78.5 35l-5 -21v230l15 -14h-173q-13 0 -22 9t-9 21q0 14 9 22t22 8h191q13 0 21.5 -8.5t8.5 -21.5v-241q0 -8 -4 -15t-11 -12q-44 -30 -98.5 -47.5t-113.5 -17.5zM371 802l88 70q8 7 15 10t12 3q8 0 12.5 -4.5t4.5 -10.5q0 -4 -2 -8
t-6 -9l-77 -82q-6 -9 -14 -13t-19 -4h-11q-11 0 -19 4t-15 13l-76 81q-5 5 -6.5 9t-1.5 8q0 6 4.5 10.5t11.5 4.5q11 0 27 -12l90 -67z" />
    <glyph glyph-name="Gcircumflex" unicode="&#x11c;" horiz-adv-x="695" 
d="M408 -10q-77 0 -143 27t-114.5 75.5t-75.5 114.5t-27 143t27 143t75.5 114.5t114.5 75.5t143 27q53 0 102.5 -12.5t88.5 -37.5q7 -5 10.5 -11.5t3.5 -13.5q0 -14 -9 -22.5t-19 -8.5q-5 0 -9.5 1.5t-8.5 3.5q-34 19 -74 30t-85 11q-86 0 -153 -39t-105 -107t-38 -154
t38 -154t105 -107t153 -39q45 0 90.5 13t78.5 35l-5 -21v230l15 -14h-173q-13 0 -22 9t-9 21q0 14 9 22t22 8h191q13 0 21.5 -8.5t8.5 -21.5v-241q0 -8 -4 -15t-11 -12q-44 -30 -98.5 -47.5t-113.5 -17.5zM387 843l-88 -69q-8 -5 -14.5 -9t-12.5 -4q-7 0 -12 5t-5 10t2 8.5
t6 8.5l77 82q7 8 14.5 12.5t18.5 4.5h11q11 0 18.5 -4.5t15.5 -12.5l76 -81q5 -5 6.5 -9t1.5 -8q0 -5 -4.5 -10t-11.5 -5q-6 0 -12.5 3.5t-14.5 9.5l-90 65z" />
    <glyph glyph-name="uni0122" unicode="&#x122;" horiz-adv-x="695" 
d="M408 -10q-77 0 -143 27t-114.5 75.5t-75.5 114.5t-27 143t27 143t75.5 114.5t114.5 75.5t143 27q53 0 102.5 -12.5t88.5 -37.5q7 -5 10.5 -11.5t3.5 -13.5q0 -14 -9 -22.5t-19 -8.5q-5 0 -9.5 1.5t-8.5 3.5q-34 19 -74 30t-85 11q-86 0 -153 -39t-105 -107t-38 -154
t38 -154t105 -107t153 -39q45 0 90.5 13t78.5 35l-5 -21v230l15 -14h-173q-13 0 -22 9t-9 21q0 14 9 22t22 8h191q13 0 21.5 -8.5t8.5 -21.5v-241q0 -8 -4 -15t-11 -12q-44 -30 -98.5 -47.5t-113.5 -17.5zM451 -107q0 -20 -11 -37.5t-28.5 -28t-37.5 -10.5q-19 0 -27 6
t-8 14q0 9 4.5 14t10.5 5q5 0 11.5 -2.5t17.5 -0.5q9 1 14 9t5 23q0 12 -10 12q-6 0 -9.5 -4t-12.5 -4q-12 -1 -19 8t-7 19q0 17 14 27t38 10q23 0 39 -15t16 -45z" />
    <glyph glyph-name="Gdotaccent" unicode="&#x120;" horiz-adv-x="695" 
d="M408 -10q-77 0 -143 27t-114.5 75.5t-75.5 114.5t-27 143t27 143t75.5 114.5t114.5 75.5t143 27q53 0 102.5 -12.5t88.5 -37.5q7 -5 10.5 -11.5t3.5 -13.5q0 -14 -9 -22.5t-19 -8.5q-5 0 -9.5 1.5t-8.5 3.5q-34 19 -74 30t-85 11q-86 0 -153 -39t-105 -107t-38 -154
t38 -154t105 -107t153 -39q45 0 90.5 13t78.5 35l-5 -21v230l15 -14h-173q-13 0 -22 9t-9 21q0 14 9 22t22 8h191q13 0 21.5 -8.5t8.5 -21.5v-241q0 -8 -4 -15t-11 -12q-44 -30 -98.5 -47.5t-113.5 -17.5zM380 770q-21 0 -31.5 10.5t-10.5 29.5v10q0 20 11.5 30t31.5 10
q19 0 29.5 -10t10.5 -30v-10q0 -20 -10.5 -30t-30.5 -10z" />
    <glyph glyph-name="uni1E20" unicode="&#x1e20;" horiz-adv-x="695" 
d="M408 -10q-77 0 -143 27t-114.5 75.5t-75.5 114.5t-27 143t27 143t75.5 114.5t114.5 75.5t143 27q53 0 102.5 -12.5t88.5 -37.5q7 -5 10.5 -11.5t3.5 -13.5q0 -14 -9 -22.5t-19 -8.5q-5 0 -9.5 1.5t-8.5 3.5q-34 19 -74 30t-85 11q-86 0 -153 -39t-105 -107t-38 -154
t38 -154t105 -107t153 -39q45 0 90.5 13t78.5 35l-5 -21v230l15 -14h-173q-13 0 -22 9t-9 21q0 14 9 22t22 8h191q13 0 21.5 -8.5t8.5 -21.5v-241q0 -8 -4 -15t-11 -12q-44 -30 -98.5 -47.5t-113.5 -17.5zM256 788q-29 0 -29 25q0 26 29 26h255q29 0 29 -26q0 -25 -29 -25
h-255z" />
    <glyph glyph-name="H" unicode="H" horiz-adv-x="720" 
d="M126 700q12 0 21.5 -9t9.5 -22v-638q-1 -13 -10.5 -22t-21.5 -9q-14 0 -22.5 9t-8.5 22v638q0 13 9 22t23 9zM595 700q14 0 22.5 -9t8.5 -22v-638q-1 -13 -9.5 -22t-22.5 -9q-13 0 -22 9t-9 22v638q0 13 9.5 22t22.5 9zM121 387h475l-1 -58h-478z" />
    <glyph glyph-name="Hbar" unicode="&#x126;" horiz-adv-x="832" 
d="M113 489q-12 0 -20 8.5t-8 19.5q0 12 8 19.5t20 7.5h606q12 0 20 -8t8 -19q0 -12 -8 -20t-20 -8h-606zM181 700q13 0 22 -9t9 -22v-638q0 -13 -9.5 -22t-21.5 -9q-15 0 -23 9t-8 22v638q0 13 9 22t22 9zM651 700q13 0 22 -9t9 -22v-638q-1 -13 -10 -22t-22 -9t-22 9
t-9 22v638q0 13 9.5 22t22.5 9zM177 387h475l-1 -58h-479z" />
    <glyph glyph-name="uni1E2A" unicode="&#x1e2a;" horiz-adv-x="720" 
d="M126 700q12 0 21.5 -9t9.5 -22v-638q-1 -13 -10.5 -22t-21.5 -9q-14 0 -22.5 9t-8.5 22v638q0 13 9 22t23 9zM595 700q14 0 22.5 -9t8.5 -22v-638q-1 -13 -9.5 -22t-22.5 -9q-13 0 -22 9t-9 22v638q0 13 9.5 22t22.5 9zM121 387h475l-1 -58h-478zM361 -151
q-34 0 -62.5 16.5t-47 44.5t-21.5 60q-2 11 4.5 19t17.5 8q13 0 20 -6.5t11 -17.5q6 -35 27.5 -54.5t50.5 -19.5q28 0 49.5 19.5t28.5 54.5q5 11 11.5 17.5t18.5 6.5q11 0 18 -7.5t4 -19.5q-3 -32 -21 -60t-46 -44.5t-63 -16.5z" />
    <glyph glyph-name="Hcircumflex" unicode="&#x124;" horiz-adv-x="720" 
d="M126 700q12 0 21.5 -9t9.5 -22v-638q-1 -13 -10.5 -22t-21.5 -9q-14 0 -22.5 9t-8.5 22v638q0 13 9 22t23 9zM595 700q14 0 22.5 -9t8.5 -22v-638q-1 -13 -9.5 -22t-22.5 -9q-13 0 -22 9t-9 22v638q0 13 9.5 22t22.5 9zM121 387h475l-1 -58h-478zM368 843l-88 -69
q-8 -5 -14.5 -9t-12.5 -4q-7 0 -12 5t-5 10t2 8.5t6 8.5l77 82q7 8 14.5 12.5t18.5 4.5h11q11 0 18.5 -4.5t15.5 -12.5l76 -81q5 -5 6.5 -9t1.5 -8q0 -5 -4.5 -10t-11.5 -5q-6 0 -12.5 3.5t-14.5 9.5l-90 65z" />
    <glyph glyph-name="uni1E24" unicode="&#x1e24;" horiz-adv-x="720" 
d="M126 700q12 0 21.5 -9t9.5 -22v-638q-1 -13 -10.5 -22t-21.5 -9q-14 0 -22.5 9t-8.5 22v638q0 13 9 22t23 9zM595 700q14 0 22.5 -9t8.5 -22v-638q-1 -13 -9.5 -22t-22.5 -9q-13 0 -22 9t-9 22v638q0 13 9.5 22t22.5 9zM121 387h475l-1 -58h-478zM360 -139
q-21 0 -31.5 10t-10.5 29v11q0 19 11.5 29t30.5 10q20 0 30.5 -10t10.5 -29v-11q0 -19 -10.5 -29t-30.5 -10z" />
    <glyph glyph-name="I" unicode="I" horiz-adv-x="250" 
d="M157 31q-1 -13 -10.5 -22t-21.5 -9q-14 0 -22.5 9t-8.5 22v638q0 13 9 22t23 9q12 0 21.5 -9t9.5 -22v-638z" />
    <glyph glyph-name="IJ" unicode="&#x132;" horiz-adv-x="599" 
d="M170 267q-1 -13 -10 -22t-21 -9q-15 0 -23.5 9t-8.5 22v402q0 13 9 22t23 9q13 0 22 -9t9 -22v-402zM287 -10q-63 0 -112.5 35t-76.5 92q-4 9 -4 16q0 13 9.5 20.5t19.5 7.5t16.5 -5t12.5 -12q19 -42 54.5 -68t80.5 -26q47 0 81.5 19.5t54.5 54.5t20 80v466q0 12 9 21
t23 9t22 -9t8 -21v-466q0 -62 -27.5 -110.5t-77 -76t-113.5 -27.5z" />
    <glyph glyph-name="Iacute" unicode="&#xcd;" horiz-adv-x="250" 
d="M157 31q-1 -13 -10.5 -22t-21.5 -9q-14 0 -22.5 9t-8.5 22v638q0 13 9 22t23 9q12 0 21.5 -9t9.5 -22v-638zM129 746q-10 0 -14.5 5.5t-4.5 12.5q0 5 2.5 9.5t7.5 8.5l89 69q6 4 13 7.5t16 3.5q13 0 21.5 -8.5t8.5 -21.5q0 -10 -5 -18t-14 -13l-98 -49q-5 -2 -10.5 -4
t-11.5 -2z" />
    <glyph glyph-name="Ibreve" unicode="&#x12c;" horiz-adv-x="250" 
d="M157 31q-1 -13 -10.5 -22t-21.5 -9q-14 0 -22.5 9t-8.5 22v638q0 13 9 22t23 9q12 0 21.5 -9t9.5 -22v-638zM126 774q-51 0 -87 26.5t-50 74.5q-4 14 1 22t18 8q12 0 17.5 -5.5t12.5 -16.5q13 -28 34.5 -43t53.5 -15q62 0 88 58q6 11 12.5 16t17.5 5q13 0 18 -7t1 -22
q-13 -48 -49 -74.5t-88 -26.5z" />
    <glyph glyph-name="uni01CF" unicode="&#x1cf;" horiz-adv-x="250" 
d="M157 31q-1 -13 -10.5 -22t-21.5 -9q-14 0 -22.5 9t-8.5 22v638q0 13 9 22t23 9q12 0 21.5 -9t9.5 -22v-638zM117 802l88 70q8 7 15 10t12 3q8 0 12.5 -4.5t4.5 -10.5q0 -4 -2 -8t-6 -9l-77 -82q-6 -9 -14 -13t-19 -4h-11q-11 0 -19 4t-15 13l-76 81q-5 5 -6.5 9t-1.5 8
q0 6 4.5 10.5t11.5 4.5q11 0 27 -12l90 -67z" />
    <glyph glyph-name="Icircumflex" unicode="&#xce;" horiz-adv-x="250" 
d="M157 31q-1 -13 -10.5 -22t-21.5 -9q-14 0 -22.5 9t-8.5 22v638q0 13 9 22t23 9q12 0 21.5 -9t9.5 -22v-638zM133 843l-88 -69q-8 -5 -14.5 -9t-12.5 -4q-7 0 -12 5t-5 10t2 8.5t6 8.5l77 82q7 8 14.5 12.5t18.5 4.5h11q11 0 18.5 -4.5t15.5 -12.5l76 -81q5 -5 6.5 -9
t1.5 -8q0 -5 -4.5 -10t-11.5 -5q-6 0 -12.5 3.5t-14.5 9.5l-90 65z" />
    <glyph glyph-name="uni0208" unicode="&#x208;" horiz-adv-x="250" 
d="M157 31q-1 -13 -10.5 -22t-21.5 -9q-14 0 -22.5 9t-8.5 22v638q0 13 9 22t23 9q12 0 21.5 -9t9.5 -22v-638zM77 755q-6 0 -11 2.5t-11 4.5l-97 48q-20 11 -20 32q0 12 8.5 21t21.5 9q9 0 16.5 -3.5t12.5 -8.5l89 -69q5 -4 7.5 -8t2.5 -10q0 -7 -4.5 -12.5t-14.5 -5.5z
M245 755q-6 0 -11.5 2t-10.5 4l-98 49q-19 11 -19 31q0 13 8.5 21.5t21.5 8.5q9 0 16 -3.5t13 -7.5l89 -69q5 -4 7.5 -8.5t2.5 -9.5q0 -7 -4.5 -12.5t-14.5 -5.5z" />
    <glyph glyph-name="Idieresis" unicode="&#xcf;" horiz-adv-x="250" 
d="M157 31q-1 -13 -10.5 -22t-21.5 -9q-14 0 -22.5 9t-8.5 22v638q0 13 9 22t23 9q12 0 21.5 -9t9.5 -22v-638zM212 775q-19 0 -30 10.5t-11 29.5v10q0 19 11.5 29.5t30.5 10.5t30 -10.5t11 -29.5v-10q0 -20 -11 -30t-31 -10zM40 775q-19 0 -30 10.5t-11 29.5v10
q0 19 11.5 29.5t30.5 10.5t30 -10.5t11 -29.5v-10q0 -20 -11 -30t-31 -10z" />
    <glyph glyph-name="uni1E2E" unicode="&#x1e2e;" horiz-adv-x="250" 
d="M157 31q-1 -13 -10.5 -22t-21.5 -9q-14 0 -22.5 9t-8.5 22v638q0 13 9 22t23 9q12 0 21.5 -9t9.5 -22v-638zM212 775q-19 0 -30 10.5t-11 29.5v10q0 19 11.5 29.5t30.5 10.5t30 -10.5t11 -29.5v-10q0 -20 -11 -30t-31 -10zM40 775q-19 0 -30 10.5t-11 29.5v10
q0 19 11.5 29.5t30.5 10.5t30 -10.5t11 -29.5v-10q0 -20 -11 -30t-31 -10zM129 916q-10 0 -14.5 5.5t-4.5 12.5q0 5 2.5 9.5t7.5 8.5l89 69q6 4 13 7.5t16 3.5q13 0 21.5 -8.5t8.5 -21.5q0 -10 -5 -18t-14 -13l-98 -49q-5 -2 -10.5 -4t-11.5 -2z" />
    <glyph glyph-name="Idotaccent" unicode="&#x130;" horiz-adv-x="250" 
d="M157 31q-1 -13 -10.5 -22t-21.5 -9q-14 0 -22.5 9t-8.5 22v638q0 13 9 22t23 9q12 0 21.5 -9t9.5 -22v-638zM126 770q-21 0 -31.5 10.5t-10.5 29.5v10q0 20 11.5 30t31.5 10q19 0 29.5 -10t10.5 -30v-10q0 -20 -10.5 -30t-30.5 -10z" />
    <glyph glyph-name="uni1ECA" unicode="&#x1eca;" horiz-adv-x="250" 
d="M157 31q-1 -13 -10.5 -22t-21.5 -9q-14 0 -22.5 9t-8.5 22v638q0 13 9 22t23 9q12 0 21.5 -9t9.5 -22v-638zM126 -139q-21 0 -31.5 10t-10.5 29v11q0 19 11.5 29t30.5 10q20 0 30.5 -10t10.5 -29v-11q0 -19 -10.5 -29t-30.5 -10z" />
    <glyph glyph-name="Igrave" unicode="&#xcc;" horiz-adv-x="250" 
d="M157 31q-1 -13 -10.5 -22t-21.5 -9q-14 0 -22.5 9t-8.5 22v638q0 13 9 22t23 9q12 0 21.5 -9t9.5 -22v-638zM126 747q-6 0 -11 2t-11 4l-97 49q-20 11 -20 31q0 13 8.5 21.5t21.5 8.5q9 0 16.5 -3.5t12.5 -7.5l89 -69q5 -4 7.5 -8.5t2.5 -9.5q0 -7 -4.5 -12.5t-14.5 -5.5
z" />
    <glyph glyph-name="uni1EC8" unicode="&#x1ec8;" horiz-adv-x="250" 
d="M157 31q-1 -13 -10.5 -22t-21.5 -9q-14 0 -22.5 9t-8.5 22v638q0 13 9 22t23 9q12 0 21.5 -9t9.5 -22v-638zM49 903q14 13 33 22t41 9q32 0 49.5 -12t25 -29.5t7.5 -32.5q0 -17 -9 -30.5t-25 -29.5q-5 -6 -8.5 -12t-3.5 -15q-1 -8 -7.5 -12t-15.5 -4q-8 0 -13.5 5
t-5.5 12q0 9 2.5 19.5t11.5 20.5q13 13 21 23t8 22q0 13 -10.5 21.5t-25.5 8.5q-14 0 -25.5 -5.5t-20.5 -12.5q-7 -7 -16 -7.5t-17 7.5q-6 7 -5 15.5t9 16.5z" />
    <glyph glyph-name="uni020A" unicode="&#x20a;" horiz-adv-x="250" 
d="M157 31q-1 -13 -10.5 -22t-21.5 -9q-14 0 -22.5 9t-8.5 22v638q0 13 9 22t23 9q12 0 21.5 -9t9.5 -22v-638zM125 865q35 0 63 -13t46 -35.5t21 -49.5q3 -12 -4 -19.5t-18 -7.5q-12 0 -18.5 6.5t-11.5 17.5q-7 25 -28.5 38t-49.5 13q-29 0 -50.5 -13t-27.5 -38
q-4 -11 -11 -17.5t-20 -6.5q-11 0 -17.5 7.5t-4.5 18.5q3 28 21 50.5t46.5 35.5t63.5 13z" />
    <glyph glyph-name="Imacron" unicode="&#x12a;" horiz-adv-x="250" 
d="M157 31q-1 -13 -10.5 -22t-21.5 -9q-14 0 -22.5 9t-8.5 22v638q0 13 9 22t23 9q12 0 21.5 -9t9.5 -22v-638zM2 788q-29 0 -29 25q0 26 29 26h255q29 0 29 -26q0 -25 -29 -25h-255z" />
    <glyph glyph-name="Iogonek" unicode="&#x12e;" horiz-adv-x="235" 
d="M101 -190q-37 0 -66.5 25t-29.5 70q0 28 9.5 49t25.5 37t35 26t39 16l-1 -19l-21 10v645q0 13 9.5 22t23.5 9q13 0 22 -9t9 -22v-638q0 -10 -4.5 -16t-16.5 -11q-28 -10 -52.5 -32.5t-24.5 -54.5q0 -27 15 -41.5t34 -14.5q17 0 25 6.5t14.5 13.5t15.5 7q10 0 16 -6.5
t6 -16.5q0 -14 -11.5 -27t-30 -20.5t-41.5 -7.5z" />
    <glyph glyph-name="Itilde" unicode="&#x128;" horiz-adv-x="250" 
d="M157 31q-1 -13 -10.5 -22t-21.5 -9q-14 0 -22.5 9t-8.5 22v638q0 13 9 22t23 9q12 0 21.5 -9t9.5 -22v-638zM-3 771q-13 0 -19.5 11.5t-3.5 32.5q7 32 31.5 49.5t55.5 17.5q25 0 50 -14.5t48.5 -29t40.5 -14.5q14 0 22.5 11t10.5 28q-1 12 5.5 19t16.5 7q15 0 21 -12
t3 -31q-3 -22 -14.5 -38t-28 -24.5t-38.5 -8.5q-24 0 -49.5 14.5t-49.5 28.5t-41 14q-14 0 -24 -9.5t-15 -29.5q1 -10 -6.5 -16t-15.5 -6z" />
    <glyph glyph-name="J" unicode="J" horiz-adv-x="572" 
d="M260 -10q-63 0 -113 35t-76 92q-5 9 -5 16q0 13 10 20.5t20 7.5t16.5 -5t11.5 -12q19 -42 55 -68t81 -26q46 0 81 19.5t54.5 54.5t19.5 80v466q0 12 9.5 21t22.5 9q14 0 22.5 -9t8.5 -21v-466q0 -62 -28 -110.5t-77 -76t-113 -27.5z" />
    <glyph glyph-name="Jcircumflex" unicode="&#x134;" horiz-adv-x="572" 
d="M260 -10q-63 0 -113 35t-76 92q-5 9 -5 16q0 13 10 20.5t20 7.5t16.5 -5t11.5 -12q19 -42 55 -68t81 -26q46 0 81 19.5t54.5 54.5t19.5 80v466q0 12 9.5 21t22.5 9q14 0 22.5 -9t8.5 -21v-466q0 -62 -28 -110.5t-77 -76t-113 -27.5zM455 843l-88 -69q-8 -5 -14.5 -9
t-12.5 -4q-7 0 -12 5t-5 10t2 8.5t6 8.5l77 82q7 8 14.5 12.5t18.5 4.5h11q11 0 18.5 -4.5t15.5 -12.5l76 -81q5 -5 6.5 -9t1.5 -8q0 -5 -4.5 -10t-11.5 -5q-6 0 -12.5 3.5t-14.5 9.5l-90 65z" />
    <glyph glyph-name="K" unicode="K" horiz-adv-x="675" 
d="M594 -4q-13 0 -22 11l-284 357l47 47l286 -362q7 -10 7 -21q0 -16 -11.5 -24t-22.5 -8zM583 698q12 0 20.5 -9t8.5 -20q0 -12 -9 -21l-454 -425l-8 68l420 397q10 10 22 10zM125 0q-14 0 -22.5 9t-8.5 22v638q0 13 9 22t23 9q13 0 22 -9t9 -22v-638q-1 -13 -10 -22
t-22 -9z" />
    <glyph glyph-name="uni0136" unicode="&#x136;" horiz-adv-x="675" 
d="M594 -4q-13 0 -22 11l-284 357l47 47l286 -362q7 -10 7 -21q0 -16 -11.5 -24t-22.5 -8zM583 698q12 0 20.5 -9t8.5 -20q0 -12 -9 -21l-454 -425l-8 68l420 397q10 10 22 10zM125 0q-14 0 -22.5 9t-8.5 22v638q0 13 9 22t23 9q13 0 22 -9t9 -22v-638q-1 -13 -10 -22
t-22 -9zM367 -107q0 -20 -11 -37.5t-28.5 -28t-37.5 -10.5q-19 0 -27 6t-8 14q0 9 4.5 14t10.5 5q5 0 11.5 -2.5t17.5 -0.5q9 1 14 9t5 23q0 12 -10 12q-6 0 -9.5 -4t-12.5 -4q-12 -1 -19 8t-7 19q0 17 14 27t38 10q23 0 39 -15t16 -45z" />
    <glyph glyph-name="L" unicode="L" horiz-adv-x="532" 
d="M481 59q12 0 21 -8.5t9 -20.5q0 -13 -9 -21.5t-21 -8.5h-357q-13 0 -21.5 9t-8.5 21v640q0 12 9 21t23 9q12 0 21.5 -9t9.5 -21v-628l-19 17h343z" />
    <glyph glyph-name="uni01C7" unicode="&#x1c7;" horiz-adv-x="1104" 
d="M481 59q12 0 21 -8.5t9 -20.5q0 -13 -9 -21.5t-21 -8.5h-357q-13 0 -21.5 9t-8.5 21v640q0 12 9 21t23 9q12 0 21.5 -9t9.5 -21v-628l-19 17h343zM792 -10q-63 0 -113 35t-76 92q-5 9 -5 16q0 13 10 20.5t20 7.5t16.5 -5t11.5 -12q19 -42 55 -68t81 -26q46 0 81 19.5
t54.5 54.5t19.5 80v466q0 12 9.5 21t22.5 9q14 0 22.5 -9t8.5 -21v-466q0 -62 -28 -110.5t-77 -76t-113 -27.5z" />
    <glyph glyph-name="Lacute" unicode="&#x139;" horiz-adv-x="532" 
d="M481 59q12 0 21 -8.5t9 -20.5q0 -13 -9 -21.5t-21 -8.5h-357q-13 0 -21.5 9t-8.5 21v640q0 12 9 21t23 9q12 0 21.5 -9t9.5 -21v-628l-19 17h343zM119 746q-10 0 -14.5 5.5t-4.5 12.5q0 5 2.5 9.5t7.5 8.5l89 69q6 4 13 7.5t16 3.5q13 0 21.5 -8.5t8.5 -21.5
q0 -10 -5 -18t-14 -13l-98 -49q-5 -2 -10.5 -4t-11.5 -2z" />
    <glyph glyph-name="Lcaron" unicode="&#x13d;" horiz-adv-x="533" 
d="M481 60q12 0 21 -9t9 -21q0 -13 -9 -21.5t-21 -8.5h-357q-13 0 -21.5 9t-8.5 21v640q0 12 9 21t21 9q13 0 21.5 -9t8.5 -21v-604q0 -6 6 -6h321zM511 636q0 -22 -8.5 -43.5t-22.5 -39.5t-30 -28t-33 -10q-10 0 -17.5 5t-7.5 17q0 16 11.5 18.5t24.5 8.5q14 8 21.5 21.5
t7.5 28.5q0 11 -6 18t-17 7q-6 0 -13.5 -2.5t-12.5 -6.5q-6 5 -9.5 11.5t-2.5 15.5q0 11 9 20.5t22 15t25 5.5q26 0 42.5 -16t16.5 -46z" />
    <glyph glyph-name="uni013B" unicode="&#x13b;" horiz-adv-x="532" 
d="M481 59q12 0 21 -8.5t9 -20.5q0 -13 -9 -21.5t-21 -8.5h-357q-13 0 -21.5 9t-8.5 21v640q0 12 9 21t23 9q12 0 21.5 -9t9.5 -21v-628l-19 17h343zM344 -107q0 -20 -11 -37.5t-28.5 -28t-37.5 -10.5q-19 0 -27 6t-8 14q0 9 4.5 14t10.5 5q5 0 11.5 -2.5t17.5 -0.5
q9 1 14 9t5 23q0 12 -10 12q-6 0 -9.5 -4t-12.5 -4q-12 -1 -19 8t-7 19q0 17 14 27t38 10q23 0 39 -15t16 -45z" />
    <glyph glyph-name="Ldot" unicode="&#x13f;" horiz-adv-x="538" 
d="M481 59q12 0 21 -8.5t9 -20.5q0 -13 -9 -21.5t-21 -8.5h-357q-13 0 -21.5 9t-8.5 21v640q0 12 9 21t23 9q12 0 21.5 -9t9.5 -21v-628l-19 17h343zM451 274q-17 0 -27.5 10.5t-10.5 27.5v22q0 17 10.5 27.5t27.5 10.5h7q17 0 27.5 -10.5t10.5 -27.5v-22q0 -17 -10.5 -27.5
t-27.5 -10.5h-7z" />
    <glyph glyph-name="uni1E36" unicode="&#x1e36;" horiz-adv-x="532" 
d="M481 59q12 0 21 -8.5t9 -20.5q0 -13 -9 -21.5t-21 -8.5h-357q-13 0 -21.5 9t-8.5 21v640q0 12 9 21t23 9q12 0 21.5 -9t9.5 -21v-628l-19 17h343zM285 -139q-21 0 -31.5 10t-10.5 29v11q0 19 11.5 29t30.5 10q20 0 30.5 -10t10.5 -29v-11q0 -19 -10.5 -29t-30.5 -10z" />
    <glyph glyph-name="uni01C8" unicode="&#x1c8;" horiz-adv-x="802" 
d="M481 59q12 0 21 -8.5t9 -20.5q0 -13 -9 -21.5t-21 -8.5h-357q-13 0 -21.5 9t-8.5 21v640q0 12 9 21t23 9q12 0 21.5 -9t9.5 -21v-628l-19 17h343zM684 -46q0 -48 -22.5 -81.5t-55.5 -51.5t-66 -18q-13 0 -20.5 8t-7.5 19v4q0 12 8 19t18 9q23 5 42.5 17t31.5 33t12 51
v516q0 12 8.5 21t21.5 9t21.5 -9t8.5 -21v-525zM654 588q-21 0 -31.5 9.5t-10.5 27.5v10q0 18 11.5 27.5t31.5 9.5q19 0 29.5 -9.5t10.5 -27.5v-10q0 -18 -10.5 -27.5t-30.5 -9.5z" />
    <glyph glyph-name="uni1E3A" unicode="&#x1e3a;" horiz-adv-x="532" 
d="M481 59q12 0 21 -8.5t9 -20.5q0 -13 -9 -21.5t-21 -8.5h-357q-13 0 -21.5 9t-8.5 21v640q0 12 9 21t23 9q12 0 21.5 -9t9.5 -21v-628l-19 17h343zM186 -126q-28 0 -28 25t28 25h210q28 0 28 -25t-28 -25h-210z" />
    <glyph glyph-name="Lslash" unicode="&#x141;" horiz-adv-x="579" 
d="M73 329q-14 0 -20.5 8.5t-6.5 18.5q0 17 17 25l224 99q7 3 14 3q14 0 20 -10t6 -18q0 -17 -18 -25l-224 -99q-2 -1 -6 -1.5t-6 -0.5zM201 51l-7 9h334q12 0 21 -9t9 -21q0 -13 -9 -21.5t-21 -8.5h-357q-13 0 -21.5 9t-8.5 21v640q0 12 9 21t21 9q13 0 21.5 -9t8.5 -21
v-619z" />
    <glyph glyph-name="M" unicode="M" horiz-adv-x="827" 
d="M124 700q7 0 14.5 -3t12.5 -10l276 -414l-27 1l277 413q11 15 27 13q12 0 20.5 -8.5t8.5 -21.5v-640q0 -12 -9 -21t-22 -9q-14 0 -23 9t-9 21v579l18 -2l-253 -383q-3 -6 -9 -9.5t-14 -2.5q-7 -1 -13.5 2.5t-10.5 9.5l-254 387l19 13v-594q0 -12 -8.5 -21t-21.5 -9t-21 9
t-8 21v640q0 12 8.5 21t21.5 9z" />
    <glyph glyph-name="uni1E42" unicode="&#x1e42;" horiz-adv-x="827" 
d="M124 700q7 0 14.5 -3t12.5 -10l276 -414l-27 1l277 413q11 15 27 13q12 0 20.5 -8.5t8.5 -21.5v-640q0 -12 -9 -21t-22 -9q-14 0 -23 9t-9 21v579l18 -2l-253 -383q-3 -6 -9 -9.5t-14 -2.5q-7 -1 -13.5 2.5t-10.5 9.5l-254 387l19 13v-594q0 -12 -8.5 -21t-21.5 -9t-21 9
t-8 21v640q0 12 8.5 21t21.5 9zM414 -139q-21 0 -31.5 10t-10.5 29v11q0 19 11.5 29t30.5 10q20 0 30.5 -10t10.5 -29v-11q0 -19 -10.5 -29t-30.5 -10z" />
    <glyph glyph-name="N" unicode="N" horiz-adv-x="728" 
d="M606 700q13 0 20.5 -8t7.5 -20v-640q0 -15 -9.5 -23.5t-21.5 -8.5q-6 0 -13 2.5t-11 7.5l-446 601l17 9v-593q0 -11 -8 -19t-20 -8q-13 0 -20.5 8t-7.5 19v643q0 15 9 22.5t20 7.5q6 0 13 -2.5t11 -8.5l441 -594l-10 -18v595q0 12 8.5 20t19.5 8z" />
    <glyph glyph-name="uni01CA" unicode="&#x1ca;" horiz-adv-x="1299" 
d="M606 700q13 0 20.5 -8t7.5 -20v-640q0 -15 -9.5 -23.5t-21.5 -8.5q-6 0 -13 2.5t-11 7.5l-446 601l17 9v-593q0 -11 -8 -19t-20 -8q-13 0 -20.5 8t-7.5 19v643q0 15 9 22.5t20 7.5q6 0 13 -2.5t11 -8.5l441 -594l-10 -18v595q0 12 8.5 20t19.5 8zM988 -10q-63 0 -113 35
t-76 92q-5 9 -5 16q0 13 10 20.5t20 7.5t16.5 -5t11.5 -12q19 -42 55 -68t81 -26q46 0 81 19.5t54.5 54.5t19.5 80v466q0 12 9.5 21t22.5 9q14 0 22.5 -9t8.5 -21v-466q0 -62 -28 -110.5t-77 -76t-113 -27.5z" />
    <glyph glyph-name="Nacute" unicode="&#x143;" horiz-adv-x="728" 
d="M606 700q13 0 20.5 -8t7.5 -20v-640q0 -15 -9.5 -23.5t-21.5 -8.5q-6 0 -13 2.5t-11 7.5l-446 601l17 9v-593q0 -11 -8 -19t-20 -8q-13 0 -20.5 8t-7.5 19v643q0 15 9 22.5t20 7.5q6 0 13 -2.5t11 -8.5l441 -594l-10 -18v595q0 12 8.5 20t19.5 8zM367 746
q-10 0 -14.5 5.5t-4.5 12.5q0 5 2.5 9.5t7.5 8.5l89 69q6 4 13 7.5t16 3.5q13 0 21.5 -8.5t8.5 -21.5q0 -10 -5 -18t-14 -13l-98 -49q-5 -2 -10.5 -4t-11.5 -2z" />
    <glyph glyph-name="Ncaron" unicode="&#x147;" horiz-adv-x="728" 
d="M606 700q13 0 20.5 -8t7.5 -20v-640q0 -15 -9.5 -23.5t-21.5 -8.5q-6 0 -13 2.5t-11 7.5l-446 601l17 9v-593q0 -11 -8 -19t-20 -8q-13 0 -20.5 8t-7.5 19v643q0 15 9 22.5t20 7.5q6 0 13 -2.5t11 -8.5l441 -594l-10 -18v595q0 12 8.5 20t19.5 8zM356 802l88 70
q8 7 15 10t12 3q8 0 12.5 -4.5t4.5 -10.5q0 -4 -2 -8t-6 -9l-77 -82q-6 -9 -14 -13t-19 -4h-11q-11 0 -19 4t-15 13l-76 81q-5 5 -6.5 9t-1.5 8q0 6 4.5 10.5t11.5 4.5q11 0 27 -12l90 -67z" />
    <glyph glyph-name="uni0145" unicode="&#x145;" horiz-adv-x="728" 
d="M606 700q13 0 20.5 -8t7.5 -20v-640q0 -15 -9.5 -23.5t-21.5 -8.5q-6 0 -13 2.5t-11 7.5l-446 601l17 9v-593q0 -11 -8 -19t-20 -8q-13 0 -20.5 8t-7.5 19v643q0 15 9 22.5t20 7.5q6 0 13 -2.5t11 -8.5l441 -594l-10 -18v595q0 12 8.5 20t19.5 8zM424 -107
q0 -20 -11 -37.5t-28.5 -28t-37.5 -10.5q-19 0 -27 6t-8 14q0 9 4.5 14t10.5 5q5 0 11.5 -2.5t17.5 -0.5q9 1 14 9t5 23q0 12 -10 12q-6 0 -9.5 -4t-12.5 -4q-12 -1 -19 8t-7 19q0 17 14 27t38 10q23 0 39 -15t16 -45z" />
    <glyph glyph-name="uni1E44" unicode="&#x1e44;" horiz-adv-x="728" 
d="M606 700q13 0 20.5 -8t7.5 -20v-640q0 -15 -9.5 -23.5t-21.5 -8.5q-6 0 -13 2.5t-11 7.5l-446 601l17 9v-593q0 -11 -8 -19t-20 -8q-13 0 -20.5 8t-7.5 19v643q0 15 9 22.5t20 7.5q6 0 13 -2.5t11 -8.5l441 -594l-10 -18v595q0 12 8.5 20t19.5 8zM364 770
q-21 0 -31.5 10.5t-10.5 29.5v10q0 20 11.5 30t31.5 10q19 0 29.5 -10t10.5 -30v-10q0 -20 -10.5 -30t-30.5 -10z" />
    <glyph glyph-name="uni1E46" unicode="&#x1e46;" horiz-adv-x="728" 
d="M606 700q13 0 20.5 -8t7.5 -20v-640q0 -15 -9.5 -23.5t-21.5 -8.5q-6 0 -13 2.5t-11 7.5l-446 601l17 9v-593q0 -11 -8 -19t-20 -8q-13 0 -20.5 8t-7.5 19v643q0 15 9 22.5t20 7.5q6 0 13 -2.5t11 -8.5l441 -594l-10 -18v595q0 12 8.5 20t19.5 8zM364 -139
q-21 0 -31.5 10t-10.5 29v11q0 19 11.5 29t30.5 10q20 0 30.5 -10t10.5 -29v-11q0 -19 -10.5 -29t-30.5 -10z" />
    <glyph glyph-name="Eng" unicode="&#x14a;" horiz-adv-x="748" 
d="M478 -200q-14 0 -23 7.5t-9 20.5t8.5 21t21.5 9q49 0 74 13t34.5 36.5t9.5 54.5l1 79l6 -31l-452 582l5 2v-564q0 -12 -9 -21t-21 -9q-13 0 -21.5 9t-8.5 21v640q0 14 9 22t22 8q7 0 14 -4t10 -9l454 -585l-9 -8v573q0 12 9 21t21 9q13 0 21.5 -9t8.5 -21v-623v-80
q0 -47 -17.5 -84.5t-55.5 -58.5t-103 -21z" />
    <glyph glyph-name="uni019D" unicode="&#x19d;" horiz-adv-x="728" 
d="M11 -198q-14 0 -22.5 8t-8.5 20q0 15 7.5 22.5t19.5 9.5q22 5 42 17t32.5 33t12.5 51v707q0 15 9 22.5t20 7.5q6 0 13 -2.5t11 -8.5l441 -594l-11 -18v595q0 12 8.5 20t20.5 8t20 -8t8 -20v-640q0 -15 -9.5 -23.5t-21.5 -8.5q-6 0 -13 2.5t-11 7.5l-446 601l18 9v-666
q0 -33 -10 -57.5t-25 -41.5t-34 -28t-37.5 -16.5t-33.5 -8.5z" />
    <glyph glyph-name="uni01CB" unicode="&#x1cb;" horiz-adv-x="997" 
d="M606 700q13 0 20.5 -8t7.5 -20v-640q0 -15 -9.5 -23.5t-21.5 -8.5q-6 0 -13 2.5t-11 7.5l-446 601l17 9v-593q0 -11 -8 -19t-20 -8q-13 0 -20.5 8t-7.5 19v643q0 15 9 22.5t20 7.5q6 0 13 -2.5t11 -8.5l441 -594l-10 -18v595q0 12 8.5 20t19.5 8zM880 -46
q0 -48 -22.5 -81.5t-55.5 -51.5t-66 -18q-13 0 -20.5 8t-7.5 19v4q0 12 8 19t18 9q23 5 42.5 17t31.5 33t12 51v516q0 12 8.5 21t21.5 9t21.5 -9t8.5 -21v-525zM850 588q-21 0 -31.5 9.5t-10.5 27.5v10q0 18 11.5 27.5t31.5 9.5q19 0 29.5 -9.5t10.5 -27.5v-10
q0 -18 -10.5 -27.5t-30.5 -9.5z" />
    <glyph glyph-name="uni1E48" unicode="&#x1e48;" horiz-adv-x="728" 
d="M606 700q13 0 20.5 -8t7.5 -20v-640q0 -15 -9.5 -23.5t-21.5 -8.5q-6 0 -13 2.5t-11 7.5l-446 601l17 9v-593q0 -11 -8 -19t-20 -8q-13 0 -20.5 8t-7.5 19v643q0 15 9 22.5t20 7.5q6 0 13 -2.5t11 -8.5l441 -594l-10 -18v595q0 12 8.5 20t19.5 8zM266 -126q-28 0 -28 25
t28 25h210q28 0 28 -25t-28 -25h-210z" />
    <glyph glyph-name="Ntilde" unicode="&#xd1;" horiz-adv-x="728" 
d="M606 700q13 0 20.5 -8t7.5 -20v-640q0 -15 -9.5 -23.5t-21.5 -8.5q-6 0 -13 2.5t-11 7.5l-446 601l17 9v-593q0 -11 -8 -19t-20 -8q-13 0 -20.5 8t-7.5 19v643q0 15 9 22.5t20 7.5q6 0 13 -2.5t11 -8.5l441 -594l-10 -18v595q0 12 8.5 20t19.5 8zM235 771
q-13 0 -19.5 11.5t-3.5 32.5q7 32 31.5 49.5t55.5 17.5q25 0 50 -14.5t48.5 -29t40.5 -14.5q14 0 22.5 11t10.5 28q-1 12 5.5 19t16.5 7q15 0 21 -12t3 -31q-3 -22 -14.5 -38t-28 -24.5t-38.5 -8.5q-24 0 -49.5 14.5t-49.5 28.5t-41 14q-14 0 -24 -9.5t-15 -29.5
q1 -10 -6.5 -16t-15.5 -6z" />
    <glyph glyph-name="O" unicode="O" horiz-adv-x="766" 
d="M718 350q0 -79 -24.5 -144.5t-69.5 -114t-106.5 -75t-134.5 -26.5t-134.5 26.5t-106.5 75t-69.5 114t-24.5 144.5t24.5 144.5t69.5 114t106.5 75t134.5 26.5t134.5 -26.5t106.5 -75t69.5 -114t24.5 -144.5zM654 350q0 89 -34.5 156.5t-95.5 105.5t-141 38
q-79 0 -140.5 -38t-96 -105.5t-34.5 -156.5t34.5 -156.5t96 -105.5t140.5 -38q80 0 141 38t95.5 105.5t34.5 156.5z" />
    <glyph glyph-name="Oacute" unicode="&#xd3;" horiz-adv-x="766" 
d="M718 350q0 -79 -24.5 -144.5t-69.5 -114t-106.5 -75t-134.5 -26.5t-134.5 26.5t-106.5 75t-69.5 114t-24.5 144.5t24.5 144.5t69.5 114t106.5 75t134.5 26.5t134.5 -26.5t106.5 -75t69.5 -114t24.5 -144.5zM654 350q0 89 -34.5 156.5t-95.5 105.5t-141 38
q-79 0 -140.5 -38t-96 -105.5t-34.5 -156.5t34.5 -156.5t96 -105.5t140.5 -38q80 0 141 38t95.5 105.5t34.5 156.5zM386 746q-10 0 -14.5 5.5t-4.5 12.5q0 5 2.5 9.5t7.5 8.5l89 69q6 4 13 7.5t16 3.5q13 0 21.5 -8.5t8.5 -21.5q0 -10 -5 -18t-14 -13l-98 -49
q-5 -2 -10.5 -4t-11.5 -2z" />
    <glyph glyph-name="Obreve" unicode="&#x14e;" horiz-adv-x="766" 
d="M718 350q0 -79 -24.5 -144.5t-69.5 -114t-106.5 -75t-134.5 -26.5t-134.5 26.5t-106.5 75t-69.5 114t-24.5 144.5t24.5 144.5t69.5 114t106.5 75t134.5 26.5t134.5 -26.5t106.5 -75t69.5 -114t24.5 -144.5zM654 350q0 89 -34.5 156.5t-95.5 105.5t-141 38
q-79 0 -140.5 -38t-96 -105.5t-34.5 -156.5t34.5 -156.5t96 -105.5t140.5 -38q80 0 141 38t95.5 105.5t34.5 156.5zM383 774q-51 0 -87 26.5t-50 74.5q-4 14 1 22t18 8q12 0 17.5 -5.5t12.5 -16.5q13 -28 34.5 -43t53.5 -15q62 0 88 58q6 11 12.5 16t17.5 5q13 0 18 -7
t1 -22q-13 -48 -49 -74.5t-88 -26.5z" />
    <glyph glyph-name="uni01D1" unicode="&#x1d1;" horiz-adv-x="766" 
d="M718 350q0 -79 -24.5 -144.5t-69.5 -114t-106.5 -75t-134.5 -26.5t-134.5 26.5t-106.5 75t-69.5 114t-24.5 144.5t24.5 144.5t69.5 114t106.5 75t134.5 26.5t134.5 -26.5t106.5 -75t69.5 -114t24.5 -144.5zM654 350q0 89 -34.5 156.5t-95.5 105.5t-141 38
q-79 0 -140.5 -38t-96 -105.5t-34.5 -156.5t34.5 -156.5t96 -105.5t140.5 -38q80 0 141 38t95.5 105.5t34.5 156.5zM374 802l88 70q8 7 15 10t12 3q8 0 12.5 -4.5t4.5 -10.5q0 -4 -2 -8t-6 -9l-77 -82q-6 -9 -14 -13t-19 -4h-11q-11 0 -19 4t-15 13l-76 81q-5 5 -6.5 9
t-1.5 8q0 6 4.5 10.5t11.5 4.5q11 0 27 -12l90 -67z" />
    <glyph glyph-name="Ocircumflex" unicode="&#xd4;" horiz-adv-x="766" 
d="M718 350q0 -79 -24.5 -144.5t-69.5 -114t-106.5 -75t-134.5 -26.5t-134.5 26.5t-106.5 75t-69.5 114t-24.5 144.5t24.5 144.5t69.5 114t106.5 75t134.5 26.5t134.5 -26.5t106.5 -75t69.5 -114t24.5 -144.5zM654 350q0 89 -34.5 156.5t-95.5 105.5t-141 38
q-79 0 -140.5 -38t-96 -105.5t-34.5 -156.5t34.5 -156.5t96 -105.5t140.5 -38q80 0 141 38t95.5 105.5t34.5 156.5zM391 843l-88 -69q-8 -5 -14.5 -9t-12.5 -4q-7 0 -12 5t-5 10t2 8.5t6 8.5l77 82q7 8 14.5 12.5t18.5 4.5h11q11 0 18.5 -4.5t15.5 -12.5l76 -81q5 -5 6.5 -9
t1.5 -8q0 -5 -4.5 -10t-11.5 -5q-6 0 -12.5 3.5t-14.5 9.5l-90 65z" />
    <glyph glyph-name="uni1ED0" unicode="&#x1ed0;" horiz-adv-x="766" 
d="M718 350q0 -79 -24.5 -144.5t-69.5 -114t-106.5 -75t-134.5 -26.5t-134.5 26.5t-106.5 75t-69.5 114t-24.5 144.5t24.5 144.5t69.5 114t106.5 75t134.5 26.5t134.5 -26.5t106.5 -75t69.5 -114t24.5 -144.5zM654 350q0 89 -34.5 156.5t-95.5 105.5t-141 38
q-79 0 -140.5 -38t-96 -105.5t-34.5 -156.5t34.5 -156.5t96 -105.5t140.5 -38q80 0 141 38t95.5 105.5t34.5 156.5zM391 843l-88 -69q-8 -5 -14.5 -9t-12.5 -4q-7 0 -12 5t-5 10t2 8.5t6 8.5l77 82q7 8 14.5 12.5t18.5 4.5h11q11 0 18.5 -4.5t15.5 -12.5l76 -81q5 -5 6.5 -9
t1.5 -8q0 -5 -4.5 -10t-11.5 -5q-6 0 -12.5 3.5t-14.5 9.5l-90 65zM521 825q-10 0 -14.5 5.5t-4.5 12.5q0 5 2.5 9.5t7.5 8.5l89 69q6 4 13 7.5t16 3.5q13 0 21.5 -8.5t8.5 -21.5q0 -10 -5 -18t-14 -13l-98 -49q-5 -2 -10.5 -4t-11.5 -2z" />
    <glyph glyph-name="uni1ED8" unicode="&#x1ed8;" horiz-adv-x="766" 
d="M718 350q0 -79 -24.5 -144.5t-69.5 -114t-106.5 -75t-134.5 -26.5t-134.5 26.5t-106.5 75t-69.5 114t-24.5 144.5t24.5 144.5t69.5 114t106.5 75t134.5 26.5t134.5 -26.5t106.5 -75t69.5 -114t24.5 -144.5zM654 350q0 89 -34.5 156.5t-95.5 105.5t-141 38
q-79 0 -140.5 -38t-96 -105.5t-34.5 -156.5t34.5 -156.5t96 -105.5t140.5 -38q80 0 141 38t95.5 105.5t34.5 156.5zM383 -139q-21 0 -31.5 10t-10.5 29v11q0 19 11.5 29t30.5 10q20 0 30.5 -10t10.5 -29v-11q0 -19 -10.5 -29t-30.5 -10zM391 843l-88 -69q-8 -5 -14.5 -9
t-12.5 -4q-7 0 -12 5t-5 10t2 8.5t6 8.5l77 82q7 8 14.5 12.5t18.5 4.5h11q11 0 18.5 -4.5t15.5 -12.5l76 -81q5 -5 6.5 -9t1.5 -8q0 -5 -4.5 -10t-11.5 -5q-6 0 -12.5 3.5t-14.5 9.5l-90 65z" />
    <glyph glyph-name="uni1ED2" unicode="&#x1ed2;" horiz-adv-x="766" 
d="M718 350q0 -79 -24.5 -144.5t-69.5 -114t-106.5 -75t-134.5 -26.5t-134.5 26.5t-106.5 75t-69.5 114t-24.5 144.5t24.5 144.5t69.5 114t106.5 75t134.5 26.5t134.5 -26.5t106.5 -75t69.5 -114t24.5 -144.5zM654 350q0 89 -34.5 156.5t-95.5 105.5t-141 38
q-79 0 -140.5 -38t-96 -105.5t-34.5 -156.5t34.5 -156.5t96 -105.5t140.5 -38q80 0 141 38t95.5 105.5t34.5 156.5zM391 843l-88 -69q-8 -5 -14.5 -9t-12.5 -4q-7 0 -12 5t-5 10t2 8.5t6 8.5l77 82q7 8 14.5 12.5t18.5 4.5h11q11 0 18.5 -4.5t15.5 -12.5l76 -81q5 -5 6.5 -9
t1.5 -8q0 -5 -4.5 -10t-11.5 -5q-6 0 -12.5 3.5t-14.5 9.5l-90 65zM510 879q-6 0 -11 2t-11 4l-97 49q-20 11 -20 31q0 13 8.5 21.5t21.5 8.5q9 0 16.5 -3.5t12.5 -7.5l89 -69q5 -4 7.5 -8.5t2.5 -9.5q0 -7 -4.5 -12.5t-14.5 -5.5z" />
    <glyph glyph-name="uni1ED4" unicode="&#x1ed4;" horiz-adv-x="766" 
d="M718 350q0 -79 -24.5 -144.5t-69.5 -114t-106.5 -75t-134.5 -26.5t-134.5 26.5t-106.5 75t-69.5 114t-24.5 144.5t24.5 144.5t69.5 114t106.5 75t134.5 26.5t134.5 -26.5t106.5 -75t69.5 -114t24.5 -144.5zM654 350q0 89 -34.5 156.5t-95.5 105.5t-141 38
q-79 0 -140.5 -38t-96 -105.5t-34.5 -156.5t34.5 -156.5t96 -105.5t140.5 -38q80 0 141 38t95.5 105.5t34.5 156.5zM390 857l-87 -73q-7 -6 -12.5 -10t-13.5 -4q-7 0 -12 5t-5 11q0 4 1.5 8t6.5 8l73 80q11 17 33 17h16q11 0 18.5 -3.5t13.5 -13.5l72 -79q4 -5 5.5 -8.5
t1.5 -8.5t-4.5 -10t-11.5 -5q-8 0 -14 4t-13 10l-89 71zM444 976q15 13 33.5 22t41.5 9q31 0 48.5 -12t25 -29.5t7.5 -32.5q0 -17 -9 -30.5t-24 -29.5q-6 -6 -9 -12t-4 -15q-1 -8 -7 -13t-14 -5q-10 0 -15.5 6t-5.5 13q0 9 2.5 19.5t12.5 20.5q12 13 20.5 23t8.5 22
q0 13 -11 21.5t-26 8.5q-13 0 -24.5 -5.5t-20.5 -12.5q-8 -7 -17 -7.5t-17 7.5q-6 7 -5 15.5t9 16.5z" />
    <glyph glyph-name="uni1ED6" unicode="&#x1ed6;" horiz-adv-x="766" 
d="M718 350q0 -79 -24.5 -144.5t-69.5 -114t-106.5 -75t-134.5 -26.5t-134.5 26.5t-106.5 75t-69.5 114t-24.5 144.5t24.5 144.5t69.5 114t106.5 75t134.5 26.5t134.5 -26.5t106.5 -75t69.5 -114t24.5 -144.5zM654 350q0 89 -34.5 156.5t-95.5 105.5t-141 38
q-79 0 -140.5 -38t-96 -105.5t-34.5 -156.5t34.5 -156.5t96 -105.5t140.5 -38q80 0 141 38t95.5 105.5t34.5 156.5zM391 843l-88 -69q-8 -5 -14.5 -9t-12.5 -4q-7 0 -12 5t-5 10t2 8.5t6 8.5l77 82q7 8 14.5 12.5t18.5 4.5h11q11 0 18.5 -4.5t15.5 -12.5l76 -81q5 -5 6.5 -9
t1.5 -8q0 -5 -4.5 -10t-11.5 -5q-6 0 -12.5 3.5t-14.5 9.5l-90 65zM256 897q-13 0 -19.5 11.5t-3.5 32.5q7 32 31.5 49.5t55.5 17.5q25 0 50 -14.5t48.5 -29t40.5 -14.5q14 0 22.5 11t10.5 28q-1 12 5.5 19t16.5 7q15 0 21 -12t3 -31q-3 -22 -14.5 -38t-28 -24.5t-38.5 -8.5
q-24 0 -49.5 14.5t-49.5 28.5t-41 14q-14 0 -24 -9.5t-15 -29.5q1 -10 -6.5 -16t-15.5 -6z" />
    <glyph glyph-name="uni020C" unicode="&#x20c;" horiz-adv-x="766" 
d="M718 350q0 -79 -24.5 -144.5t-69.5 -114t-106.5 -75t-134.5 -26.5t-134.5 26.5t-106.5 75t-69.5 114t-24.5 144.5t24.5 144.5t69.5 114t106.5 75t134.5 26.5t134.5 -26.5t106.5 -75t69.5 -114t24.5 -144.5zM654 350q0 89 -34.5 156.5t-95.5 105.5t-141 38
q-79 0 -140.5 -38t-96 -105.5t-34.5 -156.5t34.5 -156.5t96 -105.5t140.5 -38q80 0 141 38t95.5 105.5t34.5 156.5zM334 755q-6 0 -11 2.5t-11 4.5l-97 48q-20 11 -20 32q0 12 8.5 21t21.5 9q9 0 16.5 -3.5t12.5 -8.5l89 -69q5 -4 7.5 -8t2.5 -10q0 -7 -4.5 -12.5
t-14.5 -5.5zM502 755q-6 0 -11.5 2t-10.5 4l-98 49q-19 11 -19 31q0 13 8.5 21.5t21.5 8.5q9 0 16 -3.5t13 -7.5l89 -69q5 -4 7.5 -8.5t2.5 -9.5q0 -7 -4.5 -12.5t-14.5 -5.5z" />
    <glyph glyph-name="Odieresis" unicode="&#xd6;" horiz-adv-x="766" 
d="M718 350q0 -79 -24.5 -144.5t-69.5 -114t-106.5 -75t-134.5 -26.5t-134.5 26.5t-106.5 75t-69.5 114t-24.5 144.5t24.5 144.5t69.5 114t106.5 75t134.5 26.5t134.5 -26.5t106.5 -75t69.5 -114t24.5 -144.5zM654 350q0 89 -34.5 156.5t-95.5 105.5t-141 38
q-79 0 -140.5 -38t-96 -105.5t-34.5 -156.5t34.5 -156.5t96 -105.5t140.5 -38q80 0 141 38t95.5 105.5t34.5 156.5zM469 775q-19 0 -30 10.5t-11 29.5v10q0 19 11.5 29.5t30.5 10.5t30 -10.5t11 -29.5v-10q0 -20 -11 -30t-31 -10zM297 775q-19 0 -30 10.5t-11 29.5v10
q0 19 11.5 29.5t30.5 10.5t30 -10.5t11 -29.5v-10q0 -20 -11 -30t-31 -10z" />
    <glyph glyph-name="uni022A" unicode="&#x22a;" horiz-adv-x="766" 
d="M718 350q0 -79 -24.5 -144.5t-69.5 -114t-106.5 -75t-134.5 -26.5t-134.5 26.5t-106.5 75t-69.5 114t-24.5 144.5t24.5 144.5t69.5 114t106.5 75t134.5 26.5t134.5 -26.5t106.5 -75t69.5 -114t24.5 -144.5zM654 350q0 89 -34.5 156.5t-95.5 105.5t-141 38
q-79 0 -140.5 -38t-96 -105.5t-34.5 -156.5t34.5 -156.5t96 -105.5t140.5 -38q80 0 141 38t95.5 105.5t34.5 156.5zM469 775q-19 0 -30 10.5t-11 29.5v10q0 19 11.5 29.5t30.5 10.5t30 -10.5t11 -29.5v-10q0 -20 -11 -30t-31 -10zM297 775q-19 0 -30 10.5t-11 29.5v10
q0 19 11.5 29.5t30.5 10.5t30 -10.5t11 -29.5v-10q0 -20 -11 -30t-31 -10zM259 957q-29 0 -29 25q0 26 29 26h255q29 0 29 -26q0 -25 -29 -25h-255z" />
    <glyph glyph-name="uni0230" unicode="&#x230;" horiz-adv-x="766" 
d="M718 350q0 -79 -24.5 -144.5t-69.5 -114t-106.5 -75t-134.5 -26.5t-134.5 26.5t-106.5 75t-69.5 114t-24.5 144.5t24.5 144.5t69.5 114t106.5 75t134.5 26.5t134.5 -26.5t106.5 -75t69.5 -114t24.5 -144.5zM654 350q0 89 -34.5 156.5t-95.5 105.5t-141 38
q-79 0 -140.5 -38t-96 -105.5t-34.5 -156.5t34.5 -156.5t96 -105.5t140.5 -38q80 0 141 38t95.5 105.5t34.5 156.5zM383 770q-21 0 -31.5 10.5t-10.5 29.5v10q0 20 11.5 30t31.5 10q19 0 29.5 -10t10.5 -30v-10q0 -20 -10.5 -30t-30.5 -10zM259 958q-29 0 -29 25q0 26 29 26
h255q29 0 29 -26q0 -25 -29 -25h-255z" />
    <glyph glyph-name="uni1ECC" unicode="&#x1ecc;" horiz-adv-x="766" 
d="M718 350q0 -79 -24.5 -144.5t-69.5 -114t-106.5 -75t-134.5 -26.5t-134.5 26.5t-106.5 75t-69.5 114t-24.5 144.5t24.5 144.5t69.5 114t106.5 75t134.5 26.5t134.5 -26.5t106.5 -75t69.5 -114t24.5 -144.5zM654 350q0 89 -34.5 156.5t-95.5 105.5t-141 38
q-79 0 -140.5 -38t-96 -105.5t-34.5 -156.5t34.5 -156.5t96 -105.5t140.5 -38q80 0 141 38t95.5 105.5t34.5 156.5zM383 -139q-21 0 -31.5 10t-10.5 29v11q0 19 11.5 29t30.5 10q20 0 30.5 -10t10.5 -29v-11q0 -19 -10.5 -29t-30.5 -10z" />
    <glyph glyph-name="Ograve" unicode="&#xd2;" horiz-adv-x="766" 
d="M718 350q0 -79 -24.5 -144.5t-69.5 -114t-106.5 -75t-134.5 -26.5t-134.5 26.5t-106.5 75t-69.5 114t-24.5 144.5t24.5 144.5t69.5 114t106.5 75t134.5 26.5t134.5 -26.5t106.5 -75t69.5 -114t24.5 -144.5zM654 350q0 89 -34.5 156.5t-95.5 105.5t-141 38
q-79 0 -140.5 -38t-96 -105.5t-34.5 -156.5t34.5 -156.5t96 -105.5t140.5 -38q80 0 141 38t95.5 105.5t34.5 156.5zM383 747q-6 0 -11 2t-11 4l-97 49q-20 11 -20 31q0 13 8.5 21.5t21.5 8.5q9 0 16.5 -3.5t12.5 -7.5l89 -69q5 -4 7.5 -8.5t2.5 -9.5q0 -7 -4.5 -12.5
t-14.5 -5.5z" />
    <glyph glyph-name="uni1ECE" unicode="&#x1ece;" horiz-adv-x="766" 
d="M718 350q0 -79 -24.5 -144.5t-69.5 -114t-106.5 -75t-134.5 -26.5t-134.5 26.5t-106.5 75t-69.5 114t-24.5 144.5t24.5 144.5t69.5 114t106.5 75t134.5 26.5t134.5 -26.5t106.5 -75t69.5 -114t24.5 -144.5zM654 350q0 89 -34.5 156.5t-95.5 105.5t-141 38
q-79 0 -140.5 -38t-96 -105.5t-34.5 -156.5t34.5 -156.5t96 -105.5t140.5 -38q80 0 141 38t95.5 105.5t34.5 156.5zM307 903q14 13 33 22t41 9q32 0 49.5 -12t25 -29.5t7.5 -32.5q0 -17 -9 -30.5t-25 -29.5q-5 -6 -8.5 -12t-3.5 -15q-1 -8 -7.5 -12t-15.5 -4q-8 0 -13.5 5
t-5.5 12q0 9 2.5 19.5t11.5 20.5q13 13 21 23t8 22q0 13 -10.5 21.5t-25.5 8.5q-14 0 -25.5 -5.5t-20.5 -12.5q-7 -7 -16 -7.5t-17 7.5q-6 7 -5 15.5t9 16.5z" />
    <glyph glyph-name="Ohorn" unicode="&#x1a0;" horiz-adv-x="766" 
d="M718 350q0 -79 -24.5 -144.5t-69.5 -114t-106.5 -75t-134.5 -26.5t-134.5 26.5t-106.5 75t-69.5 114t-24.5 144.5t24.5 144.5t69.5 114t106.5 75t134.5 26.5t134.5 -26.5t106.5 -75t69.5 -114t24.5 -144.5zM654 350q0 89 -34.5 156.5t-95.5 105.5t-141 38
q-79 0 -140.5 -38t-96 -105.5t-34.5 -156.5t34.5 -156.5t96 -105.5t140.5 -38q80 0 141 38t95.5 105.5t34.5 156.5zM462 646v53q47 0 70.5 17.5t23.5 59.5q0 14 6.5 25t19.5 11q16 0 21 -12t5 -24q0 -39 -17.5 -68.5t-49.5 -45.5t-79 -16z" />
    <glyph glyph-name="uni1EDA" unicode="&#x1eda;" horiz-adv-x="766" 
d="M718 350q0 -79 -24.5 -144.5t-69.5 -114t-106.5 -75t-134.5 -26.5t-134.5 26.5t-106.5 75t-69.5 114t-24.5 144.5t24.5 144.5t69.5 114t106.5 75t134.5 26.5t134.5 -26.5t106.5 -75t69.5 -114t24.5 -144.5zM654 350q0 89 -34.5 156.5t-95.5 105.5t-141 38
q-79 0 -140.5 -38t-96 -105.5t-34.5 -156.5t34.5 -156.5t96 -105.5t140.5 -38q80 0 141 38t95.5 105.5t34.5 156.5zM462 646v53q47 0 70.5 17.5t23.5 59.5q0 14 6.5 25t19.5 11q16 0 21 -12t5 -24q0 -39 -17.5 -68.5t-49.5 -45.5t-79 -16zM386 746q-10 0 -14.5 5.5
t-4.5 12.5q0 5 2.5 9.5t7.5 8.5l89 69q6 4 13 7.5t16 3.5q13 0 21.5 -8.5t8.5 -21.5q0 -10 -5 -18t-14 -13l-98 -49q-5 -2 -10.5 -4t-11.5 -2z" />
    <glyph glyph-name="uni1EE2" unicode="&#x1ee2;" horiz-adv-x="766" 
d="M718 350q0 -79 -24.5 -144.5t-69.5 -114t-106.5 -75t-134.5 -26.5t-134.5 26.5t-106.5 75t-69.5 114t-24.5 144.5t24.5 144.5t69.5 114t106.5 75t134.5 26.5t134.5 -26.5t106.5 -75t69.5 -114t24.5 -144.5zM654 350q0 89 -34.5 156.5t-95.5 105.5t-141 38
q-79 0 -140.5 -38t-96 -105.5t-34.5 -156.5t34.5 -156.5t96 -105.5t140.5 -38q80 0 141 38t95.5 105.5t34.5 156.5zM462 646v53q47 0 70.5 17.5t23.5 59.5q0 14 6.5 25t19.5 11q16 0 21 -12t5 -24q0 -39 -17.5 -68.5t-49.5 -45.5t-79 -16zM383 -139q-21 0 -31.5 10t-10.5 29
v11q0 19 11.5 29t30.5 10q20 0 30.5 -10t10.5 -29v-11q0 -19 -10.5 -29t-30.5 -10z" />
    <glyph glyph-name="uni1EDC" unicode="&#x1edc;" horiz-adv-x="766" 
d="M718 350q0 -79 -24.5 -144.5t-69.5 -114t-106.5 -75t-134.5 -26.5t-134.5 26.5t-106.5 75t-69.5 114t-24.5 144.5t24.5 144.5t69.5 114t106.5 75t134.5 26.5t134.5 -26.5t106.5 -75t69.5 -114t24.5 -144.5zM654 350q0 89 -34.5 156.5t-95.5 105.5t-141 38
q-79 0 -140.5 -38t-96 -105.5t-34.5 -156.5t34.5 -156.5t96 -105.5t140.5 -38q80 0 141 38t95.5 105.5t34.5 156.5zM462 646v53q47 0 70.5 17.5t23.5 59.5q0 14 6.5 25t19.5 11q16 0 21 -12t5 -24q0 -39 -17.5 -68.5t-49.5 -45.5t-79 -16zM383 747q-6 0 -11 2t-11 4l-97 49
q-20 11 -20 31q0 13 8.5 21.5t21.5 8.5q9 0 16.5 -3.5t12.5 -7.5l89 -69q5 -4 7.5 -8.5t2.5 -9.5q0 -7 -4.5 -12.5t-14.5 -5.5z" />
    <glyph glyph-name="uni1EDE" unicode="&#x1ede;" horiz-adv-x="766" 
d="M718 350q0 -79 -24.5 -144.5t-69.5 -114t-106.5 -75t-134.5 -26.5t-134.5 26.5t-106.5 75t-69.5 114t-24.5 144.5t24.5 144.5t69.5 114t106.5 75t134.5 26.5t134.5 -26.5t106.5 -75t69.5 -114t24.5 -144.5zM654 350q0 89 -34.5 156.5t-95.5 105.5t-141 38
q-79 0 -140.5 -38t-96 -105.5t-34.5 -156.5t34.5 -156.5t96 -105.5t140.5 -38q80 0 141 38t95.5 105.5t34.5 156.5zM462 646v53q47 0 70.5 17.5t23.5 59.5q0 14 6.5 25t19.5 11q16 0 21 -12t5 -24q0 -39 -17.5 -68.5t-49.5 -45.5t-79 -16zM307 903q14 13 33 22t41 9
q32 0 49.5 -12t25 -29.5t7.5 -32.5q0 -17 -9 -30.5t-25 -29.5q-5 -6 -8.5 -12t-3.5 -15q-1 -8 -7.5 -12t-15.5 -4q-8 0 -13.5 5t-5.5 12q0 9 2.5 19.5t11.5 20.5q13 13 21 23t8 22q0 13 -10.5 21.5t-25.5 8.5q-14 0 -25.5 -5.5t-20.5 -12.5q-7 -7 -16 -7.5t-17 7.5
q-6 7 -5 15.5t9 16.5z" />
    <glyph glyph-name="uni1EE0" unicode="&#x1ee0;" horiz-adv-x="766" 
d="M718 350q0 -79 -24.5 -144.5t-69.5 -114t-106.5 -75t-134.5 -26.5t-134.5 26.5t-106.5 75t-69.5 114t-24.5 144.5t24.5 144.5t69.5 114t106.5 75t134.5 26.5t134.5 -26.5t106.5 -75t69.5 -114t24.5 -144.5zM654 350q0 89 -34.5 156.5t-95.5 105.5t-141 38
q-79 0 -140.5 -38t-96 -105.5t-34.5 -156.5t34.5 -156.5t96 -105.5t140.5 -38q80 0 141 38t95.5 105.5t34.5 156.5zM462 646v53q47 0 70.5 17.5t23.5 59.5q0 14 6.5 25t19.5 11q16 0 21 -12t5 -24q0 -39 -17.5 -68.5t-49.5 -45.5t-79 -16zM250 775q-13 0 -19.5 11.5
t-3.5 32.5q7 32 31.5 49.5t55.5 17.5q25 0 50 -14.5t48.5 -29t40.5 -14.5q14 0 22.5 11t10.5 28q-1 12 5.5 19t16.5 7q15 0 21 -12t3 -31q-3 -22 -14.5 -38t-28 -24.5t-38.5 -8.5q-24 0 -49.5 14.5t-49.5 28.5t-41 14q-14 0 -24 -9.5t-15 -29.5q1 -10 -6.5 -16t-15.5 -6z
" />
    <glyph glyph-name="Ohungarumlaut" unicode="&#x150;" horiz-adv-x="766" 
d="M718 350q0 -79 -24.5 -144.5t-69.5 -114t-106.5 -75t-134.5 -26.5t-134.5 26.5t-106.5 75t-69.5 114t-24.5 144.5t24.5 144.5t69.5 114t106.5 75t134.5 26.5t134.5 -26.5t106.5 -75t69.5 -114t24.5 -144.5zM654 350q0 89 -34.5 156.5t-95.5 105.5t-141 38
q-79 0 -140.5 -38t-96 -105.5t-34.5 -156.5t34.5 -156.5t96 -105.5t140.5 -38q80 0 141 38t95.5 105.5t34.5 156.5zM284 746q-15 0 -15 15q0 8 7 19l57 85q4 8 11.5 14t19.5 6q14 0 24 -8t10 -23q0 -6 -3 -11t-7 -10l-69 -70q-7 -7 -15.5 -12t-19.5 -5zM441 746
q-15 0 -15 15q0 8 7 19l57 86q4 7 11.5 12.5t19.5 5.5t22.5 -7t10.5 -22q0 -7 -2.5 -12t-6.5 -10l-69 -70q-7 -7 -15.5 -12t-19.5 -5z" />
    <glyph glyph-name="uni020E" unicode="&#x20e;" horiz-adv-x="766" 
d="M718 350q0 -79 -24.5 -144.5t-69.5 -114t-106.5 -75t-134.5 -26.5t-134.5 26.5t-106.5 75t-69.5 114t-24.5 144.5t24.5 144.5t69.5 114t106.5 75t134.5 26.5t134.5 -26.5t106.5 -75t69.5 -114t24.5 -144.5zM654 350q0 89 -34.5 156.5t-95.5 105.5t-141 38
q-79 0 -140.5 -38t-96 -105.5t-34.5 -156.5t34.5 -156.5t96 -105.5t140.5 -38q80 0 141 38t95.5 105.5t34.5 156.5zM382 865q35 0 63 -13t46 -35.5t21 -49.5q3 -12 -4 -19.5t-18 -7.5q-12 0 -18.5 6.5t-11.5 17.5q-7 25 -28.5 38t-49.5 13q-29 0 -50.5 -13t-27.5 -38
q-4 -11 -11 -17.5t-20 -6.5q-11 0 -17.5 7.5t-4.5 18.5q3 28 21 50.5t46.5 35.5t63.5 13z" />
    <glyph glyph-name="Omacron" unicode="&#x14c;" horiz-adv-x="766" 
d="M718 350q0 -79 -24.5 -144.5t-69.5 -114t-106.5 -75t-134.5 -26.5t-134.5 26.5t-106.5 75t-69.5 114t-24.5 144.5t24.5 144.5t69.5 114t106.5 75t134.5 26.5t134.5 -26.5t106.5 -75t69.5 -114t24.5 -144.5zM654 350q0 89 -34.5 156.5t-95.5 105.5t-141 38
q-79 0 -140.5 -38t-96 -105.5t-34.5 -156.5t34.5 -156.5t96 -105.5t140.5 -38q80 0 141 38t95.5 105.5t34.5 156.5zM259 788q-29 0 -29 25q0 26 29 26h255q29 0 29 -26q0 -25 -29 -25h-255z" />
    <glyph glyph-name="uni1E52" unicode="&#x1e52;" horiz-adv-x="766" 
d="M718 350q0 -79 -24.5 -144.5t-69.5 -114t-106.5 -75t-134.5 -26.5t-134.5 26.5t-106.5 75t-69.5 114t-24.5 144.5t24.5 144.5t69.5 114t106.5 75t134.5 26.5t134.5 -26.5t106.5 -75t69.5 -114t24.5 -144.5zM654 350q0 89 -34.5 156.5t-95.5 105.5t-141 38
q-79 0 -140.5 -38t-96 -105.5t-34.5 -156.5t34.5 -156.5t96 -105.5t140.5 -38q80 0 141 38t95.5 105.5t34.5 156.5zM259 788q-29 0 -29 25q0 26 29 26h255q29 0 29 -26q0 -25 -29 -25h-255zM386 900q-10 0 -14.5 5.5t-4.5 12.5q0 5 2.5 9.5t7.5 8.5l89 69q6 4 13 7.5t16 3.5
q13 0 21.5 -8.5t8.5 -21.5q0 -10 -5 -18t-14 -13l-98 -49q-5 -2 -10.5 -4t-11.5 -2z" />
    <glyph glyph-name="uni1E50" unicode="&#x1e50;" horiz-adv-x="766" 
d="M718 350q0 -79 -24.5 -144.5t-69.5 -114t-106.5 -75t-134.5 -26.5t-134.5 26.5t-106.5 75t-69.5 114t-24.5 144.5t24.5 144.5t69.5 114t106.5 75t134.5 26.5t134.5 -26.5t106.5 -75t69.5 -114t24.5 -144.5zM654 350q0 89 -34.5 156.5t-95.5 105.5t-141 38
q-79 0 -140.5 -38t-96 -105.5t-34.5 -156.5t34.5 -156.5t96 -105.5t140.5 -38q80 0 141 38t95.5 105.5t34.5 156.5zM259 788q-29 0 -29 25q0 26 29 26h255q29 0 29 -26q0 -25 -29 -25h-255zM383 901q-6 0 -11 2t-11 4l-97 49q-20 11 -20 31q0 13 8.5 21.5t21.5 8.5
q9 0 16.5 -3.5t12.5 -7.5l89 -69q5 -4 7.5 -8.5t2.5 -9.5q0 -7 -4.5 -12.5t-14.5 -5.5z" />
    <glyph glyph-name="uni01EA" unicode="&#x1ea;" horiz-adv-x="766" 
d="M424 -190q-37 0 -66.5 25t-29.5 70q0 28 10 49t26 36t35.5 25.5t38.5 16.5l39 -29q-26 -2 -47.5 -14.5t-35 -31.5t-13.5 -40q0 -27 15 -41.5t34 -14.5q9 0 15.5 1.5t10.5 6.5q6 9 14 14t15 5q10 0 16 -6.5t6 -16.5q0 -14 -11.5 -27t-30 -20.5t-41.5 -7.5zM718 350
q0 -79 -24.5 -144.5t-69.5 -114t-106.5 -75t-134.5 -26.5t-134.5 26.5t-106.5 75t-69.5 114t-24.5 144.5t24.5 144.5t69.5 114t106.5 75t134.5 26.5t134.5 -26.5t106.5 -75t69.5 -114t24.5 -144.5zM654 350q0 89 -34.5 156.5t-95.5 105.5t-141 38q-79 0 -140.5 -38
t-96 -105.5t-34.5 -156.5t34.5 -156.5t96 -105.5t140.5 -38q80 0 141 38t95.5 105.5t34.5 156.5z" />
    <glyph glyph-name="Oslash" unicode="&#xd8;" horiz-adv-x="726" 
d="M73 -23q-10 0 -17.5 7.5t-7.5 18.5q0 9 7 18l572 692q7 8 13 10.5t13 2.5q10 0 18 -6.5t8 -17.5t-8 -20l-569 -688q-5 -7 -11.5 -12t-17.5 -5zM718 350q0 -79 -24.5 -144.5t-69.5 -114t-106.5 -75t-134.5 -26.5t-134.5 26.5t-106.5 75t-69.5 114t-24.5 144.5t24.5 144.5
t69.5 114t106.5 75t134.5 26.5t134.5 -26.5t106.5 -75t69.5 -114t24.5 -144.5zM654 350q0 89 -34.5 156.5t-95.5 105.5t-141 38q-79 0 -140.5 -38t-96 -105.5t-34.5 -156.5t34.5 -156.5t96 -105.5t140.5 -38q80 0 141 38t95.5 105.5t34.5 156.5z" />
    <glyph glyph-name="Oslashacute" unicode="&#x1fe;" horiz-adv-x="726" 
d="M73 -23q-10 0 -17.5 7.5t-7.5 18.5q0 9 7 18l572 692q7 8 13 10.5t13 2.5q10 0 18 -6.5t8 -17.5t-8 -20l-569 -688q-5 -7 -11.5 -12t-17.5 -5zM718 350q0 -79 -24.5 -144.5t-69.5 -114t-106.5 -75t-134.5 -26.5t-134.5 26.5t-106.5 75t-69.5 114t-24.5 144.5t24.5 144.5
t69.5 114t106.5 75t134.5 26.5t134.5 -26.5t106.5 -75t69.5 -114t24.5 -144.5zM654 350q0 89 -34.5 156.5t-95.5 105.5t-141 38q-79 0 -140.5 -38t-96 -105.5t-34.5 -156.5t34.5 -156.5t96 -105.5t140.5 -38q80 0 141 38t95.5 105.5t34.5 156.5zM366 746q-10 0 -14.5 5.5
t-4.5 12.5q0 5 2.5 9.5t7.5 8.5l89 69q6 4 13 7.5t16 3.5q13 0 21.5 -8.5t8.5 -21.5q0 -10 -5 -18t-14 -13l-98 -49q-5 -2 -10.5 -4t-11.5 -2z" />
    <glyph glyph-name="Otilde" unicode="&#xd5;" horiz-adv-x="766" 
d="M718 350q0 -79 -24.5 -144.5t-69.5 -114t-106.5 -75t-134.5 -26.5t-134.5 26.5t-106.5 75t-69.5 114t-24.5 144.5t24.5 144.5t69.5 114t106.5 75t134.5 26.5t134.5 -26.5t106.5 -75t69.5 -114t24.5 -144.5zM654 350q0 89 -34.5 156.5t-95.5 105.5t-141 38
q-79 0 -140.5 -38t-96 -105.5t-34.5 -156.5t34.5 -156.5t96 -105.5t140.5 -38q80 0 141 38t95.5 105.5t34.5 156.5zM254 771q-13 0 -19.5 11.5t-3.5 32.5q7 32 31.5 49.5t55.5 17.5q25 0 50 -14.5t48.5 -29t40.5 -14.5q14 0 22.5 11t10.5 28q-1 12 5.5 19t16.5 7
q15 0 21 -12t3 -31q-3 -22 -14.5 -38t-28 -24.5t-38.5 -8.5q-24 0 -49.5 14.5t-49.5 28.5t-41 14q-14 0 -24 -9.5t-15 -29.5q1 -10 -6.5 -16t-15.5 -6z" />
    <glyph glyph-name="uni1E4C" unicode="&#x1e4c;" horiz-adv-x="766" 
d="M718 350q0 -79 -24.5 -144.5t-69.5 -114t-106.5 -75t-134.5 -26.5t-134.5 26.5t-106.5 75t-69.5 114t-24.5 144.5t24.5 144.5t69.5 114t106.5 75t134.5 26.5t134.5 -26.5t106.5 -75t69.5 -114t24.5 -144.5zM654 350q0 89 -34.5 156.5t-95.5 105.5t-141 38
q-79 0 -140.5 -38t-96 -105.5t-34.5 -156.5t34.5 -156.5t96 -105.5t140.5 -38q80 0 141 38t95.5 105.5t34.5 156.5zM254 771q-13 0 -19.5 11.5t-3.5 32.5q7 32 31.5 49.5t55.5 17.5q25 0 50 -14.5t48.5 -29t40.5 -14.5q14 0 22.5 11t10.5 28q-1 12 5.5 19t16.5 7
q15 0 21 -12t3 -31q-3 -22 -14.5 -38t-28 -24.5t-38.5 -8.5q-24 0 -49.5 14.5t-49.5 28.5t-41 14q-14 0 -24 -9.5t-15 -29.5q1 -10 -6.5 -16t-15.5 -6zM386 938q-10 0 -14.5 5.5t-4.5 12.5q0 5 2.5 9.5t7.5 8.5l89 69q6 4 13 7.5t16 3.5q13 0 21.5 -8.5t8.5 -21.5
q0 -10 -5 -18t-14 -13l-98 -49q-5 -2 -10.5 -4t-11.5 -2z" />
    <glyph glyph-name="uni1E4E" unicode="&#x1e4e;" horiz-adv-x="766" 
d="M718 350q0 -79 -24.5 -144.5t-69.5 -114t-106.5 -75t-134.5 -26.5t-134.5 26.5t-106.5 75t-69.5 114t-24.5 144.5t24.5 144.5t69.5 114t106.5 75t134.5 26.5t134.5 -26.5t106.5 -75t69.5 -114t24.5 -144.5zM654 350q0 89 -34.5 156.5t-95.5 105.5t-141 38
q-79 0 -140.5 -38t-96 -105.5t-34.5 -156.5t34.5 -156.5t96 -105.5t140.5 -38q80 0 141 38t95.5 105.5t34.5 156.5zM254 771q-13 0 -19.5 11.5t-3.5 32.5q7 32 31.5 49.5t55.5 17.5q25 0 50 -14.5t48.5 -29t40.5 -14.5q14 0 22.5 11t10.5 28q-1 12 5.5 19t16.5 7
q15 0 21 -12t3 -31q-3 -22 -14.5 -38t-28 -24.5t-38.5 -8.5q-24 0 -49.5 14.5t-49.5 28.5t-41 14q-14 0 -24 -9.5t-15 -29.5q1 -10 -6.5 -16t-15.5 -6zM469 967q-19 0 -30 10.5t-11 29.5v10q0 19 11.5 29.5t30.5 10.5t30 -10.5t11 -29.5v-10q0 -20 -11 -30t-31 -10zM297 967
q-19 0 -30 10.5t-11 29.5v10q0 19 11.5 29.5t30.5 10.5t30 -10.5t11 -29.5v-10q0 -20 -11 -30t-31 -10z" />
    <glyph glyph-name="uni022C" unicode="&#x22c;" horiz-adv-x="766" 
d="M718 350q0 -79 -24.5 -144.5t-69.5 -114t-106.5 -75t-134.5 -26.5t-134.5 26.5t-106.5 75t-69.5 114t-24.5 144.5t24.5 144.5t69.5 114t106.5 75t134.5 26.5t134.5 -26.5t106.5 -75t69.5 -114t24.5 -144.5zM654 350q0 89 -34.5 156.5t-95.5 105.5t-141 38
q-79 0 -140.5 -38t-96 -105.5t-34.5 -156.5t34.5 -156.5t96 -105.5t140.5 -38q80 0 141 38t95.5 105.5t34.5 156.5zM254 771q-13 0 -19.5 11.5t-3.5 32.5q7 32 31.5 49.5t55.5 17.5q25 0 50 -14.5t48.5 -29t40.5 -14.5q14 0 22.5 11t10.5 28q-1 12 5.5 19t16.5 7
q15 0 21 -12t3 -31q-3 -22 -14.5 -38t-28 -24.5t-38.5 -8.5q-24 0 -49.5 14.5t-49.5 28.5t-41 14q-14 0 -24 -9.5t-15 -29.5q1 -10 -6.5 -16t-15.5 -6zM259 980q-29 0 -29 25q0 26 29 26h255q29 0 29 -26q0 -25 -29 -25h-255z" />
    <glyph glyph-name="OE" unicode="&#x152;" horiz-adv-x="990" 
d="M913 60q12 0 21 -9t9 -21q0 -13 -9 -21.5t-21 -8.5h-573q-99 0 -164 47.5t-96.5 127t-31.5 175.5q0 69 17.5 132t53.5 112.5t91.5 77.5t129.5 28h573q12 0 21 -9t9 -21q0 -13 -9 -21.5t-21 -8.5h-334l7 8v-269l-8 12h290q12 0 21 -9t9 -22t-9 -21t-21 -8h-290l8 9v-287
l-6 7h333zM534 60l-9 -11v600l6 -9h-183q-64 0 -109 -23t-74.5 -63.5t-43 -93t-13.5 -110.5q0 -80 24.5 -146t78 -105t137.5 -39h186z" />
    <glyph glyph-name="P" unicode="P" horiz-adv-x="596" 
d="M361 700q56 0 99 -25.5t68 -70.5t25 -103t-25 -104.5t-68 -73.5t-99 -27h-212l5 10v-276q0 -12 -9 -21t-21 -9q-14 0 -22 9t-8 21v640q0 12 9 21t21 9h237zM361 354q39 0 68 19.5t45.5 53t16.5 74.5t-16.5 72.5t-45.5 49.5t-68 18h-212l5 9v-302l-6 6h213z" />
    <glyph glyph-name="Thorn" unicode="&#xde;" horiz-adv-x="588" 
d="M154 30q0 -12 -9 -21t-21 -9q-14 0 -22 9t-8 21v680q0 12 9 21t21 9q13 0 21.5 -9t8.5 -21v-680zM141 249h212q39 0 68 19t45.5 52t16.5 73q0 42 -16.5 73t-45.5 49t-68 18h-211l-26 60h237q56 0 99 -25.5t67.5 -70.5t24.5 -104q0 -57 -24.5 -103.5t-68 -73.5t-98.5 -27
h-227z" />
    <glyph glyph-name="Q" unicode="Q" horiz-adv-x="775" 
d="M766 -56q11 0 19 -7.5t8 -19.5q0 -17 -17.5 -33t-46 -29.5t-60 -21t-59.5 -7.5q-59 0 -99 13t-70 30t-61 30t-74 13q-18 0 -31.5 -6t-25 -11.5t-24.5 -5.5q-12 0 -20.5 9t-8.5 22q0 18 17 25l172 62l92 -3l-159 -54l13 14q42 0 75 -12t63.5 -28.5t64.5 -29t78 -12.5
q39 0 64.5 11.5t41.5 20.5q15 9 25.5 19.5t22.5 10.5zM718 350q0 -79 -24.5 -144.5t-69.5 -114t-106.5 -75t-134.5 -26.5t-134.5 26.5t-106.5 75t-69.5 114t-24.5 144.5t24.5 144.5t69.5 114t106.5 75t134.5 26.5t134.5 -26.5t106.5 -75t69.5 -114t24.5 -144.5zM654 350
q0 89 -34.5 156.5t-95.5 105.5t-141 38q-79 0 -140.5 -38t-96 -105.5t-34.5 -156.5t34.5 -156.5t96 -105.5t140.5 -38q80 0 141 38t95.5 105.5t34.5 156.5z" />
    <glyph glyph-name="R" unicode="R" horiz-adv-x="670" 
d="M128 0q-15 0 -24.5 9t-9.5 21v640q0 12 9 21t21 9h270q57 0 102 -24.5t70.5 -67.5t25.5 -97q0 -44 -16 -81t-45 -62.5t-65 -37.5l-35 11q37 -3 69 -23.5t51.5 -56t20.5 -85.5q1 -43 4.5 -67t10.5 -36t18 -19q10 -6 13.5 -17t-2.5 -21q-4 -8 -11.5 -11.5t-15.5 -3.5t-16 4
q-14 8 -28.5 25t-24 50t-9.5 92q0 39 -12.5 64t-32 38.5t-43 19t-44.5 5.5h-233l11 14v-283q0 -12 -8 -21t-21 -9zM146 354h251q34 3 64 22.5t48.5 53.5t18.5 79q0 57 -38.5 94.5t-100.5 37.5h-239l7 14v-315z" />
    <glyph glyph-name="Racute" unicode="&#x154;" horiz-adv-x="670" 
d="M128 0q-15 0 -24.5 9t-9.5 21v640q0 12 9 21t21 9h270q57 0 102 -24.5t70.5 -67.5t25.5 -97q0 -44 -16 -81t-45 -62.5t-65 -37.5l-35 11q37 -3 69 -23.5t51.5 -56t20.5 -85.5q1 -43 4.5 -67t10.5 -36t18 -19q10 -6 13.5 -17t-2.5 -21q-4 -8 -11.5 -11.5t-15.5 -3.5t-16 4
q-14 8 -28.5 25t-24 50t-9.5 92q0 39 -12.5 64t-32 38.5t-43 19t-44.5 5.5h-233l11 14v-283q0 -12 -8 -21t-21 -9zM146 354h251q34 3 64 22.5t48.5 53.5t18.5 79q0 57 -38.5 94.5t-100.5 37.5h-239l7 14v-315zM334 746q-10 0 -14.5 5.5t-4.5 12.5q0 5 2.5 9.5t7.5 8.5l89 69
q6 4 13 7.5t16 3.5q13 0 21.5 -8.5t8.5 -21.5q0 -10 -5 -18t-14 -13l-98 -49q-5 -2 -10.5 -4t-11.5 -2z" />
    <glyph glyph-name="Rcaron" unicode="&#x158;" horiz-adv-x="670" 
d="M128 0q-15 0 -24.5 9t-9.5 21v640q0 12 9 21t21 9h270q57 0 102 -24.5t70.5 -67.5t25.5 -97q0 -44 -16 -81t-45 -62.5t-65 -37.5l-35 11q37 -3 69 -23.5t51.5 -56t20.5 -85.5q1 -43 4.5 -67t10.5 -36t18 -19q10 -6 13.5 -17t-2.5 -21q-4 -8 -11.5 -11.5t-15.5 -3.5t-16 4
q-14 8 -28.5 25t-24 50t-9.5 92q0 39 -12.5 64t-32 38.5t-43 19t-44.5 5.5h-233l11 14v-283q0 -12 -8 -21t-21 -9zM146 354h251q34 3 64 22.5t48.5 53.5t18.5 79q0 57 -38.5 94.5t-100.5 37.5h-239l7 14v-315zM323 802l88 70q8 7 15 10t12 3q8 0 12.5 -4.5t4.5 -10.5
q0 -4 -2 -8t-6 -9l-77 -82q-6 -9 -14 -13t-19 -4h-11q-11 0 -19 4t-15 13l-76 81q-5 5 -6.5 9t-1.5 8q0 6 4.5 10.5t11.5 4.5q11 0 27 -12l90 -67z" />
    <glyph glyph-name="uni0156" unicode="&#x156;" horiz-adv-x="670" 
d="M128 0q-15 0 -24.5 9t-9.5 21v640q0 12 9 21t21 9h270q57 0 102 -24.5t70.5 -67.5t25.5 -97q0 -44 -16 -81t-45 -62.5t-65 -37.5l-35 11q37 -3 69 -23.5t51.5 -56t20.5 -85.5q1 -43 4.5 -67t10.5 -36t18 -19q10 -6 13.5 -17t-2.5 -21q-4 -8 -11.5 -11.5t-15.5 -3.5t-16 4
q-14 8 -28.5 25t-24 50t-9.5 92q0 39 -12.5 64t-32 38.5t-43 19t-44.5 5.5h-233l11 14v-283q0 -12 -8 -21t-21 -9zM146 354h251q34 3 64 22.5t48.5 53.5t18.5 79q0 57 -38.5 94.5t-100.5 37.5h-239l7 14v-315zM391 -107q0 -20 -11 -37.5t-28.5 -28t-37.5 -10.5q-19 0 -27 6
t-8 14q0 9 4.5 14t10.5 5q5 0 11.5 -2.5t17.5 -0.5q9 1 14 9t5 23q0 12 -10 12q-6 0 -9.5 -4t-12.5 -4q-12 -1 -19 8t-7 19q0 17 14 27t38 10q23 0 39 -15t16 -45z" />
    <glyph glyph-name="uni0210" unicode="&#x210;" horiz-adv-x="670" 
d="M128 0q-15 0 -24.5 9t-9.5 21v640q0 12 9 21t21 9h270q57 0 102 -24.5t70.5 -67.5t25.5 -97q0 -44 -16 -81t-45 -62.5t-65 -37.5l-35 11q37 -3 69 -23.5t51.5 -56t20.5 -85.5q1 -43 4.5 -67t10.5 -36t18 -19q10 -6 13.5 -17t-2.5 -21q-4 -8 -11.5 -11.5t-15.5 -3.5t-16 4
q-14 8 -28.5 25t-24 50t-9.5 92q0 39 -12.5 64t-32 38.5t-43 19t-44.5 5.5h-233l11 14v-283q0 -12 -8 -21t-21 -9zM146 354h251q34 3 64 22.5t48.5 53.5t18.5 79q0 57 -38.5 94.5t-100.5 37.5h-239l7 14v-315zM283 755q-6 0 -11 2.5t-11 4.5l-97 48q-20 11 -20 32
q0 12 8.5 21t21.5 9q9 0 16.5 -3.5t12.5 -8.5l89 -69q5 -4 7.5 -8t2.5 -10q0 -7 -4.5 -12.5t-14.5 -5.5zM451 755q-6 0 -11.5 2t-10.5 4l-98 49q-19 11 -19 31q0 13 8.5 21.5t21.5 8.5q9 0 16 -3.5t13 -7.5l89 -69q5 -4 7.5 -8.5t2.5 -9.5q0 -7 -4.5 -12.5t-14.5 -5.5z" />
    <glyph glyph-name="uni1E5A" unicode="&#x1e5a;" horiz-adv-x="670" 
d="M128 0q-15 0 -24.5 9t-9.5 21v640q0 12 9 21t21 9h270q57 0 102 -24.5t70.5 -67.5t25.5 -97q0 -44 -16 -81t-45 -62.5t-65 -37.5l-35 11q37 -3 69 -23.5t51.5 -56t20.5 -85.5q1 -43 4.5 -67t10.5 -36t18 -19q10 -6 13.5 -17t-2.5 -21q-4 -8 -11.5 -11.5t-15.5 -3.5t-16 4
q-14 8 -28.5 25t-24 50t-9.5 92q0 39 -12.5 64t-32 38.5t-43 19t-44.5 5.5h-233l11 14v-283q0 -12 -8 -21t-21 -9zM146 354h251q34 3 64 22.5t48.5 53.5t18.5 79q0 57 -38.5 94.5t-100.5 37.5h-239l7 14v-315zM331 -139q-21 0 -31.5 10t-10.5 29v11q0 19 11.5 29t30.5 10
q20 0 30.5 -10t10.5 -29v-11q0 -19 -10.5 -29t-30.5 -10z" />
    <glyph glyph-name="uni0212" unicode="&#x212;" horiz-adv-x="670" 
d="M128 0q-15 0 -24.5 9t-9.5 21v640q0 12 9 21t21 9h270q57 0 102 -24.5t70.5 -67.5t25.5 -97q0 -44 -16 -81t-45 -62.5t-65 -37.5l-35 11q37 -3 69 -23.5t51.5 -56t20.5 -85.5q1 -43 4.5 -67t10.5 -36t18 -19q10 -6 13.5 -17t-2.5 -21q-4 -8 -11.5 -11.5t-15.5 -3.5t-16 4
q-14 8 -28.5 25t-24 50t-9.5 92q0 39 -12.5 64t-32 38.5t-43 19t-44.5 5.5h-233l11 14v-283q0 -12 -8 -21t-21 -9zM146 354h251q34 3 64 22.5t48.5 53.5t18.5 79q0 57 -38.5 94.5t-100.5 37.5h-239l7 14v-315zM330 865q35 0 63 -13t46 -35.5t21 -49.5q3 -12 -4 -19.5
t-18 -7.5q-12 0 -18.5 6.5t-11.5 17.5q-7 25 -28.5 38t-49.5 13q-29 0 -50.5 -13t-27.5 -38q-4 -11 -11 -17.5t-20 -6.5q-11 0 -17.5 7.5t-4.5 18.5q3 28 21 50.5t46.5 35.5t63.5 13z" />
    <glyph glyph-name="uni1E5E" unicode="&#x1e5e;" horiz-adv-x="670" 
d="M128 0q-15 0 -24.5 9t-9.5 21v640q0 12 9 21t21 9h270q57 0 102 -24.5t70.5 -67.5t25.5 -97q0 -44 -16 -81t-45 -62.5t-65 -37.5l-35 11q37 -3 69 -23.5t51.5 -56t20.5 -85.5q1 -43 4.5 -67t10.5 -36t18 -19q10 -6 13.5 -17t-2.5 -21q-4 -8 -11.5 -11.5t-15.5 -3.5t-16 4
q-14 8 -28.5 25t-24 50t-9.5 92q0 39 -12.5 64t-32 38.5t-43 19t-44.5 5.5h-233l11 14v-283q0 -12 -8 -21t-21 -9zM146 354h251q34 3 64 22.5t48.5 53.5t18.5 79q0 57 -38.5 94.5t-100.5 37.5h-239l7 14v-315zM233 -126q-28 0 -28 25t28 25h210q28 0 28 -25t-28 -25h-210z
" />
    <glyph glyph-name="S" unicode="S" horiz-adv-x="562" 
d="M287 -10q-76 -1 -132 24t-107 75q-5 4 -8.5 10t-3.5 14q0 12 9.5 22t21.5 10t22 -10q39 -42 88.5 -64t106.5 -22q48 0 85.5 15t59.5 43t22 65q0 46 -25 74.5t-66 47t-91 33.5q-41 12 -78 27.5t-66 38t-45 55.5t-16 80q0 53 28 94t79.5 64.5t119.5 23.5q59 0 113.5 -20
t86.5 -59q15 -16 15 -29q0 -10 -10 -20t-22 -10q-10 0 -17 7q-17 21 -43 37.5t-57.5 25.5t-65.5 9q-47 0 -84.5 -14.5t-59 -41.5t-21.5 -65q0 -42 24 -69t63 -44.5t83 -32.5q43 -12 82.5 -27.5t70 -38.5t48 -58t17.5 -88q0 -51 -29 -92t-79.5 -65t-118.5 -25z" />
    <glyph glyph-name="Sacute" unicode="&#x15a;" horiz-adv-x="562" 
d="M287 -10q-76 -1 -132 24t-107 75q-5 4 -8.5 10t-3.5 14q0 12 9.5 22t21.5 10t22 -10q39 -42 88.5 -64t106.5 -22q48 0 85.5 15t59.5 43t22 65q0 46 -25 74.5t-66 47t-91 33.5q-41 12 -78 27.5t-66 38t-45 55.5t-16 80q0 53 28 94t79.5 64.5t119.5 23.5q59 0 113.5 -20
t86.5 -59q15 -16 15 -29q0 -10 -10 -20t-22 -10q-10 0 -17 7q-17 21 -43 37.5t-57.5 25.5t-65.5 9q-47 0 -84.5 -14.5t-59 -41.5t-21.5 -65q0 -42 24 -69t63 -44.5t83 -32.5q43 -12 82.5 -27.5t70 -38.5t48 -58t17.5 -88q0 -51 -29 -92t-79.5 -65t-118.5 -25zM284 746
q-10 0 -14.5 5.5t-4.5 12.5q0 5 2.5 9.5t7.5 8.5l89 69q6 4 13 7.5t16 3.5q13 0 21.5 -8.5t8.5 -21.5q0 -10 -5 -18t-14 -13l-98 -49q-5 -2 -10.5 -4t-11.5 -2z" />
    <glyph glyph-name="uni1E64" unicode="&#x1e64;" horiz-adv-x="562" 
d="M287 -10q-76 -1 -132 24t-107 75q-5 4 -8.5 10t-3.5 14q0 12 9.5 22t21.5 10t22 -10q39 -42 88.5 -64t106.5 -22q48 0 85.5 15t59.5 43t22 65q0 46 -25 74.5t-66 47t-91 33.5q-41 12 -78 27.5t-66 38t-45 55.5t-16 80q0 53 28 94t79.5 64.5t119.5 23.5q59 0 113.5 -20
t86.5 -59q15 -16 15 -29q0 -10 -10 -20t-22 -10q-10 0 -17 7q-17 21 -43 37.5t-57.5 25.5t-65.5 9q-47 0 -84.5 -14.5t-59 -41.5t-21.5 -65q0 -42 24 -69t63 -44.5t83 -32.5q43 -12 82.5 -27.5t70 -38.5t48 -58t17.5 -88q0 -51 -29 -92t-79.5 -65t-118.5 -25zM284 746
q-10 0 -14.5 5.5t-4.5 12.5q0 5 2.5 9.5t7.5 8.5l89 69q6 4 13 7.5t16 3.5q13 0 21.5 -8.5t8.5 -21.5q0 -10 -5 -18t-14 -13l-98 -49q-5 -2 -10.5 -4t-11.5 -2zM326 927q-21 0 -31.5 10.5t-10.5 29.5v10q0 20 11.5 30t31.5 10q19 0 29.5 -10t10.5 -30v-10q0 -20 -10.5 -30
t-30.5 -10z" />
    <glyph glyph-name="Scaron" unicode="&#x160;" horiz-adv-x="562" 
d="M287 -10q-76 -1 -132 24t-107 75q-5 4 -8.5 10t-3.5 14q0 12 9.5 22t21.5 10t22 -10q39 -42 88.5 -64t106.5 -22q48 0 85.5 15t59.5 43t22 65q0 46 -25 74.5t-66 47t-91 33.5q-41 12 -78 27.5t-66 38t-45 55.5t-16 80q0 53 28 94t79.5 64.5t119.5 23.5q59 0 113.5 -20
t86.5 -59q15 -16 15 -29q0 -10 -10 -20t-22 -10q-10 0 -17 7q-17 21 -43 37.5t-57.5 25.5t-65.5 9q-47 0 -84.5 -14.5t-59 -41.5t-21.5 -65q0 -42 24 -69t63 -44.5t83 -32.5q43 -12 82.5 -27.5t70 -38.5t48 -58t17.5 -88q0 -51 -29 -92t-79.5 -65t-118.5 -25zM272 802l88 70
q8 7 15 10t12 3q8 0 12.5 -4.5t4.5 -10.5q0 -4 -2 -8t-6 -9l-77 -82q-6 -9 -14 -13t-19 -4h-11q-11 0 -19 4t-15 13l-76 81q-5 5 -6.5 9t-1.5 8q0 6 4.5 10.5t11.5 4.5q11 0 27 -12l90 -67z" />
    <glyph glyph-name="uni1E66" unicode="&#x1e66;" horiz-adv-x="562" 
d="M287 -10q-76 -1 -132 24t-107 75q-5 4 -8.5 10t-3.5 14q0 12 9.5 22t21.5 10t22 -10q39 -42 88.5 -64t106.5 -22q48 0 85.5 15t59.5 43t22 65q0 46 -25 74.5t-66 47t-91 33.5q-41 12 -78 27.5t-66 38t-45 55.5t-16 80q0 53 28 94t79.5 64.5t119.5 23.5q59 0 113.5 -20
t86.5 -59q15 -16 15 -29q0 -10 -10 -20t-22 -10q-10 0 -17 7q-17 21 -43 37.5t-57.5 25.5t-65.5 9q-47 0 -84.5 -14.5t-59 -41.5t-21.5 -65q0 -42 24 -69t63 -44.5t83 -32.5q43 -12 82.5 -27.5t70 -38.5t48 -58t17.5 -88q0 -51 -29 -92t-79.5 -65t-118.5 -25zM272 802l88 70
q8 7 15 10t12 3q8 0 12.5 -4.5t4.5 -10.5q0 -4 -2 -8t-6 -9l-77 -82q-6 -9 -14 -13t-19 -4h-11q-11 0 -19 4t-15 13l-76 81q-5 5 -6.5 9t-1.5 8q0 6 4.5 10.5t11.5 4.5q11 0 27 -12l90 -67zM281 947q-21 0 -31.5 10.5t-10.5 29.5v10q0 20 11.5 30t31.5 10q19 0 29.5 -10
t10.5 -30v-10q0 -20 -10.5 -30t-30.5 -10z" />
    <glyph glyph-name="Scedilla" unicode="&#x15e;" horiz-adv-x="562" 
d="M287 -10q-76 -1 -132 24t-107 75q-5 4 -8.5 10t-3.5 14q0 12 9.5 22t21.5 10t22 -10q39 -42 88.5 -64t106.5 -22q48 0 85.5 15t59.5 43t22 65q0 46 -25 74.5t-66 47t-91 33.5q-41 12 -78 27.5t-66 38t-45 55.5t-16 80q0 53 28 94t79.5 64.5t119.5 23.5q59 0 113.5 -20
t86.5 -59q15 -16 15 -29q0 -10 -10 -20t-22 -10q-10 0 -17 7q-17 21 -43 37.5t-57.5 25.5t-65.5 9q-47 0 -84.5 -14.5t-59 -41.5t-21.5 -65q0 -42 24 -69t63 -44.5t83 -32.5q43 -12 82.5 -27.5t70 -38.5t48 -58t17.5 -88q0 -51 -29 -92t-79.5 -65t-118.5 -25zM215 -143
q-6 0 -16 4t-18 11.5t-8 15.5q0 11 7 18l87 109h38l-64 -139q-8 -19 -26 -19z" />
    <glyph glyph-name="Scircumflex" unicode="&#x15c;" horiz-adv-x="562" 
d="M287 -10q-76 -1 -132 24t-107 75q-5 4 -8.5 10t-3.5 14q0 12 9.5 22t21.5 10t22 -10q39 -42 88.5 -64t106.5 -22q48 0 85.5 15t59.5 43t22 65q0 46 -25 74.5t-66 47t-91 33.5q-41 12 -78 27.5t-66 38t-45 55.5t-16 80q0 53 28 94t79.5 64.5t119.5 23.5q59 0 113.5 -20
t86.5 -59q15 -16 15 -29q0 -10 -10 -20t-22 -10q-10 0 -17 7q-17 21 -43 37.5t-57.5 25.5t-65.5 9q-47 0 -84.5 -14.5t-59 -41.5t-21.5 -65q0 -42 24 -69t63 -44.5t83 -32.5q43 -12 82.5 -27.5t70 -38.5t48 -58t17.5 -88q0 -51 -29 -92t-79.5 -65t-118.5 -25zM289 843
l-88 -69q-8 -5 -14.5 -9t-12.5 -4q-7 0 -12 5t-5 10t2 8.5t6 8.5l77 82q7 8 14.5 12.5t18.5 4.5h11q11 0 18.5 -4.5t15.5 -12.5l76 -81q5 -5 6.5 -9t1.5 -8q0 -5 -4.5 -10t-11.5 -5q-6 0 -12.5 3.5t-14.5 9.5l-90 65z" />
    <glyph glyph-name="uni0218" unicode="&#x218;" horiz-adv-x="562" 
d="M287 -10q-76 -1 -132 24t-107 75q-5 4 -8.5 10t-3.5 14q0 12 9.5 22t21.5 10t22 -10q39 -42 88.5 -64t106.5 -22q48 0 85.5 15t59.5 43t22 65q0 46 -25 74.5t-66 47t-91 33.5q-41 12 -78 27.5t-66 38t-45 55.5t-16 80q0 53 28 94t79.5 64.5t119.5 23.5q59 0 113.5 -20
t86.5 -59q15 -16 15 -29q0 -10 -10 -20t-22 -10q-10 0 -17 7q-17 21 -43 37.5t-57.5 25.5t-65.5 9q-47 0 -84.5 -14.5t-59 -41.5t-21.5 -65q0 -42 24 -69t63 -44.5t83 -32.5q43 -12 82.5 -27.5t70 -38.5t48 -58t17.5 -88q0 -51 -29 -92t-79.5 -65t-118.5 -25zM341 -107
q0 -20 -11 -37.5t-28.5 -28t-37.5 -10.5q-19 0 -27 6t-8 14q0 9 4.5 14t10.5 5q5 0 11.5 -2.5t17.5 -0.5q9 1 14 9t5 23q0 12 -10 12q-6 0 -9.5 -4t-12.5 -4q-12 -1 -19 8t-7 19q0 17 14 27t38 10q23 0 39 -15t16 -45z" />
    <glyph glyph-name="uni1E60" unicode="&#x1e60;" horiz-adv-x="562" 
d="M287 -10q-76 -1 -132 24t-107 75q-5 4 -8.5 10t-3.5 14q0 12 9.5 22t21.5 10t22 -10q39 -42 88.5 -64t106.5 -22q48 0 85.5 15t59.5 43t22 65q0 46 -25 74.5t-66 47t-91 33.5q-41 12 -78 27.5t-66 38t-45 55.5t-16 80q0 53 28 94t79.5 64.5t119.5 23.5q59 0 113.5 -20
t86.5 -59q15 -16 15 -29q0 -10 -10 -20t-22 -10q-10 0 -17 7q-17 21 -43 37.5t-57.5 25.5t-65.5 9q-47 0 -84.5 -14.5t-59 -41.5t-21.5 -65q0 -42 24 -69t63 -44.5t83 -32.5q43 -12 82.5 -27.5t70 -38.5t48 -58t17.5 -88q0 -51 -29 -92t-79.5 -65t-118.5 -25zM281 770
q-21 0 -31.5 10.5t-10.5 29.5v10q0 20 11.5 30t31.5 10q19 0 29.5 -10t10.5 -30v-10q0 -20 -10.5 -30t-30.5 -10z" />
    <glyph glyph-name="uni1E62" unicode="&#x1e62;" horiz-adv-x="562" 
d="M287 -10q-76 -1 -132 24t-107 75q-5 4 -8.5 10t-3.5 14q0 12 9.5 22t21.5 10t22 -10q39 -42 88.5 -64t106.5 -22q48 0 85.5 15t59.5 43t22 65q0 46 -25 74.5t-66 47t-91 33.5q-41 12 -78 27.5t-66 38t-45 55.5t-16 80q0 53 28 94t79.5 64.5t119.5 23.5q59 0 113.5 -20
t86.5 -59q15 -16 15 -29q0 -10 -10 -20t-22 -10q-10 0 -17 7q-17 21 -43 37.5t-57.5 25.5t-65.5 9q-47 0 -84.5 -14.5t-59 -41.5t-21.5 -65q0 -42 24 -69t63 -44.5t83 -32.5q43 -12 82.5 -27.5t70 -38.5t48 -58t17.5 -88q0 -51 -29 -92t-79.5 -65t-118.5 -25zM281 -139
q-21 0 -31.5 10t-10.5 29v11q0 19 11.5 29t30.5 10q20 0 30.5 -10t10.5 -29v-11q0 -19 -10.5 -29t-30.5 -10z" />
    <glyph glyph-name="uni1E68" unicode="&#x1e68;" horiz-adv-x="562" 
d="M287 -10q-76 -1 -132 24t-107 75q-5 4 -8.5 10t-3.5 14q0 12 9.5 22t21.5 10t22 -10q39 -42 88.5 -64t106.5 -22q48 0 85.5 15t59.5 43t22 65q0 46 -25 74.5t-66 47t-91 33.5q-41 12 -78 27.5t-66 38t-45 55.5t-16 80q0 53 28 94t79.5 64.5t119.5 23.5q59 0 113.5 -20
t86.5 -59q15 -16 15 -29q0 -10 -10 -20t-22 -10q-10 0 -17 7q-17 21 -43 37.5t-57.5 25.5t-65.5 9q-47 0 -84.5 -14.5t-59 -41.5t-21.5 -65q0 -42 24 -69t63 -44.5t83 -32.5q43 -12 82.5 -27.5t70 -38.5t48 -58t17.5 -88q0 -51 -29 -92t-79.5 -65t-118.5 -25zM281 -139
q-21 0 -31.5 10t-10.5 29v11q0 19 11.5 29t30.5 10q20 0 30.5 -10t10.5 -29v-11q0 -19 -10.5 -29t-30.5 -10zM281 770q-21 0 -31.5 10.5t-10.5 29.5v10q0 20 11.5 30t31.5 10q19 0 29.5 -10t10.5 -30v-10q0 -20 -10.5 -30t-30.5 -10z" />
    <glyph glyph-name="uni1E9E" unicode="&#x1e9e;" horiz-adv-x="706" 
d="M461 -10q-36 0 -67.5 9.5t-58 28.5t-48.5 47q-1 2 -5 9.5t-4 16.5q0 12 9 22t22 10q5 0 11.5 -2.5t11.5 -8.5q24 -32 57.5 -52t67.5 -20q38 0 68.5 14.5t49 41t18.5 61.5q-2 40 -20 66t-45.5 44t-58.5 34q-32 19 -62 39.5t-49 52.5t-19 80q0 37 15.5 66.5t43.5 51t67 34
t87 15.5l15 -30q-20 17 -46.5 28.5t-57 17.5t-67.5 6q-64 0 -109.5 -17t-74 -48t-41.5 -71.5t-13 -85.5l-2 -417q0 -14 -8 -22t-23 -8t-23 8t-8 22l2 408q0 54 15.5 104.5t51 91.5t92.5 65t138 24q57 0 108 -14t84 -36q28 -17 28 -38q0 -10 -5.5 -15t-14 -7.5t-19.5 -4.5
q-55 -8 -93 -24t-57.5 -39.5t-19.5 -54.5q0 -33 14.5 -55t38.5 -38t51 -30q26 -14 52 -29.5t48.5 -37.5t35.5 -54t13 -79q0 -48 -25 -88.5t-69 -65.5t-102 -26z" />
    <glyph glyph-name="uni018F" unicode="&#x18f;" horiz-adv-x="759" 
d="M379 -10q-64 0 -123 25.5t-105 71t-73.5 106.5t-29.5 133v19q0 15 10 23t23 8h596l5 -60h-571q4 -55 27 -103.5t60 -85t83 -57t98 -20.5q54 0 102.5 22t85.5 62t58.5 94.5t21.5 120.5q0 67 -21.5 122t-58.5 95t-85.5 62t-103.5 22q-75 0 -132 -26t-103 -82
q-9 -8 -19.5 -9.5t-20.5 5.5q-11 8 -12.5 21.5t8.5 23.5q54 64 121.5 95.5t157.5 31.5q69 0 129.5 -28t106 -77.5t71.5 -114.5t26 -140t-25.5 -140t-71.5 -114.5t-106 -77.5t-129 -28z" />
    <glyph glyph-name="T" unicode="T" horiz-adv-x="604" 
d="M302 0q-14 0 -22.5 9t-8.5 21v637h62v-637q0 -12 -9 -21t-22 -9zM64 643q-12 0 -21 8t-9 21q0 12 9 20t21 8h476q12 0 21 -8t9 -21t-9 -20.5t-21 -7.5h-476z" />
    <glyph glyph-name="Tbar" unicode="&#x166;" horiz-adv-x="604" 
d="M223 302q-14 0 -22 7.5t-8 21.5q0 12 8 19.5t22 7.5h164q14 0 22 -7.5t8 -20.5t-8 -20.5t-22 -7.5h-164zM302 0q-14 0 -22.5 9t-8.5 21v637h62v-637q0 -12 -9 -21t-22 -9zM64 643q-12 0 -21 8t-9 21q0 12 9 20t21 8h476q12 0 21 -8t9 -21t-9 -20.5t-21 -7.5h-476z" />
    <glyph glyph-name="Tcaron" unicode="&#x164;" horiz-adv-x="604" 
d="M302 0q-14 0 -22.5 9t-8.5 21v637h62v-637q0 -12 -9 -21t-22 -9zM64 643q-12 0 -21 8t-9 21q0 12 9 20t21 8h476q12 0 21 -8t9 -21t-9 -20.5t-21 -7.5h-476zM293 802l88 70q8 7 15 10t12 3q8 0 12.5 -4.5t4.5 -10.5q0 -4 -2 -8t-6 -9l-77 -82q-6 -9 -14 -13t-19 -4h-11
q-11 0 -19 4t-15 13l-76 81q-5 5 -6.5 9t-1.5 8q0 6 4.5 10.5t11.5 4.5q11 0 27 -12l90 -67z" />
    <glyph glyph-name="uni0162" unicode="&#x162;" horiz-adv-x="604" 
d="M302 0q-14 0 -22.5 9t-8.5 21v637h62v-637q0 -12 -9 -21t-22 -9zM64 643q-12 0 -21 8t-9 21q0 12 9 20t21 8h476q12 0 21 -8t9 -21t-9 -20.5t-21 -7.5h-476zM235 -143q-6 0 -16 4t-18 11.5t-8 15.5q0 11 7 18l87 109h38l-64 -139q-8 -19 -26 -19z" />
    <glyph glyph-name="uni021A" unicode="&#x21a;" horiz-adv-x="604" 
d="M302 0q-14 0 -22.5 9t-8.5 21v637h62v-637q0 -12 -9 -21t-22 -9zM64 643q-12 0 -21 8t-9 21q0 12 9 20t21 8h476q12 0 21 -8t9 -21t-9 -20.5t-21 -7.5h-476zM361 -107q0 -20 -11 -37.5t-28.5 -28t-37.5 -10.5q-19 0 -27 6t-8 14q0 9 4.5 14t10.5 5q5 0 11.5 -2.5
t17.5 -0.5q9 1 14 9t5 23q0 12 -10 12q-6 0 -9.5 -4t-12.5 -4q-12 -1 -19 8t-7 19q0 17 14 27t38 10q23 0 39 -15t16 -45z" />
    <glyph glyph-name="uni1E6C" unicode="&#x1e6c;" horiz-adv-x="604" 
d="M302 0q-14 0 -22.5 9t-8.5 21v637h62v-637q0 -12 -9 -21t-22 -9zM64 643q-12 0 -21 8t-9 21q0 12 9 20t21 8h476q12 0 21 -8t9 -21t-9 -20.5t-21 -7.5h-476zM302 -139q-21 0 -31.5 10t-10.5 29v11q0 19 11.5 29t30.5 10q20 0 30.5 -10t10.5 -29v-11q0 -19 -10.5 -29
t-30.5 -10z" />
    <glyph glyph-name="uni1E6E" unicode="&#x1e6e;" horiz-adv-x="604" 
d="M302 0q-14 0 -22.5 9t-8.5 21v637h62v-637q0 -12 -9 -21t-22 -9zM64 643q-12 0 -21 8t-9 21q0 12 9 20t21 8h476q12 0 21 -8t9 -21t-9 -20.5t-21 -7.5h-476zM203 -126q-28 0 -28 25t28 25h210q28 0 28 -25t-28 -25h-210z" />
    <glyph glyph-name="U" unicode="U" horiz-adv-x="713" 
d="M589 700q14 0 22 -8.5t8 -21.5v-414q0 -74 -35 -134t-94 -95.5t-133 -35.5t-133.5 35.5t-94.5 95.5t-35 134v414q0 13 8.5 21.5t23.5 8.5q12 0 21 -8.5t9 -21.5v-414q0 -58 27.5 -104t73.5 -73.5t100 -27.5q56 0 102 27.5t73.5 73.5t27.5 104v414q0 13 8 21.5t21 8.5z
" />
    <glyph glyph-name="Uacute" unicode="&#xda;" horiz-adv-x="713" 
d="M589 700q14 0 22 -8.5t8 -21.5v-414q0 -74 -35 -134t-94 -95.5t-133 -35.5t-133.5 35.5t-94.5 95.5t-35 134v414q0 13 8.5 21.5t23.5 8.5q12 0 21 -8.5t9 -21.5v-414q0 -58 27.5 -104t73.5 -73.5t100 -27.5q56 0 102 27.5t73.5 73.5t27.5 104v414q0 13 8 21.5t21 8.5z
M360 746q-10 0 -14.5 5.5t-4.5 12.5q0 5 2.5 9.5t7.5 8.5l89 69q6 4 13 7.5t16 3.5q13 0 21.5 -8.5t8.5 -21.5q0 -10 -5 -18t-14 -13l-98 -49q-5 -2 -10.5 -4t-11.5 -2z" />
    <glyph glyph-name="Ubreve" unicode="&#x16c;" horiz-adv-x="713" 
d="M589 700q14 0 22 -8.5t8 -21.5v-414q0 -74 -35 -134t-94 -95.5t-133 -35.5t-133.5 35.5t-94.5 95.5t-35 134v414q0 13 8.5 21.5t23.5 8.5q12 0 21 -8.5t9 -21.5v-414q0 -58 27.5 -104t73.5 -73.5t100 -27.5q56 0 102 27.5t73.5 73.5t27.5 104v414q0 13 8 21.5t21 8.5z
M357 774q-51 0 -87 26.5t-50 74.5q-4 14 1 22t18 8q12 0 17.5 -5.5t12.5 -16.5q13 -28 34.5 -43t53.5 -15q62 0 88 58q6 11 12.5 16t17.5 5q13 0 18 -7t1 -22q-13 -48 -49 -74.5t-88 -26.5z" />
    <glyph glyph-name="uni01D3" unicode="&#x1d3;" horiz-adv-x="713" 
d="M589 700q14 0 22 -8.5t8 -21.5v-414q0 -74 -35 -134t-94 -95.5t-133 -35.5t-133.5 35.5t-94.5 95.5t-35 134v414q0 13 8.5 21.5t23.5 8.5q12 0 21 -8.5t9 -21.5v-414q0 -58 27.5 -104t73.5 -73.5t100 -27.5q56 0 102 27.5t73.5 73.5t27.5 104v414q0 13 8 21.5t21 8.5z
M348 802l88 70q8 7 15 10t12 3q8 0 12.5 -4.5t4.5 -10.5q0 -4 -2 -8t-6 -9l-77 -82q-6 -9 -14 -13t-19 -4h-11q-11 0 -19 4t-15 13l-76 81q-5 5 -6.5 9t-1.5 8q0 6 4.5 10.5t11.5 4.5q11 0 27 -12l90 -67z" />
    <glyph glyph-name="Ucircumflex" unicode="&#xdb;" horiz-adv-x="713" 
d="M589 700q14 0 22 -8.5t8 -21.5v-414q0 -74 -35 -134t-94 -95.5t-133 -35.5t-133.5 35.5t-94.5 95.5t-35 134v414q0 13 8.5 21.5t23.5 8.5q12 0 21 -8.5t9 -21.5v-414q0 -58 27.5 -104t73.5 -73.5t100 -27.5q56 0 102 27.5t73.5 73.5t27.5 104v414q0 13 8 21.5t21 8.5z
M364 843l-88 -69q-8 -5 -14.5 -9t-12.5 -4q-7 0 -12 5t-5 10t2 8.5t6 8.5l77 82q7 8 14.5 12.5t18.5 4.5h11q11 0 18.5 -4.5t15.5 -12.5l76 -81q5 -5 6.5 -9t1.5 -8q0 -5 -4.5 -10t-11.5 -5q-6 0 -12.5 3.5t-14.5 9.5l-90 65z" />
    <glyph glyph-name="uni0214" unicode="&#x214;" horiz-adv-x="713" 
d="M589 700q14 0 22 -8.5t8 -21.5v-414q0 -74 -35 -134t-94 -95.5t-133 -35.5t-133.5 35.5t-94.5 95.5t-35 134v414q0 13 8.5 21.5t23.5 8.5q12 0 21 -8.5t9 -21.5v-414q0 -58 27.5 -104t73.5 -73.5t100 -27.5q56 0 102 27.5t73.5 73.5t27.5 104v414q0 13 8 21.5t21 8.5z
M308 755q-6 0 -11 2.5t-11 4.5l-97 48q-20 11 -20 32q0 12 8.5 21t21.5 9q9 0 16.5 -3.5t12.5 -8.5l89 -69q5 -4 7.5 -8t2.5 -10q0 -7 -4.5 -12.5t-14.5 -5.5zM476 755q-6 0 -11.5 2t-10.5 4l-98 49q-19 11 -19 31q0 13 8.5 21.5t21.5 8.5q9 0 16 -3.5t13 -7.5l89 -69
q5 -4 7.5 -8.5t2.5 -9.5q0 -7 -4.5 -12.5t-14.5 -5.5z" />
    <glyph glyph-name="Udieresis" unicode="&#xdc;" horiz-adv-x="713" 
d="M589 700q14 0 22 -8.5t8 -21.5v-414q0 -74 -35 -134t-94 -95.5t-133 -35.5t-133.5 35.5t-94.5 95.5t-35 134v414q0 13 8.5 21.5t23.5 8.5q12 0 21 -8.5t9 -21.5v-414q0 -58 27.5 -104t73.5 -73.5t100 -27.5q56 0 102 27.5t73.5 73.5t27.5 104v414q0 13 8 21.5t21 8.5z
M443 775q-19 0 -30 10.5t-11 29.5v10q0 19 11.5 29.5t30.5 10.5t30 -10.5t11 -29.5v-10q0 -20 -11 -30t-31 -10zM271 775q-19 0 -30 10.5t-11 29.5v10q0 19 11.5 29.5t30.5 10.5t30 -10.5t11 -29.5v-10q0 -20 -11 -30t-31 -10z" />
    <glyph glyph-name="uni1EE4" unicode="&#x1ee4;" horiz-adv-x="713" 
d="M589 700q14 0 22 -8.5t8 -21.5v-414q0 -74 -35 -134t-94 -95.5t-133 -35.5t-133.5 35.5t-94.5 95.5t-35 134v414q0 13 8.5 21.5t23.5 8.5q12 0 21 -8.5t9 -21.5v-414q0 -58 27.5 -104t73.5 -73.5t100 -27.5q56 0 102 27.5t73.5 73.5t27.5 104v414q0 13 8 21.5t21 8.5z
M357 -139q-21 0 -31.5 10t-10.5 29v11q0 19 11.5 29t30.5 10q20 0 30.5 -10t10.5 -29v-11q0 -19 -10.5 -29t-30.5 -10z" />
    <glyph glyph-name="Ugrave" unicode="&#xd9;" horiz-adv-x="713" 
d="M589 700q14 0 22 -8.5t8 -21.5v-414q0 -74 -35 -134t-94 -95.5t-133 -35.5t-133.5 35.5t-94.5 95.5t-35 134v414q0 13 8.5 21.5t23.5 8.5q12 0 21 -8.5t9 -21.5v-414q0 -58 27.5 -104t73.5 -73.5t100 -27.5q56 0 102 27.5t73.5 73.5t27.5 104v414q0 13 8 21.5t21 8.5z
M357 747q-6 0 -11 2t-11 4l-97 49q-20 11 -20 31q0 13 8.5 21.5t21.5 8.5q9 0 16.5 -3.5t12.5 -7.5l89 -69q5 -4 7.5 -8.5t2.5 -9.5q0 -7 -4.5 -12.5t-14.5 -5.5z" />
    <glyph glyph-name="uni1EE6" unicode="&#x1ee6;" horiz-adv-x="713" 
d="M589 700q14 0 22 -8.5t8 -21.5v-414q0 -74 -35 -134t-94 -95.5t-133 -35.5t-133.5 35.5t-94.5 95.5t-35 134v414q0 13 8.5 21.5t23.5 8.5q12 0 21 -8.5t9 -21.5v-414q0 -58 27.5 -104t73.5 -73.5t100 -27.5q56 0 102 27.5t73.5 73.5t27.5 104v414q0 13 8 21.5t21 8.5z
M280 903q14 13 33 22t41 9q32 0 49.5 -12t25 -29.5t7.5 -32.5q0 -17 -9 -30.5t-25 -29.5q-5 -6 -8.5 -12t-3.5 -15q-1 -8 -7.5 -12t-15.5 -4q-8 0 -13.5 5t-5.5 12q0 9 2.5 19.5t11.5 20.5q13 13 21 23t8 22q0 13 -10.5 21.5t-25.5 8.5q-14 0 -25.5 -5.5t-20.5 -12.5
q-7 -7 -16 -7.5t-17 7.5q-6 7 -5 15.5t9 16.5z" />
    <glyph glyph-name="Uhorn" unicode="&#x1af;" horiz-adv-x="713" 
d="M589 700q14 0 22 -8.5t8 -21.5v-414q0 -74 -35 -134t-94 -95.5t-133 -35.5t-133.5 35.5t-94.5 95.5t-35 134v414q0 13 8.5 21.5t23.5 8.5q12 0 21 -8.5t9 -21.5v-414q0 -58 27.5 -104t73.5 -73.5t100 -27.5q56 0 102 27.5t73.5 73.5t27.5 104v414q0 13 8 21.5t21 8.5z
M586 647v53q47 0 70.5 17.5t23.5 59.5q0 14 6.5 25t19.5 11q16 0 21 -12t5 -24q0 -39 -17.5 -68.5t-49.5 -45.5t-79 -16z" />
    <glyph glyph-name="uni1EE8" unicode="&#x1ee8;" horiz-adv-x="713" 
d="M589 700q14 0 22 -8.5t8 -21.5v-414q0 -74 -35 -134t-94 -95.5t-133 -35.5t-133.5 35.5t-94.5 95.5t-35 134v414q0 13 8.5 21.5t23.5 8.5q12 0 21 -8.5t9 -21.5v-414q0 -58 27.5 -104t73.5 -73.5t100 -27.5q56 0 102 27.5t73.5 73.5t27.5 104v414q0 13 8 21.5t21 8.5z
M586 647v53q47 0 70.5 17.5t23.5 59.5q0 14 6.5 25t19.5 11q16 0 21 -12t5 -24q0 -39 -17.5 -68.5t-49.5 -45.5t-79 -16zM362 746q-10 0 -14.5 5.5t-4.5 12.5q0 5 2.5 9.5t7.5 8.5l89 69q6 4 13 7.5t16 3.5q13 0 21.5 -8.5t8.5 -21.5q0 -10 -5 -18t-14 -13l-98 -49
q-5 -2 -10.5 -4t-11.5 -2z" />
    <glyph glyph-name="uni1EF0" unicode="&#x1ef0;" horiz-adv-x="713" 
d="M589 700q14 0 22 -8.5t8 -21.5v-414q0 -74 -35 -134t-94 -95.5t-133 -35.5t-133.5 35.5t-94.5 95.5t-35 134v414q0 13 8.5 21.5t23.5 8.5q12 0 21 -8.5t9 -21.5v-414q0 -58 27.5 -104t73.5 -73.5t100 -27.5q56 0 102 27.5t73.5 73.5t27.5 104v414q0 13 8 21.5t21 8.5z
M586 647v53q47 0 70.5 17.5t23.5 59.5q0 14 6.5 25t19.5 11q16 0 21 -12t5 -24q0 -39 -17.5 -68.5t-49.5 -45.5t-79 -16zM359 -139q-21 0 -31.5 10t-10.5 29v11q0 19 11.5 29t30.5 10q20 0 30.5 -10t10.5 -29v-11q0 -19 -10.5 -29t-30.5 -10z" />
    <glyph glyph-name="uni1EEA" unicode="&#x1eea;" horiz-adv-x="713" 
d="M589 700q14 0 22 -8.5t8 -21.5v-414q0 -74 -35 -134t-94 -95.5t-133 -35.5t-133.5 35.5t-94.5 95.5t-35 134v414q0 13 8.5 21.5t23.5 8.5q12 0 21 -8.5t9 -21.5v-414q0 -58 27.5 -104t73.5 -73.5t100 -27.5q56 0 102 27.5t73.5 73.5t27.5 104v414q0 13 8 21.5t21 8.5z
M586 647v53q47 0 70.5 17.5t23.5 59.5q0 14 6.5 25t19.5 11q16 0 21 -12t5 -24q0 -39 -17.5 -68.5t-49.5 -45.5t-79 -16zM359 747q-6 0 -11 2t-11 4l-97 49q-20 11 -20 31q0 13 8.5 21.5t21.5 8.5q9 0 16.5 -3.5t12.5 -7.5l89 -69q5 -4 7.5 -8.5t2.5 -9.5q0 -7 -4.5 -12.5
t-14.5 -5.5z" />
    <glyph glyph-name="uni1EEC" unicode="&#x1eec;" horiz-adv-x="713" 
d="M589 700q14 0 22 -8.5t8 -21.5v-414q0 -74 -35 -134t-94 -95.5t-133 -35.5t-133.5 35.5t-94.5 95.5t-35 134v414q0 13 8.5 21.5t23.5 8.5q12 0 21 -8.5t9 -21.5v-414q0 -58 27.5 -104t73.5 -73.5t100 -27.5q56 0 102 27.5t73.5 73.5t27.5 104v414q0 13 8 21.5t21 8.5z
M586 647v53q47 0 70.5 17.5t23.5 59.5q0 14 6.5 25t19.5 11q16 0 21 -12t5 -24q0 -39 -17.5 -68.5t-49.5 -45.5t-79 -16zM282 903q14 13 33 22t41 9q32 0 49.5 -12t25 -29.5t7.5 -32.5q0 -17 -9 -30.5t-25 -29.5q-5 -6 -8.5 -12t-3.5 -15q-1 -8 -7.5 -12t-15.5 -4
q-8 0 -13.5 5t-5.5 12q0 9 2.5 19.5t11.5 20.5q13 13 21 23t8 22q0 13 -10.5 21.5t-25.5 8.5q-14 0 -25.5 -5.5t-20.5 -12.5q-7 -7 -16 -7.5t-17 7.5q-6 7 -5 15.5t9 16.5z" />
    <glyph glyph-name="uni1EEE" unicode="&#x1eee;" horiz-adv-x="713" 
d="M589 700q14 0 22 -8.5t8 -21.5v-414q0 -74 -35 -134t-94 -95.5t-133 -35.5t-133.5 35.5t-94.5 95.5t-35 134v414q0 13 8.5 21.5t23.5 8.5q12 0 21 -8.5t9 -21.5v-414q0 -58 27.5 -104t73.5 -73.5t100 -27.5q56 0 102 27.5t73.5 73.5t27.5 104v414q0 13 8 21.5t21 8.5z
M586 647v53q47 0 70.5 17.5t23.5 59.5q0 14 6.5 25t19.5 11q16 0 21 -12t5 -24q0 -39 -17.5 -68.5t-49.5 -45.5t-79 -16zM230 771q-13 0 -19.5 11.5t-3.5 32.5q7 32 31.5 49.5t55.5 17.5q25 0 50 -14.5t48.5 -29t40.5 -14.5q14 0 22.5 11t10.5 28q-1 12 5.5 19t16.5 7
q15 0 21 -12t3 -31q-3 -22 -14.5 -38t-28 -24.5t-38.5 -8.5q-24 0 -49.5 14.5t-49.5 28.5t-41 14q-14 0 -24 -9.5t-15 -29.5q1 -10 -6.5 -16t-15.5 -6z" />
    <glyph glyph-name="Uhungarumlaut" unicode="&#x170;" horiz-adv-x="713" 
d="M589 700q14 0 22 -8.5t8 -21.5v-414q0 -74 -35 -134t-94 -95.5t-133 -35.5t-133.5 35.5t-94.5 95.5t-35 134v414q0 13 8.5 21.5t23.5 8.5q12 0 21 -8.5t9 -21.5v-414q0 -58 27.5 -104t73.5 -73.5t100 -27.5q56 0 102 27.5t73.5 73.5t27.5 104v414q0 13 8 21.5t21 8.5z
M257 746q-15 0 -15 15q0 8 7 19l57 85q4 8 11.5 14t19.5 6q14 0 24 -8t10 -23q0 -6 -3 -11t-7 -10l-69 -70q-7 -7 -15.5 -12t-19.5 -5zM414 746q-15 0 -15 15q0 8 7 19l57 86q4 7 11.5 12.5t19.5 5.5t22.5 -7t10.5 -22q0 -7 -2.5 -12t-6.5 -10l-69 -70q-7 -7 -15.5 -12
t-19.5 -5z" />
    <glyph glyph-name="uni0216" unicode="&#x216;" horiz-adv-x="713" 
d="M589 700q14 0 22 -8.5t8 -21.5v-414q0 -74 -35 -134t-94 -95.5t-133 -35.5t-133.5 35.5t-94.5 95.5t-35 134v414q0 13 8.5 21.5t23.5 8.5q12 0 21 -8.5t9 -21.5v-414q0 -58 27.5 -104t73.5 -73.5t100 -27.5q56 0 102 27.5t73.5 73.5t27.5 104v414q0 13 8 21.5t21 8.5z
M356 865q35 0 63 -13t46 -35.5t21 -49.5q3 -12 -4 -19.5t-18 -7.5q-12 0 -18.5 6.5t-11.5 17.5q-7 25 -28.5 38t-49.5 13q-29 0 -50.5 -13t-27.5 -38q-4 -11 -11 -17.5t-20 -6.5q-11 0 -17.5 7.5t-4.5 18.5q3 28 21 50.5t46.5 35.5t63.5 13z" />
    <glyph glyph-name="Umacron" unicode="&#x16a;" horiz-adv-x="713" 
d="M589 700q14 0 22 -8.5t8 -21.5v-414q0 -74 -35 -134t-94 -95.5t-133 -35.5t-133.5 35.5t-94.5 95.5t-35 134v414q0 13 8.5 21.5t23.5 8.5q12 0 21 -8.5t9 -21.5v-414q0 -58 27.5 -104t73.5 -73.5t100 -27.5q56 0 102 27.5t73.5 73.5t27.5 104v414q0 13 8 21.5t21 8.5z
M233 788q-29 0 -29 25q0 26 29 26h255q29 0 29 -26q0 -25 -29 -25h-255z" />
    <glyph glyph-name="uni1E7A" unicode="&#x1e7a;" horiz-adv-x="713" 
d="M589 700q14 0 22 -8.5t8 -21.5v-414q0 -74 -35 -134t-94 -95.5t-133 -35.5t-133.5 35.5t-94.5 95.5t-35 134v414q0 13 8.5 21.5t23.5 8.5q12 0 21 -8.5t9 -21.5v-414q0 -58 27.5 -104t73.5 -73.5t100 -27.5q56 0 102 27.5t73.5 73.5t27.5 104v414q0 13 8 21.5t21 8.5z
M233 788q-29 0 -29 25q0 26 29 26h255q29 0 29 -26q0 -25 -29 -25h-255zM443 929q-19 0 -30 10.5t-11 29.5v10q0 19 11.5 29.5t30.5 10.5t30 -10.5t11 -29.5v-10q0 -20 -11 -30t-31 -10zM271 929q-19 0 -30 10.5t-11 29.5v10q0 19 11.5 29.5t30.5 10.5t30 -10.5t11 -29.5
v-10q0 -20 -11 -30t-31 -10z" />
    <glyph glyph-name="Uogonek" unicode="&#x172;" horiz-adv-x="713" 
d="M432 -190q-37 0 -66.5 25t-29.5 70q0 28 10.5 50t27 38.5t36.5 27.5t39 17l-54 -44q-9 -1 -18.5 -2t-19.5 -1q-74 0 -133.5 35.5t-94.5 95.5t-35 134v414q0 13 8.5 21.5t23.5 8.5q13 0 21.5 -8.5t8.5 -21.5v-414q0 -58 27.5 -104t73.5 -73.5t100 -27.5q57 0 103 27.5
t73 73.5t27 104v414q0 13 8.5 21.5t20.5 8.5q14 0 22 -8.5t8 -21.5v-414q0 -47 -15 -91.5t-44 -80.5t-71 -57q-20 -11 -43.5 -25.5t-40 -34.5t-16.5 -50q0 -27 15.5 -41.5t33.5 -14.5q22 0 29 10q6 9 12.5 13t13.5 4q10 0 16 -6.5t6 -16.5q0 -14 -11 -27t-30 -20.5t-42 -7.5
z" />
    <glyph glyph-name="Uring" unicode="&#x16e;" horiz-adv-x="713" 
d="M589 700q14 0 22 -8.5t8 -21.5v-414q0 -74 -35 -134t-94 -95.5t-133 -35.5t-133.5 35.5t-94.5 95.5t-35 134v414q0 13 8.5 21.5t23.5 8.5q12 0 21 -8.5t9 -21.5v-414q0 -58 27.5 -104t73.5 -73.5t100 -27.5q56 0 102 27.5t73.5 73.5t27.5 104v414q0 13 8 21.5t21 8.5z
M357 743q-27 0 -50.5 13t-37.5 35.5t-14 48.5q0 28 14 50t37.5 35.5t50.5 13.5t50.5 -13.5t37.5 -35.5t14 -50q0 -26 -14 -48.5t-37.5 -35.5t-50.5 -13zM357 784q24 0 41 16.5t17 39.5q0 25 -17 41t-41 16q-23 0 -40 -16t-17 -41q0 -23 17 -39.5t40 -16.5z" />
    <glyph glyph-name="Utilde" unicode="&#x168;" horiz-adv-x="713" 
d="M589 700q14 0 22 -8.5t8 -21.5v-414q0 -74 -35 -134t-94 -95.5t-133 -35.5t-133.5 35.5t-94.5 95.5t-35 134v414q0 13 8.5 21.5t23.5 8.5q12 0 21 -8.5t9 -21.5v-414q0 -58 27.5 -104t73.5 -73.5t100 -27.5q56 0 102 27.5t73.5 73.5t27.5 104v414q0 13 8 21.5t21 8.5z
M228 771q-13 0 -19.5 11.5t-3.5 32.5q7 32 31.5 49.5t55.5 17.5q25 0 50 -14.5t48.5 -29t40.5 -14.5q14 0 22.5 11t10.5 28q-1 12 5.5 19t16.5 7q15 0 21 -12t3 -31q-3 -22 -14.5 -38t-28 -24.5t-38.5 -8.5q-24 0 -49.5 14.5t-49.5 28.5t-41 14q-14 0 -24 -9.5t-15 -29.5
q1 -10 -6.5 -16t-15.5 -6z" />
    <glyph glyph-name="uni1E78" unicode="&#x1e78;" horiz-adv-x="713" 
d="M589 700q14 0 22 -8.5t8 -21.5v-414q0 -74 -35 -134t-94 -95.5t-133 -35.5t-133.5 35.5t-94.5 95.5t-35 134v414q0 13 8.5 21.5t23.5 8.5q12 0 21 -8.5t9 -21.5v-414q0 -58 27.5 -104t73.5 -73.5t100 -27.5q56 0 102 27.5t73.5 73.5t27.5 104v414q0 13 8 21.5t21 8.5z
M228 771q-13 0 -19.5 11.5t-3.5 32.5q7 32 31.5 49.5t55.5 17.5q25 0 50 -14.5t48.5 -29t40.5 -14.5q14 0 22.5 11t10.5 28q-1 12 5.5 19t16.5 7q15 0 21 -12t3 -31q-3 -22 -14.5 -38t-28 -24.5t-38.5 -8.5q-24 0 -49.5 14.5t-49.5 28.5t-41 14q-14 0 -24 -9.5t-15 -29.5
q1 -10 -6.5 -16t-15.5 -6zM360 938q-10 0 -14.5 5.5t-4.5 12.5q0 5 2.5 9.5t7.5 8.5l89 69q6 4 13 7.5t16 3.5q13 0 21.5 -8.5t8.5 -21.5q0 -10 -5 -18t-14 -13l-98 -49q-5 -2 -10.5 -4t-11.5 -2z" />
    <glyph glyph-name="V" unicode="V" horiz-adv-x="665" 
d="M600 701q14 0 22.5 -8t8.5 -20q0 -7 -3 -15l-267 -638q-5 -10 -13 -15t-16 -5q-9 0 -17 5t-11 14l-266 637q-1 3 -2 7t-1 9q0 13 9.5 21t19.5 8q21 0 30 -22l250 -598h-18l246 600q10 20 28 20z" />
    <glyph glyph-name="W" unicode="W" horiz-adv-x="966" 
d="M904 702q13 0 22.5 -7.5t9.5 -22.5q0 -5 -2 -13l-221 -640q-3 -9 -11 -14t-16 -5q-10 0 -18 4.5t-12 14.5l-177 438l8 -2l-177 -436q-4 -10 -12.5 -14.5t-17.5 -4.5q-8 0 -15.5 5t-10.5 14l-221 640q-3 8 -3 12q0 15 11 23t22 8q10 0 18 -5t11 -14l201 -586l-11 -1
l174 434q3 9 10.5 14.5t17.5 4.5q10 1 17.5 -4.5t11.5 -14.5l172 -432l-11 -4l200 589q3 9 11 14t19 5z" />
    <glyph glyph-name="Wacute" unicode="&#x1e82;" horiz-adv-x="966" 
d="M904 702q13 0 22.5 -7.5t9.5 -22.5q0 -5 -2 -13l-221 -640q-3 -9 -11 -14t-16 -5q-10 0 -18 4.5t-12 14.5l-177 438l8 -2l-177 -436q-4 -10 -12.5 -14.5t-17.5 -4.5q-8 0 -15.5 5t-10.5 14l-221 640q-3 8 -3 12q0 15 11 23t22 8q10 0 18 -5t11 -14l201 -586l-11 -1
l174 434q3 9 10.5 14.5t17.5 4.5q10 1 17.5 -4.5t11.5 -14.5l172 -432l-11 -4l200 589q3 9 11 14t19 5zM486 746q-10 0 -14.5 5.5t-4.5 12.5q0 5 2.5 9.5t7.5 8.5l89 69q6 4 13 7.5t16 3.5q13 0 21.5 -8.5t8.5 -21.5q0 -10 -5 -18t-14 -13l-98 -49q-5 -2 -10.5 -4t-11.5 -2z
" />
    <glyph glyph-name="Wcircumflex" unicode="&#x174;" horiz-adv-x="966" 
d="M904 702q13 0 22.5 -7.5t9.5 -22.5q0 -5 -2 -13l-221 -640q-3 -9 -11 -14t-16 -5q-10 0 -18 4.5t-12 14.5l-177 438l8 -2l-177 -436q-4 -10 -12.5 -14.5t-17.5 -4.5q-8 0 -15.5 5t-10.5 14l-221 640q-3 8 -3 12q0 15 11 23t22 8q10 0 18 -5t11 -14l201 -586l-11 -1
l174 434q3 9 10.5 14.5t17.5 4.5q10 1 17.5 -4.5t11.5 -14.5l172 -432l-11 -4l200 589q3 9 11 14t19 5zM491 843l-88 -69q-8 -5 -14.5 -9t-12.5 -4q-7 0 -12 5t-5 10t2 8.5t6 8.5l77 82q7 8 14.5 12.5t18.5 4.5h11q11 0 18.5 -4.5t15.5 -12.5l76 -81q5 -5 6.5 -9t1.5 -8
q0 -5 -4.5 -10t-11.5 -5q-6 0 -12.5 3.5t-14.5 9.5l-90 65z" />
    <glyph glyph-name="Wdieresis" unicode="&#x1e84;" horiz-adv-x="966" 
d="M904 702q13 0 22.5 -7.5t9.5 -22.5q0 -5 -2 -13l-221 -640q-3 -9 -11 -14t-16 -5q-10 0 -18 4.5t-12 14.5l-177 438l8 -2l-177 -436q-4 -10 -12.5 -14.5t-17.5 -4.5q-8 0 -15.5 5t-10.5 14l-221 640q-3 8 -3 12q0 15 11 23t22 8q10 0 18 -5t11 -14l201 -586l-11 -1
l174 434q3 9 10.5 14.5t17.5 4.5q10 1 17.5 -4.5t11.5 -14.5l172 -432l-11 -4l200 589q3 9 11 14t19 5zM569 775q-19 0 -30 10.5t-11 29.5v10q0 19 11.5 29.5t30.5 10.5t30 -10.5t11 -29.5v-10q0 -20 -11 -30t-31 -10zM397 775q-19 0 -30 10.5t-11 29.5v10q0 19 11.5 29.5
t30.5 10.5t30 -10.5t11 -29.5v-10q0 -20 -11 -30t-31 -10z" />
    <glyph glyph-name="Wgrave" unicode="&#x1e80;" horiz-adv-x="966" 
d="M904 702q13 0 22.5 -7.5t9.5 -22.5q0 -5 -2 -13l-221 -640q-3 -9 -11 -14t-16 -5q-10 0 -18 4.5t-12 14.5l-177 438l8 -2l-177 -436q-4 -10 -12.5 -14.5t-17.5 -4.5q-8 0 -15.5 5t-10.5 14l-221 640q-3 8 -3 12q0 15 11 23t22 8q10 0 18 -5t11 -14l201 -586l-11 -1
l174 434q3 9 10.5 14.5t17.5 4.5q10 1 17.5 -4.5t11.5 -14.5l172 -432l-11 -4l200 589q3 9 11 14t19 5zM483 747q-6 0 -11 2t-11 4l-97 49q-20 11 -20 31q0 13 8.5 21.5t21.5 8.5q9 0 16.5 -3.5t12.5 -7.5l89 -69q5 -4 7.5 -8.5t2.5 -9.5q0 -7 -4.5 -12.5t-14.5 -5.5z" />
    <glyph glyph-name="X" unicode="X" horiz-adv-x="606" 
d="M543 703q12 0 20.5 -7.5t8.5 -18.5q0 -10 -7 -19l-230 -313l-33 49l217 296q10 13 24 13zM65 703q16 0 25 -12l475 -646q7 -9 7 -18q0 -14 -10 -22t-21 -8q-16 0 -24 12l-476 646q-7 8 -7 18q0 13 9.5 21.5t21.5 8.5zM62 -3q-13 0 -20 8.5t-7 17.5t7 20l230 313l32 -50
l-218 -296q-9 -13 -24 -13z" />
    <glyph glyph-name="Y" unicode="Y" horiz-adv-x="559" 
d="M511 704q13 0 21.5 -9.5t8.5 -20.5q0 -5 -1.5 -9.5t-4.5 -9.5l-235 -323l12 39v-341q0 -12 -9 -21t-22 -9t-21.5 9t-8.5 21v334l5 -24l-229 313q-4 5 -6 10.5t-2 10.5q0 13 10.5 21.5t21.5 8.5q15 0 25 -14l215 -293l-15 2l209 291q10 14 26 14z" />
    <glyph glyph-name="Yacute" unicode="&#xdd;" horiz-adv-x="559" 
d="M511 704q13 0 21.5 -9.5t8.5 -20.5q0 -5 -1.5 -9.5t-4.5 -9.5l-235 -323l12 39v-341q0 -12 -9 -21t-22 -9t-21.5 9t-8.5 21v334l5 -24l-229 313q-4 5 -6 10.5t-2 10.5q0 13 10.5 21.5t21.5 8.5q15 0 25 -14l215 -293l-15 2l209 291q10 14 26 14zM283 746q-10 0 -14.5 5.5
t-4.5 12.5q0 5 2.5 9.5t7.5 8.5l89 69q6 4 13 7.5t16 3.5q13 0 21.5 -8.5t8.5 -21.5q0 -10 -5 -18t-14 -13l-98 -49q-5 -2 -10.5 -4t-11.5 -2z" />
    <glyph glyph-name="Ycircumflex" unicode="&#x176;" horiz-adv-x="559" 
d="M511 704q13 0 21.5 -9.5t8.5 -20.5q0 -5 -1.5 -9.5t-4.5 -9.5l-235 -323l12 39v-341q0 -12 -9 -21t-22 -9t-21.5 9t-8.5 21v334l5 -24l-229 313q-4 5 -6 10.5t-2 10.5q0 13 10.5 21.5t21.5 8.5q15 0 25 -14l215 -293l-15 2l209 291q10 14 26 14zM288 843l-88 -69
q-8 -5 -14.5 -9t-12.5 -4q-7 0 -12 5t-5 10t2 8.5t6 8.5l77 82q7 8 14.5 12.5t18.5 4.5h11q11 0 18.5 -4.5t15.5 -12.5l76 -81q5 -5 6.5 -9t1.5 -8q0 -5 -4.5 -10t-11.5 -5q-6 0 -12.5 3.5t-14.5 9.5l-90 65z" />
    <glyph glyph-name="Ydieresis" unicode="&#x178;" horiz-adv-x="559" 
d="M511 704q13 0 21.5 -9.5t8.5 -20.5q0 -5 -1.5 -9.5t-4.5 -9.5l-235 -323l12 39v-341q0 -12 -9 -21t-22 -9t-21.5 9t-8.5 21v334l5 -24l-229 313q-4 5 -6 10.5t-2 10.5q0 13 10.5 21.5t21.5 8.5q15 0 25 -14l215 -293l-15 2l209 291q10 14 26 14zM366 775q-19 0 -30 10.5
t-11 29.5v10q0 19 11.5 29.5t30.5 10.5t30 -10.5t11 -29.5v-10q0 -20 -11 -30t-31 -10zM194 775q-19 0 -30 10.5t-11 29.5v10q0 19 11.5 29.5t30.5 10.5t30 -10.5t11 -29.5v-10q0 -20 -11 -30t-31 -10z" />
    <glyph glyph-name="uni1E8E" unicode="&#x1e8e;" horiz-adv-x="559" 
d="M511 704q13 0 21.5 -9.5t8.5 -20.5q0 -5 -1.5 -9.5t-4.5 -9.5l-235 -323l12 39v-341q0 -12 -9 -21t-22 -9t-21.5 9t-8.5 21v334l5 -24l-229 313q-4 5 -6 10.5t-2 10.5q0 13 10.5 21.5t21.5 8.5q15 0 25 -14l215 -293l-15 2l209 291q10 14 26 14zM280 770
q-21 0 -31.5 10.5t-10.5 29.5v10q0 20 11.5 30t31.5 10q19 0 29.5 -10t10.5 -30v-10q0 -20 -10.5 -30t-30.5 -10z" />
    <glyph glyph-name="uni1EF4" unicode="&#x1ef4;" horiz-adv-x="559" 
d="M511 704q13 0 21.5 -9.5t8.5 -20.5q0 -5 -1.5 -9.5t-4.5 -9.5l-235 -323l12 39v-341q0 -12 -9 -21t-22 -9t-21.5 9t-8.5 21v334l5 -24l-229 313q-4 5 -6 10.5t-2 10.5q0 13 10.5 21.5t21.5 8.5q15 0 25 -14l215 -293l-15 2l209 291q10 14 26 14zM281 -139q-21 0 -31.5 10
t-10.5 29v11q0 19 11.5 29t30.5 10q20 0 30.5 -10t10.5 -29v-11q0 -19 -10.5 -29t-30.5 -10z" />
    <glyph glyph-name="Ygrave" unicode="&#x1ef2;" horiz-adv-x="559" 
d="M511 704q13 0 21.5 -9.5t8.5 -20.5q0 -5 -1.5 -9.5t-4.5 -9.5l-235 -323l12 39v-341q0 -12 -9 -21t-22 -9t-21.5 9t-8.5 21v334l5 -24l-229 313q-4 5 -6 10.5t-2 10.5q0 13 10.5 21.5t21.5 8.5q15 0 25 -14l215 -293l-15 2l209 291q10 14 26 14zM280 747q-6 0 -11 2
t-11 4l-97 49q-20 11 -20 31q0 13 8.5 21.5t21.5 8.5q9 0 16.5 -3.5t12.5 -7.5l89 -69q5 -4 7.5 -8.5t2.5 -9.5q0 -7 -4.5 -12.5t-14.5 -5.5z" />
    <glyph glyph-name="uni1EF6" unicode="&#x1ef6;" horiz-adv-x="559" 
d="M511 704q13 0 21.5 -9.5t8.5 -20.5q0 -5 -1.5 -9.5t-4.5 -9.5l-235 -323l12 39v-341q0 -12 -9 -21t-22 -9t-21.5 9t-8.5 21v334l5 -24l-229 313q-4 5 -6 10.5t-2 10.5q0 13 10.5 21.5t21.5 8.5q15 0 25 -14l215 -293l-15 2l209 291q10 14 26 14zM204 903q14 13 33 22
t41 9q32 0 49.5 -12t25 -29.5t7.5 -32.5q0 -17 -9 -30.5t-25 -29.5q-5 -6 -8.5 -12t-3.5 -15q-1 -8 -7.5 -12t-15.5 -4q-8 0 -13.5 5t-5.5 12q0 9 2.5 19.5t11.5 20.5q13 13 21 23t8 22q0 13 -10.5 21.5t-25.5 8.5q-14 0 -25.5 -5.5t-20.5 -12.5q-7 -7 -16 -7.5t-17 7.5
q-6 7 -5 15.5t9 16.5z" />
    <glyph glyph-name="uni0232" unicode="&#x232;" horiz-adv-x="559" 
d="M511 704q13 0 21.5 -9.5t8.5 -20.5q0 -5 -1.5 -9.5t-4.5 -9.5l-235 -323l12 39v-341q0 -12 -9 -21t-22 -9t-21.5 9t-8.5 21v334l5 -24l-229 313q-4 5 -6 10.5t-2 10.5q0 13 10.5 21.5t21.5 8.5q15 0 25 -14l215 -293l-15 2l209 291q10 14 26 14zM156 788q-29 0 -29 25
q0 26 29 26h255q29 0 29 -26q0 -25 -29 -25h-255z" />
    <glyph glyph-name="uni1EF8" unicode="&#x1ef8;" horiz-adv-x="559" 
d="M511 704q13 0 21.5 -9.5t8.5 -20.5q0 -5 -1.5 -9.5t-4.5 -9.5l-235 -323l12 39v-341q0 -12 -9 -21t-22 -9t-21.5 9t-8.5 21v334l5 -24l-229 313q-4 5 -6 10.5t-2 10.5q0 13 10.5 21.5t21.5 8.5q15 0 25 -14l215 -293l-15 2l209 291q10 14 26 14zM151 771
q-13 0 -19.5 11.5t-3.5 32.5q7 32 31.5 49.5t55.5 17.5q25 0 50 -14.5t48.5 -29t40.5 -14.5q14 0 22.5 11t10.5 28q-1 12 5.5 19t16.5 7q15 0 21 -12t3 -31q-3 -22 -14.5 -38t-28 -24.5t-38.5 -8.5q-24 0 -49.5 14.5t-49.5 28.5t-41 14q-14 0 -24 -9.5t-15 -29.5
q1 -10 -6.5 -16t-15.5 -6z" />
    <glyph glyph-name="Z" unicode="Z" horiz-adv-x="644" 
d="M565 700q15 0 24 -9t9 -21q0 -10 -6 -18l-455 -603l-2 8h429q12 0 21 -8t9 -20t-9 -20.5t-21 -8.5h-479q-14 0 -22.5 10t-8.5 21q0 10 6 18l453 598l6 -4h-409q-13 0 -21.5 8.5t-8.5 20.5t8.5 20t21.5 8h455z" />
    <glyph glyph-name="Zacute" unicode="&#x179;" horiz-adv-x="644" 
d="M565 700q15 0 24 -9t9 -21q0 -10 -6 -18l-455 -603l-2 8h429q12 0 21 -8t9 -20t-9 -20.5t-21 -8.5h-479q-14 0 -22.5 10t-8.5 21q0 10 6 18l453 598l6 -4h-409q-13 0 -21.5 8.5t-8.5 20.5t8.5 20t21.5 8h455zM326 746q-10 0 -14.5 5.5t-4.5 12.5q0 5 2.5 9.5t7.5 8.5
l89 69q6 4 13 7.5t16 3.5q13 0 21.5 -8.5t8.5 -21.5q0 -10 -5 -18t-14 -13l-98 -49q-5 -2 -10.5 -4t-11.5 -2z" />
    <glyph glyph-name="Zcaron" unicode="&#x17d;" horiz-adv-x="644" 
d="M565 700q15 0 24 -9t9 -21q0 -10 -6 -18l-455 -603l-2 8h429q12 0 21 -8t9 -20t-9 -20.5t-21 -8.5h-479q-14 0 -22.5 10t-8.5 21q0 10 6 18l453 598l6 -4h-409q-13 0 -21.5 8.5t-8.5 20.5t8.5 20t21.5 8h455zM314 802l88 70q8 7 15 10t12 3q8 0 12.5 -4.5t4.5 -10.5
q0 -4 -2 -8t-6 -9l-77 -82q-6 -9 -14 -13t-19 -4h-11q-11 0 -19 4t-15 13l-76 81q-5 5 -6.5 9t-1.5 8q0 6 4.5 10.5t11.5 4.5q11 0 27 -12l90 -67z" />
    <glyph glyph-name="Zdotaccent" unicode="&#x17b;" horiz-adv-x="644" 
d="M565 700q15 0 24 -9t9 -21q0 -10 -6 -18l-455 -603l-2 8h429q12 0 21 -8t9 -20t-9 -20.5t-21 -8.5h-479q-14 0 -22.5 10t-8.5 21q0 10 6 18l453 598l6 -4h-409q-13 0 -21.5 8.5t-8.5 20.5t8.5 20t21.5 8h455zM323 770q-21 0 -31.5 10.5t-10.5 29.5v10q0 20 11.5 30
t31.5 10q19 0 29.5 -10t10.5 -30v-10q0 -20 -10.5 -30t-30.5 -10z" />
    <glyph glyph-name="uni1E92" unicode="&#x1e92;" horiz-adv-x="644" 
d="M565 700q15 0 24 -9t9 -21q0 -10 -6 -18l-455 -603l-2 8h429q12 0 21 -8t9 -20t-9 -20.5t-21 -8.5h-479q-14 0 -22.5 10t-8.5 21q0 10 6 18l453 598l6 -4h-409q-13 0 -21.5 8.5t-8.5 20.5t8.5 20t21.5 8h455zM323 -139q-21 0 -31.5 10t-10.5 29v11q0 19 11.5 29t30.5 10
q20 0 30.5 -10t10.5 -29v-11q0 -19 -10.5 -29t-30.5 -10z" />
    <glyph glyph-name="a" unicode="a" horiz-adv-x="602" 
d="M494 511q13 0 21.5 -9t8.5 -22v-450q0 -12 -9 -21t-21 -9q-14 0 -22 9t-8 21v119l17 8q0 -28 -15.5 -57t-42.5 -54t-63.5 -40.5t-79.5 -15.5q-67 0 -120.5 35t-84 96t-30.5 137q0 78 31 137.5t84 93.5t119 34q43 0 80.5 -15t65.5 -41t44 -59.5t16 -69.5l-21 15v127
q0 13 8 22t22 9zM286 46q53 0 94 27.5t64.5 76t23.5 108.5q0 59 -23.5 106t-64.5 75t-94 28q-52 0 -93.5 -27t-65 -74t-23.5 -108q0 -60 23 -108.5t64.5 -76t94.5 -27.5z" />
    <glyph glyph-name="aacute" unicode="&#xe1;" horiz-adv-x="602" 
d="M494 511q13 0 21.5 -9t8.5 -22v-450q0 -12 -9 -21t-21 -9q-14 0 -22 9t-8 21v119l17 8q0 -28 -15.5 -57t-42.5 -54t-63.5 -40.5t-79.5 -15.5q-67 0 -120.5 35t-84 96t-30.5 137q0 78 31 137.5t84 93.5t119 34q43 0 80.5 -15t65.5 -41t44 -59.5t16 -69.5l-21 15v127
q0 13 8 22t22 9zM286 46q53 0 94 27.5t64.5 76t23.5 108.5q0 59 -23.5 106t-64.5 75t-94 28q-52 0 -93.5 -27t-65 -74t-23.5 -108q0 -60 23 -108.5t64.5 -76t94.5 -27.5zM279 552q-5 0 -10.5 5.5t-5.5 12.5q0 6 5 14l61 95q5 8 13.5 15t20.5 7q15 0 24 -8t8 -23
q0 -7 -2.5 -12.5t-7.5 -10.5l-75 -79q-6 -7 -14 -11.5t-17 -4.5z" />
    <glyph glyph-name="abreve" unicode="&#x103;" horiz-adv-x="602" 
d="M494 511q13 0 21.5 -9t8.5 -22v-450q0 -12 -9 -21t-21 -9q-14 0 -22 9t-8 21v119l17 8q0 -28 -15.5 -57t-42.5 -54t-63.5 -40.5t-79.5 -15.5q-67 0 -120.5 35t-84 96t-30.5 137q0 78 31 137.5t84 93.5t119 34q43 0 80.5 -15t65.5 -41t44 -59.5t16 -69.5l-21 15v127
q0 13 8 22t22 9zM286 46q53 0 94 27.5t64.5 76t23.5 108.5q0 59 -23.5 106t-64.5 75t-94 28q-52 0 -93.5 -27t-65 -74t-23.5 -108q0 -60 23 -108.5t64.5 -76t94.5 -27.5zM285 573q-34 0 -62.5 16.5t-47 44t-21.5 59.5q-2 12 4.5 20t17.5 8q13 0 20 -6.5t11 -17.5
q6 -36 27.5 -55.5t50.5 -19.5q28 0 49.5 20t28.5 55q5 11 11.5 17.5t18.5 6.5q11 0 18 -8t4 -19q-3 -32 -21 -60t-46 -44.5t-63 -16.5z" />
    <glyph glyph-name="uni1EAF" unicode="&#x1eaf;" horiz-adv-x="602" 
d="M494 511q13 0 21.5 -9t8.5 -22v-450q0 -12 -9 -21t-21 -9q-14 0 -22 9t-8 21v119l17 8q0 -28 -15.5 -57t-42.5 -54t-63.5 -40.5t-79.5 -15.5q-67 0 -120.5 35t-84 96t-30.5 137q0 78 31 137.5t84 93.5t119 34q43 0 80.5 -15t65.5 -41t44 -59.5t16 -69.5l-21 15v127
q0 13 8 22t22 9zM286 46q53 0 94 27.5t64.5 76t23.5 108.5q0 59 -23.5 106t-64.5 75t-94 28q-52 0 -93.5 -27t-65 -74t-23.5 -108q0 -60 23 -108.5t64.5 -76t94.5 -27.5zM297 582q-34 0 -62.5 16.5t-47 44t-21.5 59.5q-2 12 4.5 20t17.5 8q13 0 20 -6.5t11 -17.5
q6 -36 27.5 -55.5t50.5 -19.5q28 0 49.5 20t28.5 55q5 11 11.5 17.5t18.5 6.5q11 0 18 -8t4 -19q-3 -32 -21 -60t-46 -44.5t-63 -16.5zM292 714q-5 0 -10.5 5.5t-5.5 12.5q0 6 5 14l61 95q5 8 13.5 15t20.5 7q15 0 24 -8t8 -23q0 -7 -2.5 -12.5t-7.5 -10.5l-75 -79
q-6 -7 -14 -11.5t-17 -4.5z" />
    <glyph glyph-name="uni1EB7" unicode="&#x1eb7;" horiz-adv-x="602" 
d="M494 511q13 0 21.5 -9t8.5 -22v-450q0 -12 -9 -21t-21 -9q-14 0 -22 9t-8 21v119l17 8q0 -28 -15.5 -57t-42.5 -54t-63.5 -40.5t-79.5 -15.5q-67 0 -120.5 35t-84 96t-30.5 137q0 78 31 137.5t84 93.5t119 34q43 0 80.5 -15t65.5 -41t44 -59.5t16 -69.5l-21 15v127
q0 13 8 22t22 9zM286 46q53 0 94 27.5t64.5 76t23.5 108.5q0 59 -23.5 106t-64.5 75t-94 28q-52 0 -93.5 -27t-65 -74t-23.5 -108q0 -60 23 -108.5t64.5 -76t94.5 -27.5zM287 -137q-21 0 -31.5 9.5t-10.5 27.5v10q0 18 11.5 27.5t30.5 9.5q20 0 30.5 -9.5t10.5 -27.5v-10
q0 -18 -10.5 -27.5t-30.5 -9.5zM285 573q-34 0 -62.5 16.5t-47 44t-21.5 59.5q-2 12 4.5 20t17.5 8q13 0 20 -6.5t11 -17.5q6 -36 27.5 -55.5t50.5 -19.5q28 0 49.5 20t28.5 55q5 11 11.5 17.5t18.5 6.5q11 0 18 -8t4 -19q-3 -32 -21 -60t-46 -44.5t-63 -16.5z" />
    <glyph glyph-name="uni1EB1" unicode="&#x1eb1;" horiz-adv-x="602" 
d="M494 511q13 0 21.5 -9t8.5 -22v-450q0 -12 -9 -21t-21 -9q-14 0 -22 9t-8 21v119l17 8q0 -28 -15.5 -57t-42.5 -54t-63.5 -40.5t-79.5 -15.5q-67 0 -120.5 35t-84 96t-30.5 137q0 78 31 137.5t84 93.5t119 34q43 0 80.5 -15t65.5 -41t44 -59.5t16 -69.5l-21 15v127
q0 13 8 22t22 9zM286 46q53 0 94 27.5t64.5 76t23.5 108.5q0 59 -23.5 106t-64.5 75t-94 28q-52 0 -93.5 -27t-65 -74t-23.5 -108q0 -60 23 -108.5t64.5 -76t94.5 -27.5zM297 585q-34 0 -62.5 16.5t-47 44t-21.5 59.5q-2 12 4.5 20t17.5 8q13 0 20 -6.5t11 -17.5
q6 -36 27.5 -55.5t50.5 -19.5q28 0 49.5 20t28.5 55q5 11 11.5 17.5t18.5 6.5q11 0 18 -8t4 -19q-3 -32 -21 -60t-46 -44.5t-63 -16.5zM305 717q-7 0 -13.5 4t-11.5 8l-79 73q-6 5 -10 11.5t-4 14.5q0 14 9 21.5t21 7.5q11 0 19 -5.5t12 -11.5l68 -89q8 -9 8 -16t-5.5 -12.5
t-13.5 -5.5z" />
    <glyph glyph-name="uni1EB3" unicode="&#x1eb3;" horiz-adv-x="602" 
d="M494 511q13 0 21.5 -9t8.5 -22v-450q0 -12 -9 -21t-21 -9q-14 0 -22 9t-8 21v119l17 8q0 -28 -15.5 -57t-42.5 -54t-63.5 -40.5t-79.5 -15.5q-67 0 -120.5 35t-84 96t-30.5 137q0 78 31 137.5t84 93.5t119 34q43 0 80.5 -15t65.5 -41t44 -59.5t16 -69.5l-21 15v127
q0 13 8 22t22 9zM286 46q53 0 94 27.5t64.5 76t23.5 108.5q0 59 -23.5 106t-64.5 75t-94 28q-52 0 -93.5 -27t-65 -74t-23.5 -108q0 -60 23 -108.5t64.5 -76t94.5 -27.5zM294 572q-34 0 -62.5 16.5t-47 44t-21.5 59.5q-2 12 4.5 20t17.5 8q13 0 20 -6.5t11 -17.5
q6 -36 27.5 -55.5t50.5 -19.5q28 0 49.5 20t28.5 55q5 11 11.5 17.5t18.5 6.5q11 0 18 -8t4 -19q-3 -32 -21 -60t-46 -44.5t-63 -16.5zM207 835q15 13 33.5 22t41.5 9q31 0 48.5 -12t25 -29.5t7.5 -32.5q0 -17 -9 -30.5t-24 -29.5q-6 -6 -9 -12t-4 -15q-1 -8 -7 -13t-14 -5
q-10 0 -15.5 6t-5.5 13q0 9 2.5 19.5t12.5 20.5q12 13 20.5 23t8.5 22q0 13 -11 21.5t-26 8.5q-13 0 -24.5 -5.5t-20.5 -12.5q-8 -7 -17 -7.5t-17 7.5q-6 7 -5 15.5t9 16.5z" />
    <glyph glyph-name="uni1EB5" unicode="&#x1eb5;" horiz-adv-x="602" 
d="M494 511q13 0 21.5 -9t8.5 -22v-450q0 -12 -9 -21t-21 -9q-14 0 -22 9t-8 21v119l17 8q0 -28 -15.5 -57t-42.5 -54t-63.5 -40.5t-79.5 -15.5q-67 0 -120.5 35t-84 96t-30.5 137q0 78 31 137.5t84 93.5t119 34q43 0 80.5 -15t65.5 -41t44 -59.5t16 -69.5l-21 15v127
q0 13 8 22t22 9zM286 46q53 0 94 27.5t64.5 76t23.5 108.5q0 59 -23.5 106t-64.5 75t-94 28q-52 0 -93.5 -27t-65 -74t-23.5 -108q0 -60 23 -108.5t64.5 -76t94.5 -27.5zM290 566q-34 0 -62.5 16.5t-47 44t-21.5 59.5q-2 12 4.5 20t17.5 8q13 0 20 -6.5t11 -17.5
q6 -36 27.5 -55.5t50.5 -19.5q28 0 49.5 20t28.5 55q5 11 11.5 17.5t18.5 6.5q11 0 18 -8t4 -19q-3 -32 -21 -60t-46 -44.5t-63 -16.5zM168 760q-16 0 -20.5 11t-1.5 32q6 33 31 50.5t59 17.5q18 0 36.5 -9t36.5 -20t33.5 -20t28.5 -9q14 0 22.5 10t9.5 28q-1 11 6 18t17 7
q17 0 22 -11.5t3 -30.5q-4 -22 -15.5 -38t-29.5 -24.5t-42 -8.5q-15 0 -33.5 8.5t-36.5 19.5t-34.5 19.5t-30.5 8.5q-13 0 -23 -8.5t-15 -28.5q1 -10 -6.5 -16t-16.5 -6z" />
    <glyph glyph-name="uni01CE" unicode="&#x1ce;" horiz-adv-x="602" 
d="M494 511q13 0 21.5 -9t8.5 -22v-450q0 -12 -9 -21t-21 -9q-14 0 -22 9t-8 21v119l17 8q0 -28 -15.5 -57t-42.5 -54t-63.5 -40.5t-79.5 -15.5q-67 0 -120.5 35t-84 96t-30.5 137q0 78 31 137.5t84 93.5t119 34q43 0 80.5 -15t65.5 -41t44 -59.5t16 -69.5l-21 15v127
q0 13 8 22t22 9zM286 46q53 0 94 27.5t64.5 76t23.5 108.5q0 59 -23.5 106t-64.5 75t-94 28q-52 0 -93.5 -27t-65 -74t-23.5 -108q0 -60 23 -108.5t64.5 -76t94.5 -27.5zM283 569q-22 0 -34 16l-71 78q-8 8 -8 17q0 7 5.5 11.5t13.5 4.5q10 0 26 -13l84 -68l-14 -2l82 70
q8 7 14.5 10.5t13.5 3.5q8 0 13 -4.5t5 -11.5q0 -4 -2 -8.5t-7 -9.5l-72 -78q-11 -16 -33 -16h-16z" />
    <glyph glyph-name="acircumflex" unicode="&#xe2;" horiz-adv-x="602" 
d="M494 511q13 0 21.5 -9t8.5 -22v-450q0 -12 -9 -21t-21 -9q-14 0 -22 9t-8 21v119l17 8q0 -28 -15.5 -57t-42.5 -54t-63.5 -40.5t-79.5 -15.5q-67 0 -120.5 35t-84 96t-30.5 137q0 78 31 137.5t84 93.5t119 34q43 0 80.5 -15t65.5 -41t44 -59.5t16 -69.5l-21 15v127
q0 13 8 22t22 9zM286 46q53 0 94 27.5t64.5 76t23.5 108.5q0 59 -23.5 106t-64.5 75t-94 28q-52 0 -93.5 -27t-65 -74t-23.5 -108q0 -60 23 -108.5t64.5 -76t94.5 -27.5zM303 662l-87 -73q-7 -6 -12.5 -10t-13.5 -4q-7 0 -12 5t-5 11q0 4 1.5 8t6.5 8l73 80q11 17 33 17h16
q11 0 18.5 -3.5t13.5 -13.5l72 -79q4 -5 5.5 -8.5t1.5 -8.5t-4.5 -10t-11.5 -5q-8 0 -14 4t-13 10l-89 71z" />
    <glyph glyph-name="uni1EA5" unicode="&#x1ea5;" horiz-adv-x="602" 
d="M494 511q13 0 21.5 -9t8.5 -22v-450q0 -12 -9 -21t-21 -9q-14 0 -22 9t-8 21v119l17 8q0 -28 -15.5 -57t-42.5 -54t-63.5 -40.5t-79.5 -15.5q-67 0 -120.5 35t-84 96t-30.5 137q0 78 31 137.5t84 93.5t119 34q43 0 80.5 -15t65.5 -41t44 -59.5t16 -69.5l-21 15v127
q0 13 8 22t22 9zM286 46q53 0 94 27.5t64.5 76t23.5 108.5q0 59 -23.5 106t-64.5 75t-94 28q-52 0 -93.5 -27t-65 -74t-23.5 -108q0 -60 23 -108.5t64.5 -76t94.5 -27.5zM295 658l-87 -73q-7 -6 -12.5 -10t-13.5 -4q-7 0 -12 5t-5 11q0 4 1.5 8t6.5 8l73 80q11 17 33 17h16
q11 0 18.5 -3.5t13.5 -13.5l72 -79q4 -5 5.5 -8.5t1.5 -8.5t-4.5 -10t-11.5 -5q-8 0 -14 4t-13 10l-89 71zM400 654q-5 0 -10.5 5.5t-5.5 12.5q0 6 5 14l61 95q5 8 13.5 15t20.5 7q15 0 24 -8t8 -23q0 -7 -2.5 -12.5t-7.5 -10.5l-75 -79q-6 -7 -14 -11.5t-17 -4.5z" />
    <glyph glyph-name="uni1EAD" unicode="&#x1ead;" horiz-adv-x="602" 
d="M494 511q13 0 21.5 -9t8.5 -22v-450q0 -12 -9 -21t-21 -9q-14 0 -22 9t-8 21v119l17 8q0 -28 -15.5 -57t-42.5 -54t-63.5 -40.5t-79.5 -15.5q-67 0 -120.5 35t-84 96t-30.5 137q0 78 31 137.5t84 93.5t119 34q43 0 80.5 -15t65.5 -41t44 -59.5t16 -69.5l-21 15v127
q0 13 8 22t22 9zM286 46q53 0 94 27.5t64.5 76t23.5 108.5q0 59 -23.5 106t-64.5 75t-94 28q-52 0 -93.5 -27t-65 -74t-23.5 -108q0 -60 23 -108.5t64.5 -76t94.5 -27.5zM287 -137q-21 0 -31.5 9.5t-10.5 27.5v10q0 18 11.5 27.5t30.5 9.5q20 0 30.5 -9.5t10.5 -27.5v-10
q0 -18 -10.5 -27.5t-30.5 -9.5zM303 662l-87 -73q-7 -6 -12.5 -10t-13.5 -4q-7 0 -12 5t-5 11q0 4 1.5 8t6.5 8l73 80q11 17 33 17h16q11 0 18.5 -3.5t13.5 -13.5l72 -79q4 -5 5.5 -8.5t1.5 -8.5t-4.5 -10t-11.5 -5q-8 0 -14 4t-13 10l-89 71z" />
    <glyph glyph-name="uni1EA7" unicode="&#x1ea7;" horiz-adv-x="602" 
d="M494 511q13 0 21.5 -9t8.5 -22v-450q0 -12 -9 -21t-21 -9q-14 0 -22 9t-8 21v119l17 8q0 -28 -15.5 -57t-42.5 -54t-63.5 -40.5t-79.5 -15.5q-67 0 -120.5 35t-84 96t-30.5 137q0 78 31 137.5t84 93.5t119 34q43 0 80.5 -15t65.5 -41t44 -59.5t16 -69.5l-21 15v127
q0 13 8 22t22 9zM286 46q53 0 94 27.5t64.5 76t23.5 108.5q0 59 -23.5 106t-64.5 75t-94 28q-52 0 -93.5 -27t-65 -74t-23.5 -108q0 -60 23 -108.5t64.5 -76t94.5 -27.5zM289 658l-87 -73q-7 -6 -12.5 -10t-13.5 -4q-7 0 -12 5t-5 11q0 4 1.5 8t6.5 8l73 80q11 17 33 17h16
q11 0 18.5 -3.5t13.5 -13.5l72 -79q4 -5 5.5 -8.5t1.5 -8.5t-4.5 -10t-11.5 -5q-8 0 -14 4t-13 10l-89 71zM410 677q-7 0 -13.5 4t-11.5 8l-79 73q-6 5 -10 11.5t-4 14.5q0 14 9 21.5t21 7.5q11 0 19 -5.5t12 -11.5l68 -89q8 -9 8 -16t-5.5 -12.5t-13.5 -5.5z" />
    <glyph glyph-name="uni1EA9" unicode="&#x1ea9;" horiz-adv-x="602" 
d="M494 511q13 0 21.5 -9t8.5 -22v-450q0 -12 -9 -21t-21 -9q-14 0 -22 9t-8 21v119l17 8q0 -28 -15.5 -57t-42.5 -54t-63.5 -40.5t-79.5 -15.5q-67 0 -120.5 35t-84 96t-30.5 137q0 78 31 137.5t84 93.5t119 34q43 0 80.5 -15t65.5 -41t44 -59.5t16 -69.5l-21 15v127
q0 13 8 22t22 9zM286 46q53 0 94 27.5t64.5 76t23.5 108.5q0 59 -23.5 106t-64.5 75t-94 28q-52 0 -93.5 -27t-65 -74t-23.5 -108q0 -60 23 -108.5t64.5 -76t94.5 -27.5zM299 660l-87 -73q-7 -6 -12.5 -10t-13.5 -4q-7 0 -12 5t-5 11q0 4 1.5 8t6.5 8l73 80q11 17 33 17h16
q11 0 18.5 -3.5t13.5 -13.5l72 -79q4 -5 5.5 -8.5t1.5 -8.5t-4.5 -10t-11.5 -5q-8 0 -14 4t-13 10l-89 71zM353 779q15 13 33.5 22t41.5 9q31 0 48.5 -12t25 -29.5t7.5 -32.5q0 -17 -9 -30.5t-24 -29.5q-6 -6 -9 -12t-4 -15q-1 -8 -7 -13t-14 -5q-10 0 -15.5 6t-5.5 13
q0 9 2.5 19.5t12.5 20.5q12 13 20.5 23t8.5 22q0 13 -11 21.5t-26 8.5q-13 0 -24.5 -5.5t-20.5 -12.5q-8 -7 -17 -7.5t-17 7.5q-6 7 -5 15.5t9 16.5z" />
    <glyph glyph-name="uni1EAB" unicode="&#x1eab;" horiz-adv-x="602" 
d="M494 511q13 0 21.5 -9t8.5 -22v-450q0 -12 -9 -21t-21 -9q-14 0 -22 9t-8 21v119l17 8q0 -28 -15.5 -57t-42.5 -54t-63.5 -40.5t-79.5 -15.5q-67 0 -120.5 35t-84 96t-30.5 137q0 78 31 137.5t84 93.5t119 34q43 0 80.5 -15t65.5 -41t44 -59.5t16 -69.5l-21 15v127
q0 13 8 22t22 9zM286 46q53 0 94 27.5t64.5 76t23.5 108.5q0 59 -23.5 106t-64.5 75t-94 28q-52 0 -93.5 -27t-65 -74t-23.5 -108q0 -60 23 -108.5t64.5 -76t94.5 -27.5zM301 649l-87 -73q-7 -6 -12.5 -10t-13.5 -4q-7 0 -12 5t-5 11q0 4 1.5 8t6.5 8l73 80q11 17 33 17h16
q11 0 18.5 -3.5t13.5 -13.5l72 -79q4 -5 5.5 -8.5t1.5 -8.5t-4.5 -10t-11.5 -5q-8 0 -14 4t-13 10l-89 71zM166 703q-16 0 -20.5 11t-1.5 32q6 33 31 50.5t59 17.5q18 0 36.5 -9t36.5 -20t33.5 -20t28.5 -9q14 0 22.5 10t9.5 28q-1 11 6 18t17 7q17 0 22 -11.5t3 -30.5
q-4 -22 -15.5 -38t-29.5 -24.5t-42 -8.5q-15 0 -33.5 8.5t-36.5 19.5t-34.5 19.5t-30.5 8.5q-13 0 -23 -8.5t-15 -28.5q1 -10 -6.5 -16t-16.5 -6z" />
    <glyph glyph-name="uni0201" unicode="&#x201;" horiz-adv-x="602" 
d="M494 511q13 0 21.5 -9t8.5 -22v-450q0 -12 -9 -21t-21 -9q-14 0 -22 9t-8 21v119l17 8q0 -28 -15.5 -57t-42.5 -54t-63.5 -40.5t-79.5 -15.5q-67 0 -120.5 35t-84 96t-30.5 137q0 78 31 137.5t84 93.5t119 34q43 0 80.5 -15t65.5 -41t44 -59.5t16 -69.5l-21 15v127
q0 13 8 22t22 9zM286 46q53 0 94 27.5t64.5 76t23.5 108.5q0 59 -23.5 106t-64.5 75t-94 28q-52 0 -93.5 -27t-65 -74t-23.5 -108q0 -60 23 -108.5t64.5 -76t94.5 -27.5zM384 595q-7 0 -13.5 4t-11.5 8l-79 73q-6 5 -10 11.5t-4 14.5q0 14 9 21.5t21 7.5q11 0 19 -5.5
t12 -11.5l68 -89q8 -9 8 -16t-5.5 -12.5t-13.5 -5.5zM241 595q-6 0 -13 4t-12 8l-78 73q-7 5 -11 11.5t-4 14.5q0 14 9 21.5t21 7.5t19.5 -5.5t12.5 -11.5l68 -89q7 -9 7 -16t-5 -12.5t-14 -5.5z" />
    <glyph glyph-name="adieresis" unicode="&#xe4;" horiz-adv-x="602" 
d="M494 511q13 0 21.5 -9t8.5 -22v-450q0 -12 -9 -21t-21 -9q-14 0 -22 9t-8 21v119l17 8q0 -28 -15.5 -57t-42.5 -54t-63.5 -40.5t-79.5 -15.5q-67 0 -120.5 35t-84 96t-30.5 137q0 78 31 137.5t84 93.5t119 34q43 0 80.5 -15t65.5 -41t44 -59.5t16 -69.5l-21 15v127
q0 13 8 22t22 9zM286 46q53 0 94 27.5t64.5 76t23.5 108.5q0 59 -23.5 106t-64.5 75t-94 28q-52 0 -93.5 -27t-65 -74t-23.5 -108q0 -60 23 -108.5t64.5 -76t94.5 -27.5zM369 592q-20 0 -30.5 10.5t-10.5 29.5v10q0 19 11 29.5t31 10.5q19 0 29.5 -10.5t10.5 -29.5v-10
q0 -20 -11 -30t-30 -10zM197 592q-20 0 -30.5 10.5t-10.5 29.5v10q0 19 11 29.5t30 10.5q20 0 30.5 -10.5t10.5 -29.5v-10q0 -20 -11 -30t-30 -10z" />
    <glyph glyph-name="uni1EA1" unicode="&#x1ea1;" horiz-adv-x="602" 
d="M494 511q13 0 21.5 -9t8.5 -22v-450q0 -12 -9 -21t-21 -9q-14 0 -22 9t-8 21v119l17 8q0 -28 -15.5 -57t-42.5 -54t-63.5 -40.5t-79.5 -15.5q-67 0 -120.5 35t-84 96t-30.5 137q0 78 31 137.5t84 93.5t119 34q43 0 80.5 -15t65.5 -41t44 -59.5t16 -69.5l-21 15v127
q0 13 8 22t22 9zM286 46q53 0 94 27.5t64.5 76t23.5 108.5q0 59 -23.5 106t-64.5 75t-94 28q-52 0 -93.5 -27t-65 -74t-23.5 -108q0 -60 23 -108.5t64.5 -76t94.5 -27.5zM287 -137q-21 0 -31.5 9.5t-10.5 27.5v10q0 18 11.5 27.5t30.5 9.5q20 0 30.5 -9.5t10.5 -27.5v-10
q0 -18 -10.5 -27.5t-30.5 -9.5z" />
    <glyph glyph-name="agrave" unicode="&#xe0;" horiz-adv-x="602" 
d="M494 511q13 0 21.5 -9t8.5 -22v-450q0 -12 -9 -21t-21 -9q-14 0 -22 9t-8 21v119l17 8q0 -28 -15.5 -57t-42.5 -54t-63.5 -40.5t-79.5 -15.5q-67 0 -120.5 35t-84 96t-30.5 137q0 78 31 137.5t84 93.5t119 34q43 0 80.5 -15t65.5 -41t44 -59.5t16 -69.5l-21 15v127
q0 13 8 22t22 9zM286 46q53 0 94 27.5t64.5 76t23.5 108.5q0 59 -23.5 106t-64.5 75t-94 28q-52 0 -93.5 -27t-65 -74t-23.5 -108q0 -60 23 -108.5t64.5 -76t94.5 -27.5zM293 559q-7 0 -13.5 4t-11.5 8l-79 73q-6 5 -10 11.5t-4 14.5q0 14 9 21.5t21 7.5q11 0 19 -5.5
t12 -11.5l68 -89q8 -9 8 -16t-5.5 -12.5t-13.5 -5.5z" />
    <glyph glyph-name="uni1EA3" unicode="&#x1ea3;" horiz-adv-x="602" 
d="M494 511q13 0 21.5 -9t8.5 -22v-450q0 -12 -9 -21t-21 -9q-14 0 -22 9t-8 21v119l17 8q0 -28 -15.5 -57t-42.5 -54t-63.5 -40.5t-79.5 -15.5q-67 0 -120.5 35t-84 96t-30.5 137q0 78 31 137.5t84 93.5t119 34q43 0 80.5 -15t65.5 -41t44 -59.5t16 -69.5l-21 15v127
q0 13 8 22t22 9zM286 46q53 0 94 27.5t64.5 76t23.5 108.5q0 59 -23.5 106t-64.5 75t-94 28q-52 0 -93.5 -27t-65 -74t-23.5 -108q0 -60 23 -108.5t64.5 -76t94.5 -27.5zM215 706q15 13 33.5 22t41.5 9q31 0 48.5 -12t25 -29.5t7.5 -32.5q0 -17 -9 -30.5t-24 -29.5
q-6 -6 -9 -12t-4 -15q-1 -8 -7 -13t-14 -5q-10 0 -15.5 6t-5.5 13q0 9 2.5 19.5t12.5 20.5q12 13 20.5 23t8.5 22q0 13 -11 21.5t-26 8.5q-13 0 -24.5 -5.5t-20.5 -12.5q-8 -7 -17 -7.5t-17 7.5q-6 7 -5 15.5t9 16.5z" />
    <glyph glyph-name="uni0203" unicode="&#x203;" horiz-adv-x="602" 
d="M494 511q13 0 21.5 -9t8.5 -22v-450q0 -12 -9 -21t-21 -9q-14 0 -22 9t-8 21v119l17 8q0 -28 -15.5 -57t-42.5 -54t-63.5 -40.5t-79.5 -15.5q-67 0 -120.5 35t-84 96t-30.5 137q0 78 31 137.5t84 93.5t119 34q43 0 80.5 -15t65.5 -41t44 -59.5t16 -69.5l-21 15v127
q0 13 8 22t22 9zM286 46q53 0 94 27.5t64.5 76t23.5 108.5q0 59 -23.5 106t-64.5 75t-94 28q-52 0 -93.5 -27t-65 -74t-23.5 -108q0 -60 23 -108.5t64.5 -76t94.5 -27.5zM300 722q35 0 63 -16.5t46 -44t21 -60.5q3 -12 -4 -19.5t-18 -7.5q-12 0 -19 6.5t-11 17.5
q-6 36 -28 55t-50 19q-29 0 -50.5 -20t-27.5 -54q-4 -11 -11 -17.5t-20 -6.5q-11 0 -17.5 7.5t-4.5 18.5q3 34 21 61t46.5 44t63.5 17z" />
    <glyph glyph-name="amacron" unicode="&#x101;" horiz-adv-x="602" 
d="M494 511q13 0 21.5 -9t8.5 -22v-450q0 -12 -9 -21t-21 -9q-14 0 -22 9t-8 21v119l17 8q0 -28 -15.5 -57t-42.5 -54t-63.5 -40.5t-79.5 -15.5q-67 0 -120.5 35t-84 96t-30.5 137q0 78 31 137.5t84 93.5t119 34q43 0 80.5 -15t65.5 -41t44 -59.5t16 -69.5l-21 15v127
q0 13 8 22t22 9zM286 46q53 0 94 27.5t64.5 76t23.5 108.5q0 59 -23.5 106t-64.5 75t-94 28q-52 0 -93.5 -27t-65 -74t-23.5 -108q0 -60 23 -108.5t64.5 -76t94.5 -27.5zM170 604q-28 0 -28 26q0 27 28 27h240q28 0 28 -27q0 -26 -28 -26h-240z" />
    <glyph glyph-name="aogonek" unicode="&#x105;" horiz-adv-x="601" 
d="M286 46q53 0 94 27.5t64.5 76t23.5 108.5q0 59 -23.5 106t-64.5 75t-94 28q-52 0 -93.5 -27t-65 -74t-23.5 -108q0 -60 23 -108.5t64.5 -76t94.5 -27.5zM469 -193q-37 0 -66.5 25.5t-29.5 70.5q0 27 9.5 48t26 35t35.5 24t39 16l-19 -20v143l17 8q0 -28 -15.5 -57
t-42.5 -54t-63.5 -40.5t-79.5 -15.5q-67 0 -120.5 35t-84 96t-30.5 137q0 78 31 137.5t84 93.5t119 34q43 0 80.5 -15t65.5 -41t44 -59.5t16 -69.5l-21 15v127q0 13 8 22t22 9q13 0 21.5 -9t8.5 -22v-459q0 -7 -5.5 -15.5t-22.5 -14.5q-29 -9 -49.5 -30t-20.5 -47
q0 -27 15 -41.5t34 -14.5q10 0 17 2.5t12 9.5q6 7 12.5 11t13.5 4q10 0 16 -6.5t6 -15.5q0 -14 -11.5 -27t-30 -21t-41.5 -8z" />
    <glyph glyph-name="aring" unicode="&#xe5;" horiz-adv-x="602" 
d="M494 511q13 0 21.5 -9t8.5 -22v-450q0 -12 -9 -21t-21 -9q-14 0 -22 9t-8 21v119l17 8q0 -28 -15.5 -57t-42.5 -54t-63.5 -40.5t-79.5 -15.5q-67 0 -120.5 35t-84 96t-30.5 137q0 78 31 137.5t84 93.5t119 34q43 0 80.5 -15t65.5 -41t44 -59.5t16 -69.5l-21 15v127
q0 13 8 22t22 9zM286 46q53 0 94 27.5t64.5 76t23.5 108.5q0 59 -23.5 106t-64.5 75t-94 28q-52 0 -93.5 -27t-65 -74t-23.5 -108q0 -60 23 -108.5t64.5 -76t94.5 -27.5zM292 555q-27 0 -50.5 13t-37.5 35.5t-14 49.5t14 49.5t37.5 35.5t50.5 13t50.5 -13t37.5 -35.5
t14 -49.5t-14 -49.5t-37.5 -35.5t-50.5 -13zM292 597q24 0 41 16.5t17 39.5q0 25 -17 41t-41 16q-23 0 -40 -16.5t-17 -40.5q0 -23 17 -39.5t40 -16.5z" />
    <glyph glyph-name="aringacute" unicode="&#x1fb;" horiz-adv-x="602" 
d="M494 511q13 0 21.5 -9t8.5 -22v-450q0 -12 -9 -21t-21 -9q-14 0 -22 9t-8 21v119l17 8q0 -28 -15.5 -57t-42.5 -54t-63.5 -40.5t-79.5 -15.5q-67 0 -120.5 35t-84 96t-30.5 137q0 78 31 137.5t84 93.5t119 34q43 0 80.5 -15t65.5 -41t44 -59.5t16 -69.5l-21 15v127
q0 13 8 22t22 9zM286 46q53 0 94 27.5t64.5 76t23.5 108.5q0 59 -23.5 106t-64.5 75t-94 28q-52 0 -93.5 -27t-65 -74t-23.5 -108q0 -60 23 -108.5t64.5 -76t94.5 -27.5zM308 555q-27 0 -50.5 13t-37.5 35.5t-14 49.5t14 49.5t37.5 35.5t50.5 13t50.5 -13t37.5 -35.5
t14 -49.5t-14 -49.5t-37.5 -35.5t-50.5 -13zM308 597q24 0 41 16.5t17 39.5q0 25 -17 41t-41 16q-23 0 -40 -16.5t-17 -40.5q0 -23 17 -39.5t40 -16.5zM310 786q-10 0 -14.5 5.5t-4.5 12.5q0 5 2.5 9.5t7.5 8.5l89 69q6 4 13 7.5t16 3.5q13 0 21.5 -8.5t8.5 -21.5
q0 -10 -5 -18t-14 -13l-98 -49q-5 -2 -10.5 -4t-11.5 -2z" />
    <glyph glyph-name="atilde" unicode="&#xe3;" horiz-adv-x="602" 
d="M494 511q13 0 21.5 -9t8.5 -22v-450q0 -12 -9 -21t-21 -9q-14 0 -22 9t-8 21v119l17 8q0 -28 -15.5 -57t-42.5 -54t-63.5 -40.5t-79.5 -15.5q-67 0 -120.5 35t-84 96t-30.5 137q0 78 31 137.5t84 93.5t119 34q43 0 80.5 -15t65.5 -41t44 -59.5t16 -69.5l-21 15v127
q0 13 8 22t22 9zM286 46q53 0 94 27.5t64.5 76t23.5 108.5q0 59 -23.5 106t-64.5 75t-94 28q-52 0 -93.5 -27t-65 -74t-23.5 -108q0 -60 23 -108.5t64.5 -76t94.5 -27.5zM163 582q-16 0 -20.5 11t-1.5 32q6 33 31 50.5t59 17.5q18 0 36.5 -9t36.5 -20t33.5 -20t28.5 -9
q14 0 22.5 10t9.5 28q-1 11 6 18t17 7q17 0 22 -11.5t3 -30.5q-4 -22 -15.5 -38t-29.5 -24.5t-42 -8.5q-15 0 -33.5 8.5t-36.5 19.5t-34.5 19.5t-30.5 8.5q-13 0 -23 -8.5t-15 -28.5q1 -10 -6.5 -16t-16.5 -6z" />
    <glyph glyph-name="ae" unicode="&#xe6;" horiz-adv-x="894" 
d="M266 523q34 0 65 -7t56 -22.5t39.5 -41.5t14.5 -64v-132l-56 -3v112q0 43 -18.5 64.5t-46 29.5t-54.5 8q-34 0 -65 -13t-56 -32.5t-40 -41.5q-10 -12 -24 -12q-10 0 -18 7.5t-8 18.5q0 4 1.5 9t5.5 10q21 27 52 52t70 41.5t82 16.5zM206 -10q-38 0 -74.5 16.5t-61 50
t-24.5 84.5q0 77 64.5 123t192.5 46h496l-12 -12v20q-4 47 -30 80t-63 50t-77 17q-30 0 -61.5 -12t-57 -37.5t-41.5 -65t-16 -93.5q0 -59 24 -107t69.5 -76t108.5 -28q35 0 63 10t49 26.5t35 34.5q11 9 22 9q10 0 17.5 -8t7.5 -18q0 -12 -10 -21q-30 -36 -78 -62.5
t-105 -26.5q-77 0 -136 33t-92 92t-33 138q0 85 33.5 145t87 92.5t113.5 32.5q44 0 85.5 -15.5t74 -46t52 -74.5t21.5 -102q-1 -12 -10 -20.5t-21 -8.5h-517q-65 0 -108.5 -14t-65.5 -39.5t-22 -58.5t16 -55t40 -32.5t48 -10.5q44 0 82.5 19.5t67 47t39.5 50.5l30 -44
q-17 -26 -47.5 -56t-74 -51.5t-101.5 -21.5z" />
    <glyph glyph-name="aeacute" unicode="&#x1fd;" horiz-adv-x="894" 
d="M266 523q34 0 65 -7t56 -22.5t39.5 -41.5t14.5 -64v-132l-56 -3v112q0 43 -18.5 64.5t-46 29.5t-54.5 8q-34 0 -65 -13t-56 -32.5t-40 -41.5q-10 -12 -24 -12q-10 0 -18 7.5t-8 18.5q0 4 1.5 9t5.5 10q21 27 52 52t70 41.5t82 16.5zM206 -10q-38 0 -74.5 16.5t-61 50
t-24.5 84.5q0 77 64.5 123t192.5 46h496l-12 -12v20q-4 47 -30 80t-63 50t-77 17q-30 0 -61.5 -12t-57 -37.5t-41.5 -65t-16 -93.5q0 -59 24 -107t69.5 -76t108.5 -28q35 0 63 10t49 26.5t35 34.5q11 9 22 9q10 0 17.5 -8t7.5 -18q0 -12 -10 -21q-30 -36 -78 -62.5
t-105 -26.5q-77 0 -136 33t-92 92t-33 138q0 85 33.5 145t87 92.5t113.5 32.5q44 0 85.5 -15.5t74 -46t52 -74.5t21.5 -102q-1 -12 -10 -20.5t-21 -8.5h-517q-65 0 -108.5 -14t-65.5 -39.5t-22 -58.5t16 -55t40 -32.5t48 -10.5q44 0 82.5 19.5t67 47t39.5 50.5l30 -44
q-17 -26 -47.5 -56t-74 -51.5t-101.5 -21.5zM434 564q-5 0 -10.5 5.5t-5.5 12.5q0 6 5 14l61 95q5 8 13.5 15t20.5 7q15 0 24 -8t8 -23q0 -7 -2.5 -12.5t-7.5 -10.5l-75 -79q-6 -7 -14 -11.5t-17 -4.5z" />
    <glyph glyph-name="b" unicode="b" horiz-adv-x="602" 
d="M322 523q68 0 120.5 -34t83.5 -93.5t31 -137.5q0 -76 -31 -137t-84 -96t-119 -35q-35 0 -66.5 11t-57.5 29.5t-46 43.5t-32 54l18 13v-113q0 -13 -8.5 -21.5t-21.5 -8.5t-21.5 8.5t-8.5 21.5v681q0 13 8 21.5t22 8.5q13 0 21.5 -8.5t8.5 -21.5v-335l-14 8
q10 31 29.5 56.5t45.5 44.5t57 29.5t65 10.5zM317 467q-54 0 -95 -27t-64.5 -74t-23.5 -108q0 -60 23.5 -108.5t64.5 -76t95 -27.5q53 0 93.5 28t64.5 76.5t24 107.5q0 61 -24 108t-64.5 74t-93.5 27z" />
    <glyph glyph-name="c" unicode="c" horiz-adv-x="514" 
d="M300 523q48 0 88 -10.5t64.5 -28.5t24.5 -39q0 -10 -7.5 -19.5t-18.5 -9.5q-13 0 -20.5 6t-14.5 14t-21 15q-13 6 -37.5 11t-54.5 5q-56 0 -101 -28t-71 -75.5t-26 -106.5q0 -60 24.5 -108t69 -75.5t102.5 -27.5q40 0 62.5 7t37.5 16q20 11 28.5 21.5t22.5 10.5
q12 0 19 -7.5t7 -19.5q0 -16 -23.5 -35.5t-64.5 -34t-95 -14.5q-74 0 -130.5 35t-88 95.5t-31.5 136.5q0 73 32 133t89 96.5t134 36.5z" />
    <glyph glyph-name="cacute" unicode="&#x107;" horiz-adv-x="514" 
d="M300 523q48 0 88 -10.5t64.5 -28.5t24.5 -39q0 -10 -7.5 -19.5t-18.5 -9.5q-13 0 -20.5 6t-14.5 14t-21 15q-13 6 -37.5 11t-54.5 5q-56 0 -101 -28t-71 -75.5t-26 -106.5q0 -60 24.5 -108t69 -75.5t102.5 -27.5q40 0 62.5 7t37.5 16q20 11 28.5 21.5t22.5 10.5
q12 0 19 -7.5t7 -19.5q0 -16 -23.5 -35.5t-64.5 -34t-95 -14.5q-74 0 -130.5 35t-88 95.5t-31.5 136.5q0 73 32 133t89 96.5t134 36.5zM285 552q-5 0 -10.5 5.5t-5.5 12.5q0 6 5 14l61 95q5 8 13.5 15t20.5 7q15 0 24 -8t8 -23q0 -7 -2.5 -12.5t-7.5 -10.5l-75 -79
q-6 -7 -14 -11.5t-17 -4.5z" />
    <glyph glyph-name="ccaron" unicode="&#x10d;" horiz-adv-x="514" 
d="M300 523q48 0 88 -10.5t64.5 -28.5t24.5 -39q0 -10 -7.5 -19.5t-18.5 -9.5q-13 0 -20.5 6t-14.5 14t-21 15q-13 6 -37.5 11t-54.5 5q-56 0 -101 -28t-71 -75.5t-26 -106.5q0 -60 24.5 -108t69 -75.5t102.5 -27.5q40 0 62.5 7t37.5 16q20 11 28.5 21.5t22.5 10.5
q12 0 19 -7.5t7 -19.5q0 -16 -23.5 -35.5t-64.5 -34t-95 -14.5q-74 0 -130.5 35t-88 95.5t-31.5 136.5q0 73 32 133t89 96.5t134 36.5zM288 569q-22 0 -34 16l-71 78q-8 8 -8 17q0 7 5.5 11.5t13.5 4.5q10 0 26 -13l84 -68l-14 -2l82 70q8 7 14.5 10.5t13.5 3.5q8 0 13 -4.5
t5 -11.5q0 -4 -2 -8.5t-7 -9.5l-72 -78q-11 -16 -33 -16h-16z" />
    <glyph glyph-name="ccedilla" unicode="&#xe7;" horiz-adv-x="514" 
d="M300 523q48 0 88 -10.5t64.5 -28.5t24.5 -39q0 -10 -7.5 -19.5t-18.5 -9.5q-13 0 -20.5 6t-14.5 14t-21 15q-13 6 -37.5 11t-54.5 5q-56 0 -101 -28t-71 -75.5t-26 -106.5q0 -60 24.5 -108t69 -75.5t102.5 -27.5q40 0 62.5 7t37.5 16q20 11 28.5 21.5t22.5 10.5
q12 0 19 -7.5t7 -19.5q0 -16 -23.5 -35.5t-64.5 -34t-95 -14.5q-74 0 -130.5 35t-88 95.5t-31.5 136.5q0 73 32 133t89 96.5t134 36.5zM234 -143q-7 0 -17 4t-18 11t-8 16q0 11 7 18l87 109h39l-64 -139q-9 -19 -26 -19z" />
    <glyph glyph-name="uni1E09" unicode="&#x1e09;" horiz-adv-x="514" 
d="M300 523q48 0 88 -10.5t64.5 -28.5t24.5 -39q0 -10 -7.5 -19.5t-18.5 -9.5q-13 0 -20.5 6t-14.5 14t-21 15q-13 6 -37.5 11t-54.5 5q-56 0 -101 -28t-71 -75.5t-26 -106.5q0 -60 24.5 -108t69 -75.5t102.5 -27.5q40 0 62.5 7t37.5 16q20 11 28.5 21.5t22.5 10.5
q12 0 19 -7.5t7 -19.5q0 -16 -23.5 -35.5t-64.5 -34t-95 -14.5q-74 0 -130.5 35t-88 95.5t-31.5 136.5q0 73 32 133t89 96.5t134 36.5zM234 -143q-7 0 -17 4t-18 11t-8 16q0 11 7 18l87 109h39l-64 -139q-9 -19 -26 -19zM285 552q-5 0 -10.5 5.5t-5.5 12.5q0 6 5 14l61 95
q5 8 13.5 15t20.5 7q15 0 24 -8t8 -23q0 -7 -2.5 -12.5t-7.5 -10.5l-75 -79q-6 -7 -14 -11.5t-17 -4.5z" />
    <glyph glyph-name="ccircumflex" unicode="&#x109;" horiz-adv-x="514" 
d="M300 523q48 0 88 -10.5t64.5 -28.5t24.5 -39q0 -10 -7.5 -19.5t-18.5 -9.5q-13 0 -20.5 6t-14.5 14t-21 15q-13 6 -37.5 11t-54.5 5q-56 0 -101 -28t-71 -75.5t-26 -106.5q0 -60 24.5 -108t69 -75.5t102.5 -27.5q40 0 62.5 7t37.5 16q20 11 28.5 21.5t22.5 10.5
q12 0 19 -7.5t7 -19.5q0 -16 -23.5 -35.5t-64.5 -34t-95 -14.5q-74 0 -130.5 35t-88 95.5t-31.5 136.5q0 73 32 133t89 96.5t134 36.5zM308 662l-87 -73q-7 -6 -12.5 -10t-13.5 -4q-7 0 -12 5t-5 11q0 4 1.5 8t6.5 8l73 80q11 17 33 17h16q11 0 18.5 -3.5t13.5 -13.5l72 -79
q4 -5 5.5 -8.5t1.5 -8.5t-4.5 -10t-11.5 -5q-8 0 -14 4t-13 10l-89 71z" />
    <glyph glyph-name="cdotaccent" unicode="&#x10b;" horiz-adv-x="514" 
d="M300 523q48 0 88 -10.5t64.5 -28.5t24.5 -39q0 -10 -7.5 -19.5t-18.5 -9.5q-13 0 -20.5 6t-14.5 14t-21 15q-13 6 -37.5 11t-54.5 5q-56 0 -101 -28t-71 -75.5t-26 -106.5q0 -60 24.5 -108t69 -75.5t102.5 -27.5q40 0 62.5 7t37.5 16q20 11 28.5 21.5t22.5 10.5
q12 0 19 -7.5t7 -19.5q0 -16 -23.5 -35.5t-64.5 -34t-95 -14.5q-74 0 -130.5 35t-88 95.5t-31.5 136.5q0 73 32 133t89 96.5t134 36.5zM297 587q-21 0 -31.5 9.5t-10.5 27.5v10q0 18 11.5 27.5t31.5 9.5q19 0 29.5 -9.5t10.5 -27.5v-10q0 -18 -10.5 -27.5t-30.5 -9.5z" />
    <glyph glyph-name="d" unicode="d" horiz-adv-x="602" 
d="M494 740q13 0 21.5 -8.5t8.5 -21.5v-680q0 -12 -9 -21t-21 -9q-14 0 -22 9t-8 21v119l17 14q0 -28 -15 -58.5t-42.5 -56.5t-64 -42t-79.5 -16q-66 0 -119.5 35t-84.5 95t-31 137q0 76 31 136.5t84 95t119 34.5q42 0 79 -15t65.5 -41t45 -59.5t16.5 -69.5l-21 15v357
q0 12 8 21t22 9zM286 46q53 0 94 27.5t64.5 75t23.5 108.5q0 60 -23.5 107.5t-64.5 75t-94 27.5q-52 0 -93.5 -27.5t-65 -75t-23.5 -107.5t23.5 -108t65 -75.5t93.5 -27.5z" />
    <glyph glyph-name="eth" unicode="&#xf0;" horiz-adv-x="565" 
d="M282 -3q-65 0 -119.5 36t-86 96t-31.5 132q0 54 18.5 100.5t51 82t74.5 55t89 19.5q54 0 93 -23t64.5 -59.5t38.5 -78.5l-29 15q-8 56 -26.5 106t-48.5 91.5t-74 70t-103 40.5q-11 3 -18.5 10.5t-7.5 18.5q0 13 6.5 22t20.5 9q7 0 13 -2q70 -15 122.5 -52.5t89 -88
t58.5 -106t32.5 -109.5t10.5 -98q0 -85 -32 -150t-85.5 -101t-120.5 -36zM282 55q49 0 89.5 28.5t64 75.5t23.5 102q0 53 -23.5 98t-63.5 73t-90 28q-49 0 -89.5 -26.5t-64 -71.5t-23.5 -101q0 -55 24 -102t64.5 -75.5t88.5 -28.5zM217 547q-11 -3 -21 0.5t-13 14.5
q-3 12 2 20.5t17 11.5l109 37l42 15l100 33q11 4 21 0t13 -15q3 -12 -2.5 -20.5t-16.5 -11.5l-79 -27l-36 -13z" />
    <glyph glyph-name="dcaron" unicode="&#x10f;" horiz-adv-x="776" 
d="M494 740q13 0 21.5 -8.5t8.5 -21.5v-680q0 -12 -9 -21t-21 -9q-14 0 -22 9t-8 21v119l17 14q0 -28 -15 -58.5t-42.5 -56.5t-64 -42t-79.5 -16q-66 0 -119.5 35t-84.5 95t-31 137q0 76 31 136.5t84 95t119 34.5q42 0 79 -15t65.5 -41t45 -59.5t16.5 -69.5l-21 15v357
q0 12 8 21t22 9zM286 46q53 0 94 27.5t64.5 75t23.5 108.5q0 60 -23.5 107.5t-64.5 75t-94 27.5q-52 0 -93.5 -27.5t-65 -75t-23.5 -107.5t23.5 -108t65 -75.5t93.5 -27.5zM750 607q0 -22 -8.5 -43.5t-23 -39.5t-30.5 -28.5t-32 -10.5q-10 0 -18 5.5t-8 16.5q0 16 11.5 18.5
t24.5 8.5q14 8 21.5 21.5t7.5 28.5q0 11 -6 18t-16 7q-7 0 -14 -2t-13 -6q-5 5 -9 11t-3 15q1 12 9.5 21.5t21.5 15t26 5.5q26 0 42.5 -16.5t16.5 -45.5z" />
    <glyph glyph-name="dcroat" unicode="&#x111;" horiz-adv-x="602" 
d="M494 740q13 0 21.5 -8.5t8.5 -21.5v-680q0 -12 -9 -21t-21 -9q-14 0 -22 9t-8 21v119l17 14q0 -28 -15 -58.5t-42.5 -56.5t-64 -42t-79.5 -16q-66 0 -119.5 35t-84.5 95t-31 137q0 76 31 136.5t84 95t119 34.5q42 0 79 -15t65.5 -41t45 -59.5t16.5 -69.5l-21 15v357
q0 12 8 21t22 9zM286 46q53 0 94 27.5t64.5 75t23.5 108.5q0 60 -23.5 107.5t-64.5 75t-94 27.5q-52 0 -93.5 -27.5t-65 -75t-23.5 -107.5t23.5 -108t65 -75.5t93.5 -27.5zM390 587q-14 0 -22 7.5t-8 21.5q0 12 8 19.5t22 7.5h164q14 0 22 -7.5t8 -20.5t-8 -20.5t-22 -7.5
h-164z" />
    <glyph glyph-name="uni1E0D" unicode="&#x1e0d;" horiz-adv-x="602" 
d="M494 740q13 0 21.5 -8.5t8.5 -21.5v-680q0 -12 -9 -21t-21 -9q-14 0 -22 9t-8 21v119l17 14q0 -28 -15 -58.5t-42.5 -56.5t-64 -42t-79.5 -16q-66 0 -119.5 35t-84.5 95t-31 137q0 76 31 136.5t84 95t119 34.5q42 0 79 -15t65.5 -41t45 -59.5t16.5 -69.5l-21 15v357
q0 12 8 21t22 9zM286 46q53 0 94 27.5t64.5 75t23.5 108.5q0 60 -23.5 107.5t-64.5 75t-94 27.5q-52 0 -93.5 -27.5t-65 -75t-23.5 -107.5t23.5 -108t65 -75.5t93.5 -27.5zM302 -137q-21 0 -31.5 9.5t-10.5 27.5v10q0 18 11.5 27.5t30.5 9.5q20 0 30.5 -9.5t10.5 -27.5v-10
q0 -18 -10.5 -27.5t-30.5 -9.5z" />
    <glyph glyph-name="uni1E0F" unicode="&#x1e0f;" horiz-adv-x="602" 
d="M494 740q13 0 21.5 -8.5t8.5 -21.5v-680q0 -12 -9 -21t-21 -9q-14 0 -22 9t-8 21v119l17 14q0 -28 -15 -58.5t-42.5 -56.5t-64 -42t-79.5 -16q-66 0 -119.5 35t-84.5 95t-31 137q0 76 31 136.5t84 95t119 34.5q42 0 79 -15t65.5 -41t45 -59.5t16.5 -69.5l-21 15v357
q0 12 8 21t22 9zM286 46q53 0 94 27.5t64.5 75t23.5 108.5q0 60 -23.5 107.5t-64.5 75t-94 27.5q-52 0 -93.5 -27.5t-65 -75t-23.5 -107.5t23.5 -108t65 -75.5t93.5 -27.5zM180 -124q-28 0 -28 24q0 26 28 26h233q27 0 27 -26q0 -24 -27 -24h-233z" />
    <glyph glyph-name="uni01C6" unicode="&#x1c6;" horiz-adv-x="1081" 
d="M494 740q13 0 21.5 -8.5t8.5 -21.5v-680q0 -12 -9 -21t-21 -9q-14 0 -22 9t-8 21v119l17 14q0 -28 -15 -58.5t-42.5 -56.5t-64 -42t-79.5 -16q-66 0 -119.5 35t-84.5 95t-31 137q0 76 31 136.5t84 95t119 34.5q42 0 79 -15t65.5 -41t45 -59.5t16.5 -69.5l-21 15v357
q0 12 8 21t22 9zM286 46q53 0 94 27.5t64.5 75t23.5 108.5q0 60 -23.5 107.5t-64.5 75t-94 27.5q-52 0 -93.5 -27.5t-65 -75t-23.5 -107.5t23.5 -108t65 -75.5t93.5 -27.5zM1001 56q12 0 20.5 -8.5t8.5 -19.5q0 -12 -8.5 -20t-20.5 -8h-325q-13 0 -21 10t-8 19q0 6 2 11.5
t7 11.5l303 419l4 -9h-262q-12 0 -20.5 8.5t-8.5 19.5q0 12 8.5 20t20.5 8h307q11 0 19.5 -9t8.5 -21q0 -6 -2 -11t-6 -11l-301 -415l-12 5h286zM850 569q-22 0 -34 16l-71 78q-8 8 -8 17q0 7 5.5 11.5t13.5 4.5q10 0 26 -13l84 -68l-14 -2l82 70q8 7 14.5 10.5t13.5 3.5
q8 0 13 -4.5t5 -11.5q0 -4 -2 -8.5t-7 -9.5l-72 -78q-11 -16 -33 -16h-16z" />
    <glyph glyph-name="e" unicode="e" horiz-adv-x="556" 
d="M306 -10q-77 0 -136 33t-92 92t-33 138q0 85 33.5 145t87 92.5t113.5 32.5q44 0 85.5 -15.5t73.5 -46t52 -74.5t21 -102q0 -12 -9 -20.5t-21 -8.5h-401l-12 54h394l-13 -12v20q-5 47 -31 80t-62.5 50t-76.5 17q-30 0 -61.5 -12t-57 -37.5t-41.5 -65t-16 -93.5
q0 -59 24 -107t69 -76t109 -28q34 0 62 10t49.5 26.5t35.5 34.5q11 9 21 9q11 0 18.5 -8t7.5 -18q0 -12 -10 -21q-30 -36 -78 -62.5t-105 -26.5z" />
    <glyph glyph-name="eacute" unicode="&#xe9;" horiz-adv-x="556" 
d="M306 -10q-77 0 -136 33t-92 92t-33 138q0 85 33.5 145t87 92.5t113.5 32.5q44 0 85.5 -15.5t73.5 -46t52 -74.5t21 -102q0 -12 -9 -20.5t-21 -8.5h-401l-12 54h394l-13 -12v20q-5 47 -31 80t-62.5 50t-76.5 17q-30 0 -61.5 -12t-57 -37.5t-41.5 -65t-16 -93.5
q0 -59 24 -107t69 -76t109 -28q34 0 62 10t49.5 26.5t35.5 34.5q11 9 21 9q11 0 18.5 -8t7.5 -18q0 -12 -10 -21q-30 -36 -78 -62.5t-105 -26.5zM270 552q-5 0 -10.5 5.5t-5.5 12.5q0 6 5 14l61 95q5 8 13.5 15t20.5 7q15 0 24 -8t8 -23q0 -7 -2.5 -12.5t-7.5 -10.5l-75 -79
q-6 -7 -14 -11.5t-17 -4.5z" />
    <glyph glyph-name="ebreve" unicode="&#x115;" horiz-adv-x="556" 
d="M306 -10q-77 0 -136 33t-92 92t-33 138q0 85 33.5 145t87 92.5t113.5 32.5q44 0 85.5 -15.5t73.5 -46t52 -74.5t21 -102q0 -12 -9 -20.5t-21 -8.5h-401l-12 54h394l-13 -12v20q-5 47 -31 80t-62.5 50t-76.5 17q-30 0 -61.5 -12t-57 -37.5t-41.5 -65t-16 -93.5
q0 -59 24 -107t69 -76t109 -28q34 0 62 10t49.5 26.5t35.5 34.5q11 9 21 9q11 0 18.5 -8t7.5 -18q0 -12 -10 -21q-30 -36 -78 -62.5t-105 -26.5zM276 573q-34 0 -62.5 16.5t-47 44t-21.5 59.5q-2 12 4.5 20t17.5 8q13 0 20 -6.5t11 -17.5q6 -36 27.5 -55.5t50.5 -19.5
q28 0 49.5 20t28.5 55q5 11 11.5 17.5t18.5 6.5q11 0 18 -8t4 -19q-3 -32 -21 -60t-46 -44.5t-63 -16.5z" />
    <glyph glyph-name="ecaron" unicode="&#x11b;" horiz-adv-x="556" 
d="M306 -10q-77 0 -136 33t-92 92t-33 138q0 85 33.5 145t87 92.5t113.5 32.5q44 0 85.5 -15.5t73.5 -46t52 -74.5t21 -102q0 -12 -9 -20.5t-21 -8.5h-401l-12 54h394l-13 -12v20q-5 47 -31 80t-62.5 50t-76.5 17q-30 0 -61.5 -12t-57 -37.5t-41.5 -65t-16 -93.5
q0 -59 24 -107t69 -76t109 -28q34 0 62 10t49.5 26.5t35.5 34.5q11 9 21 9q11 0 18.5 -8t7.5 -18q0 -12 -10 -21q-30 -36 -78 -62.5t-105 -26.5zM274 569q-22 0 -34 16l-71 78q-8 8 -8 17q0 7 5.5 11.5t13.5 4.5q10 0 26 -13l84 -68l-14 -2l82 70q8 7 14.5 10.5t13.5 3.5
q8 0 13 -4.5t5 -11.5q0 -4 -2 -8.5t-7 -9.5l-72 -78q-11 -16 -33 -16h-16z" />
    <glyph glyph-name="uni1E1D" unicode="&#x1e1d;" horiz-adv-x="556" 
d="M306 -10q-77 0 -136 33t-92 92t-33 138q0 85 33.5 145t87 92.5t113.5 32.5q44 0 85.5 -15.5t73.5 -46t52 -74.5t21 -102q0 -12 -9 -20.5t-21 -8.5h-401l-12 54h394l-13 -12v20q-5 47 -31 80t-62.5 50t-76.5 17q-30 0 -61.5 -12t-57 -37.5t-41.5 -65t-16 -93.5
q0 -59 24 -107t69 -76t109 -28q34 0 62 10t49.5 26.5t35.5 34.5q11 9 21 9q11 0 18.5 -8t7.5 -18q0 -12 -10 -21q-30 -36 -78 -62.5t-105 -26.5zM255 -143q-7 0 -17 4t-18 11t-8 16q0 11 7 18l87 109h39l-64 -139q-9 -19 -26 -19zM276 573q-34 0 -62.5 16.5t-47 44
t-21.5 59.5q-2 12 4.5 20t17.5 8q13 0 20 -6.5t11 -17.5q6 -36 27.5 -55.5t50.5 -19.5q28 0 49.5 20t28.5 55q5 11 11.5 17.5t18.5 6.5q11 0 18 -8t4 -19q-3 -32 -21 -60t-46 -44.5t-63 -16.5z" />
    <glyph glyph-name="ecircumflex" unicode="&#xea;" horiz-adv-x="556" 
d="M306 -10q-77 0 -136 33t-92 92t-33 138q0 85 33.5 145t87 92.5t113.5 32.5q44 0 85.5 -15.5t73.5 -46t52 -74.5t21 -102q0 -12 -9 -20.5t-21 -8.5h-401l-12 54h394l-13 -12v20q-5 47 -31 80t-62.5 50t-76.5 17q-30 0 -61.5 -12t-57 -37.5t-41.5 -65t-16 -93.5
q0 -59 24 -107t69 -76t109 -28q34 0 62 10t49.5 26.5t35.5 34.5q11 9 21 9q11 0 18.5 -8t7.5 -18q0 -12 -10 -21q-30 -36 -78 -62.5t-105 -26.5zM294 662l-87 -73q-7 -6 -12.5 -10t-13.5 -4q-7 0 -12 5t-5 11q0 4 1.5 8t6.5 8l73 80q11 17 33 17h16q11 0 18.5 -3.5
t13.5 -13.5l72 -79q4 -5 5.5 -8.5t1.5 -8.5t-4.5 -10t-11.5 -5q-8 0 -14 4t-13 10l-89 71z" />
    <glyph glyph-name="uni1EBF" unicode="&#x1ebf;" horiz-adv-x="556" 
d="M306 -10q-77 0 -136 33t-92 92t-33 138q0 85 33.5 145t87 92.5t113.5 32.5q44 0 85.5 -15.5t73.5 -46t52 -74.5t21 -102q0 -12 -9 -20.5t-21 -8.5h-401l-12 54h394l-13 -12v20q-5 47 -31 80t-62.5 50t-76.5 17q-30 0 -61.5 -12t-57 -37.5t-41.5 -65t-16 -93.5
q0 -59 24 -107t69 -76t109 -28q34 0 62 10t49.5 26.5t35.5 34.5q11 9 21 9q11 0 18.5 -8t7.5 -18q0 -12 -10 -21q-30 -36 -78 -62.5t-105 -26.5zM286 658l-87 -73q-7 -6 -12.5 -10t-13.5 -4q-7 0 -12 5t-5 11q0 4 1.5 8t6.5 8l73 80q11 17 33 17h16q11 0 18.5 -3.5
t13.5 -13.5l72 -79q4 -5 5.5 -8.5t1.5 -8.5t-4.5 -10t-11.5 -5q-8 0 -14 4t-13 10l-89 71zM391 654q-5 0 -10.5 5.5t-5.5 12.5q0 6 5 14l61 95q5 8 13.5 15t20.5 7q15 0 24 -8t8 -23q0 -7 -2.5 -12.5t-7.5 -10.5l-75 -79q-6 -7 -14 -11.5t-17 -4.5z" />
    <glyph glyph-name="uni1EC7" unicode="&#x1ec7;" horiz-adv-x="556" 
d="M306 -10q-77 0 -136 33t-92 92t-33 138q0 85 33.5 145t87 92.5t113.5 32.5q44 0 85.5 -15.5t73.5 -46t52 -74.5t21 -102q0 -12 -9 -20.5t-21 -8.5h-401l-12 54h394l-13 -12v20q-5 47 -31 80t-62.5 50t-76.5 17q-30 0 -61.5 -12t-57 -37.5t-41.5 -65t-16 -93.5
q0 -59 24 -107t69 -76t109 -28q34 0 62 10t49.5 26.5t35.5 34.5q11 9 21 9q11 0 18.5 -8t7.5 -18q0 -12 -10 -21q-30 -36 -78 -62.5t-105 -26.5zM278 -137q-21 0 -31.5 9.5t-10.5 27.5v10q0 18 11.5 27.5t30.5 9.5q20 0 30.5 -9.5t10.5 -27.5v-10q0 -18 -10.5 -27.5
t-30.5 -9.5zM294 662l-87 -73q-7 -6 -12.5 -10t-13.5 -4q-7 0 -12 5t-5 11q0 4 1.5 8t6.5 8l73 80q11 17 33 17h16q11 0 18.5 -3.5t13.5 -13.5l72 -79q4 -5 5.5 -8.5t1.5 -8.5t-4.5 -10t-11.5 -5q-8 0 -14 4t-13 10l-89 71z" />
    <glyph glyph-name="uni1EC1" unicode="&#x1ec1;" horiz-adv-x="556" 
d="M306 -10q-77 0 -136 33t-92 92t-33 138q0 85 33.5 145t87 92.5t113.5 32.5q44 0 85.5 -15.5t73.5 -46t52 -74.5t21 -102q0 -12 -9 -20.5t-21 -8.5h-401l-12 54h394l-13 -12v20q-5 47 -31 80t-62.5 50t-76.5 17q-30 0 -61.5 -12t-57 -37.5t-41.5 -65t-16 -93.5
q0 -59 24 -107t69 -76t109 -28q34 0 62 10t49.5 26.5t35.5 34.5q11 9 21 9q11 0 18.5 -8t7.5 -18q0 -12 -10 -21q-30 -36 -78 -62.5t-105 -26.5zM280 658l-87 -73q-7 -6 -12.5 -10t-13.5 -4q-7 0 -12 5t-5 11q0 4 1.5 8t6.5 8l73 80q11 17 33 17h16q11 0 18.5 -3.5
t13.5 -13.5l72 -79q4 -5 5.5 -8.5t1.5 -8.5t-4.5 -10t-11.5 -5q-8 0 -14 4t-13 10l-89 71zM401 677q-7 0 -13.5 4t-11.5 8l-79 73q-6 5 -10 11.5t-4 14.5q0 14 9 21.5t21 7.5q11 0 19 -5.5t12 -11.5l68 -89q8 -9 8 -16t-5.5 -12.5t-13.5 -5.5z" />
    <glyph glyph-name="uni1EC3" unicode="&#x1ec3;" horiz-adv-x="556" 
d="M306 -10q-77 0 -136 33t-92 92t-33 138q0 85 33.5 145t87 92.5t113.5 32.5q44 0 85.5 -15.5t73.5 -46t52 -74.5t21 -102q0 -12 -9 -20.5t-21 -8.5h-401l-12 54h394l-13 -12v20q-5 47 -31 80t-62.5 50t-76.5 17q-30 0 -61.5 -12t-57 -37.5t-41.5 -65t-16 -93.5
q0 -59 24 -107t69 -76t109 -28q34 0 62 10t49.5 26.5t35.5 34.5q11 9 21 9q11 0 18.5 -8t7.5 -18q0 -12 -10 -21q-30 -36 -78 -62.5t-105 -26.5zM290 660l-87 -73q-7 -6 -12.5 -10t-13.5 -4q-7 0 -12 5t-5 11q0 4 1.5 8t6.5 8l73 80q11 17 33 17h16q11 0 18.5 -3.5
t13.5 -13.5l72 -79q4 -5 5.5 -8.5t1.5 -8.5t-4.5 -10t-11.5 -5q-8 0 -14 4t-13 10l-89 71zM344 779q15 13 33.5 22t41.5 9q31 0 48.5 -12t25 -29.5t7.5 -32.5q0 -17 -9 -30.5t-24 -29.5q-6 -6 -9 -12t-4 -15q-1 -8 -7 -13t-14 -5q-10 0 -15.5 6t-5.5 13q0 9 2.5 19.5
t12.5 20.5q12 13 20.5 23t8.5 22q0 13 -11 21.5t-26 8.5q-13 0 -24.5 -5.5t-20.5 -12.5q-8 -7 -17 -7.5t-17 7.5q-6 7 -5 15.5t9 16.5z" />
    <glyph glyph-name="uni1EC5" unicode="&#x1ec5;" horiz-adv-x="556" 
d="M306 -10q-77 0 -136 33t-92 92t-33 138q0 85 33.5 145t87 92.5t113.5 32.5q44 0 85.5 -15.5t73.5 -46t52 -74.5t21 -102q0 -12 -9 -20.5t-21 -8.5h-401l-12 54h394l-13 -12v20q-5 47 -31 80t-62.5 50t-76.5 17q-30 0 -61.5 -12t-57 -37.5t-41.5 -65t-16 -93.5
q0 -59 24 -107t69 -76t109 -28q34 0 62 10t49.5 26.5t35.5 34.5q11 9 21 9q11 0 18.5 -8t7.5 -18q0 -12 -10 -21q-30 -36 -78 -62.5t-105 -26.5zM292 649l-87 -73q-7 -6 -12.5 -10t-13.5 -4q-7 0 -12 5t-5 11q0 4 1.5 8t6.5 8l73 80q11 17 33 17h16q11 0 18.5 -3.5
t13.5 -13.5l72 -79q4 -5 5.5 -8.5t1.5 -8.5t-4.5 -10t-11.5 -5q-8 0 -14 4t-13 10l-89 71zM157 703q-16 0 -20.5 11t-1.5 32q6 33 31 50.5t59 17.5q18 0 36.5 -9t36.5 -20t33.5 -20t28.5 -9q14 0 22.5 10t9.5 28q-1 11 6 18t17 7q17 0 22 -11.5t3 -30.5q-4 -22 -15.5 -38
t-29.5 -24.5t-42 -8.5q-15 0 -33.5 8.5t-36.5 19.5t-34.5 19.5t-30.5 8.5q-13 0 -23 -8.5t-15 -28.5q1 -10 -6.5 -16t-16.5 -6z" />
    <glyph glyph-name="uni0205" unicode="&#x205;" horiz-adv-x="556" 
d="M306 -10q-77 0 -136 33t-92 92t-33 138q0 85 33.5 145t87 92.5t113.5 32.5q44 0 85.5 -15.5t73.5 -46t52 -74.5t21 -102q0 -12 -9 -20.5t-21 -8.5h-401l-12 54h394l-13 -12v20q-5 47 -31 80t-62.5 50t-76.5 17q-30 0 -61.5 -12t-57 -37.5t-41.5 -65t-16 -93.5
q0 -59 24 -107t69 -76t109 -28q34 0 62 10t49.5 26.5t35.5 34.5q11 9 21 9q11 0 18.5 -8t7.5 -18q0 -12 -10 -21q-30 -36 -78 -62.5t-105 -26.5zM376 595q-7 0 -13.5 4t-11.5 8l-79 73q-6 5 -10 11.5t-4 14.5q0 14 9 21.5t21 7.5q11 0 19 -5.5t12 -11.5l68 -89q8 -9 8 -16
t-5.5 -12.5t-13.5 -5.5zM233 595q-6 0 -13 4t-12 8l-78 73q-7 5 -11 11.5t-4 14.5q0 14 9 21.5t21 7.5t19.5 -5.5t12.5 -11.5l68 -89q7 -9 7 -16t-5 -12.5t-14 -5.5z" />
    <glyph glyph-name="edieresis" unicode="&#xeb;" horiz-adv-x="556" 
d="M306 -10q-77 0 -136 33t-92 92t-33 138q0 85 33.5 145t87 92.5t113.5 32.5q44 0 85.5 -15.5t73.5 -46t52 -74.5t21 -102q0 -12 -9 -20.5t-21 -8.5h-401l-12 54h394l-13 -12v20q-5 47 -31 80t-62.5 50t-76.5 17q-30 0 -61.5 -12t-57 -37.5t-41.5 -65t-16 -93.5
q0 -59 24 -107t69 -76t109 -28q34 0 62 10t49.5 26.5t35.5 34.5q11 9 21 9q11 0 18.5 -8t7.5 -18q0 -12 -10 -21q-30 -36 -78 -62.5t-105 -26.5zM360 592q-20 0 -30.5 10.5t-10.5 29.5v10q0 19 11 29.5t31 10.5q19 0 29.5 -10.5t10.5 -29.5v-10q0 -20 -11 -30t-30 -10z
M188 592q-20 0 -30.5 10.5t-10.5 29.5v10q0 19 11 29.5t30 10.5q20 0 30.5 -10.5t10.5 -29.5v-10q0 -20 -11 -30t-30 -10z" />
    <glyph glyph-name="edotaccent" unicode="&#x117;" horiz-adv-x="556" 
d="M306 -10q-77 0 -136 33t-92 92t-33 138q0 85 33.5 145t87 92.5t113.5 32.5q44 0 85.5 -15.5t73.5 -46t52 -74.5t21 -102q0 -12 -9 -20.5t-21 -8.5h-401l-12 54h394l-13 -12v20q-5 47 -31 80t-62.5 50t-76.5 17q-30 0 -61.5 -12t-57 -37.5t-41.5 -65t-16 -93.5
q0 -59 24 -107t69 -76t109 -28q34 0 62 10t49.5 26.5t35.5 34.5q11 9 21 9q11 0 18.5 -8t7.5 -18q0 -12 -10 -21q-30 -36 -78 -62.5t-105 -26.5zM283 587q-21 0 -31.5 9.5t-10.5 27.5v10q0 18 11.5 27.5t31.5 9.5q19 0 29.5 -9.5t10.5 -27.5v-10q0 -18 -10.5 -27.5
t-30.5 -9.5z" />
    <glyph glyph-name="uni1EB9" unicode="&#x1eb9;" horiz-adv-x="556" 
d="M306 -10q-77 0 -136 33t-92 92t-33 138q0 85 33.5 145t87 92.5t113.5 32.5q44 0 85.5 -15.5t73.5 -46t52 -74.5t21 -102q0 -12 -9 -20.5t-21 -8.5h-401l-12 54h394l-13 -12v20q-5 47 -31 80t-62.5 50t-76.5 17q-30 0 -61.5 -12t-57 -37.5t-41.5 -65t-16 -93.5
q0 -59 24 -107t69 -76t109 -28q34 0 62 10t49.5 26.5t35.5 34.5q11 9 21 9q11 0 18.5 -8t7.5 -18q0 -12 -10 -21q-30 -36 -78 -62.5t-105 -26.5zM278 -137q-21 0 -31.5 9.5t-10.5 27.5v10q0 18 11.5 27.5t30.5 9.5q20 0 30.5 -9.5t10.5 -27.5v-10q0 -18 -10.5 -27.5
t-30.5 -9.5z" />
    <glyph glyph-name="egrave" unicode="&#xe8;" horiz-adv-x="556" 
d="M306 -10q-77 0 -136 33t-92 92t-33 138q0 85 33.5 145t87 92.5t113.5 32.5q44 0 85.5 -15.5t73.5 -46t52 -74.5t21 -102q0 -12 -9 -20.5t-21 -8.5h-401l-12 54h394l-13 -12v20q-5 47 -31 80t-62.5 50t-76.5 17q-30 0 -61.5 -12t-57 -37.5t-41.5 -65t-16 -93.5
q0 -59 24 -107t69 -76t109 -28q34 0 62 10t49.5 26.5t35.5 34.5q11 9 21 9q11 0 18.5 -8t7.5 -18q0 -12 -10 -21q-30 -36 -78 -62.5t-105 -26.5zM285 559q-7 0 -13.5 4t-11.5 8l-79 73q-6 5 -10 11.5t-4 14.5q0 14 9 21.5t21 7.5q11 0 19 -5.5t12 -11.5l68 -89q8 -9 8 -16
t-5.5 -12.5t-13.5 -5.5z" />
    <glyph glyph-name="uni1EBB" unicode="&#x1ebb;" horiz-adv-x="556" 
d="M306 -10q-77 0 -136 33t-92 92t-33 138q0 85 33.5 145t87 92.5t113.5 32.5q44 0 85.5 -15.5t73.5 -46t52 -74.5t21 -102q0 -12 -9 -20.5t-21 -8.5h-401l-12 54h394l-13 -12v20q-5 47 -31 80t-62.5 50t-76.5 17q-30 0 -61.5 -12t-57 -37.5t-41.5 -65t-16 -93.5
q0 -59 24 -107t69 -76t109 -28q34 0 62 10t49.5 26.5t35.5 34.5q11 9 21 9q11 0 18.5 -8t7.5 -18q0 -12 -10 -21q-30 -36 -78 -62.5t-105 -26.5zM206 706q15 13 33.5 22t41.5 9q31 0 48.5 -12t25 -29.5t7.5 -32.5q0 -17 -9 -30.5t-24 -29.5q-6 -6 -9 -12t-4 -15
q-1 -8 -7 -13t-14 -5q-10 0 -15.5 6t-5.5 13q0 9 2.5 19.5t12.5 20.5q12 13 20.5 23t8.5 22q0 13 -11 21.5t-26 8.5q-13 0 -24.5 -5.5t-20.5 -12.5q-8 -7 -17 -7.5t-17 7.5q-6 7 -5 15.5t9 16.5z" />
    <glyph glyph-name="uni0207" unicode="&#x207;" horiz-adv-x="556" 
d="M306 -10q-77 0 -136 33t-92 92t-33 138q0 85 33.5 145t87 92.5t113.5 32.5q44 0 85.5 -15.5t73.5 -46t52 -74.5t21 -102q0 -12 -9 -20.5t-21 -8.5h-401l-12 54h394l-13 -12v20q-5 47 -31 80t-62.5 50t-76.5 17q-30 0 -61.5 -12t-57 -37.5t-41.5 -65t-16 -93.5
q0 -59 24 -107t69 -76t109 -28q34 0 62 10t49.5 26.5t35.5 34.5q11 9 21 9q11 0 18.5 -8t7.5 -18q0 -12 -10 -21q-30 -36 -78 -62.5t-105 -26.5zM291 722q35 0 63 -16.5t46 -44t21 -60.5q3 -12 -4 -19.5t-18 -7.5q-12 0 -19 6.5t-11 17.5q-6 36 -28 55t-50 19
q-29 0 -50.5 -20t-27.5 -54q-4 -11 -11 -17.5t-20 -6.5q-11 0 -17.5 7.5t-4.5 18.5q3 34 21 61t46.5 44t63.5 17z" />
    <glyph glyph-name="emacron" unicode="&#x113;" horiz-adv-x="556" 
d="M306 -10q-77 0 -136 33t-92 92t-33 138q0 85 33.5 145t87 92.5t113.5 32.5q44 0 85.5 -15.5t73.5 -46t52 -74.5t21 -102q0 -12 -9 -20.5t-21 -8.5h-401l-12 54h394l-13 -12v20q-5 47 -31 80t-62.5 50t-76.5 17q-30 0 -61.5 -12t-57 -37.5t-41.5 -65t-16 -93.5
q0 -59 24 -107t69 -76t109 -28q34 0 62 10t49.5 26.5t35.5 34.5q11 9 21 9q11 0 18.5 -8t7.5 -18q0 -12 -10 -21q-30 -36 -78 -62.5t-105 -26.5zM161 604q-28 0 -28 26q0 27 28 27h240q28 0 28 -27q0 -26 -28 -26h-240z" />
    <glyph glyph-name="uni1E17" unicode="&#x1e17;" horiz-adv-x="556" 
d="M306 -10q-77 0 -136 33t-92 92t-33 138q0 85 33.5 145t87 92.5t113.5 32.5q44 0 85.5 -15.5t73.5 -46t52 -74.5t21 -102q0 -12 -9 -20.5t-21 -8.5h-401l-12 54h394l-13 -12v20q-5 47 -31 80t-62.5 50t-76.5 17q-30 0 -61.5 -12t-57 -37.5t-41.5 -65t-16 -93.5
q0 -59 24 -107t69 -76t109 -28q34 0 62 10t49.5 26.5t35.5 34.5q11 9 21 9q11 0 18.5 -8t7.5 -18q0 -12 -10 -21q-30 -36 -78 -62.5t-105 -26.5zM161 604q-28 0 -28 26q0 27 28 27h240q28 0 28 -27q0 -26 -28 -26h-240zM270 735q-5 0 -10.5 5.5t-5.5 12.5q0 6 5 14l61 95
q5 8 13.5 15t20.5 7q15 0 24 -8t8 -23q0 -7 -2.5 -12.5t-7.5 -10.5l-75 -79q-6 -7 -14 -11.5t-17 -4.5z" />
    <glyph glyph-name="uni1E15" unicode="&#x1e15;" horiz-adv-x="556" 
d="M306 -10q-77 0 -136 33t-92 92t-33 138q0 85 33.5 145t87 92.5t113.5 32.5q44 0 85.5 -15.5t73.5 -46t52 -74.5t21 -102q0 -12 -9 -20.5t-21 -8.5h-401l-12 54h394l-13 -12v20q-5 47 -31 80t-62.5 50t-76.5 17q-30 0 -61.5 -12t-57 -37.5t-41.5 -65t-16 -93.5
q0 -59 24 -107t69 -76t109 -28q34 0 62 10t49.5 26.5t35.5 34.5q11 9 21 9q11 0 18.5 -8t7.5 -18q0 -12 -10 -21q-30 -36 -78 -62.5t-105 -26.5zM161 604q-28 0 -28 26q0 27 28 27h240q28 0 28 -27q0 -26 -28 -26h-240zM285 743q-7 0 -13.5 4t-11.5 8l-79 73q-6 5 -10 11.5
t-4 14.5q0 14 9 21.5t21 7.5q11 0 19 -5.5t12 -11.5l68 -89q8 -9 8 -16t-5.5 -12.5t-13.5 -5.5z" />
    <glyph glyph-name="eogonek" unicode="&#x119;" horiz-adv-x="556" 
d="M418 -190q-25 0 -47.5 11.5t-37 32.5t-14.5 51q0 24 8 43t21.5 34t31 27t36.5 22l-17 -20q-20 -9 -44 -15t-49 -6q-77 0 -136 33t-92 92t-33 138q0 85 33.5 145t87 92.5t113.5 32.5q44 0 85.5 -15.5t73.5 -46t52 -74.5t21 -102q0 -12 -9 -20.5t-21 -8.5h-403l-5 54h390
l-14 -15v23q-5 47 -31 80t-62.5 50t-76.5 17q-46 0 -86 -23t-65 -69.5t-25 -115.5q0 -59 24 -107t69 -76t109 -28q34 0 62 10t49.5 26.5t35.5 34.5q11 9 21 9q12 0 19.5 -8.5t7.5 -18.5q0 -5 -2.5 -10t-8.5 -10q-27 -32 -54 -57t-45 -49.5t-18 -57.5q0 -24 15 -39t37 -15
q21 0 29 11q6 8 12.5 12t13.5 4q11 0 17 -6t6 -17t-13 -24t-32.5 -22t-38.5 -9z" />
    <glyph glyph-name="uni1EBD" unicode="&#x1ebd;" horiz-adv-x="556" 
d="M306 -10q-77 0 -136 33t-92 92t-33 138q0 85 33.5 145t87 92.5t113.5 32.5q44 0 85.5 -15.5t73.5 -46t52 -74.5t21 -102q0 -12 -9 -20.5t-21 -8.5h-401l-12 54h394l-13 -12v20q-5 47 -31 80t-62.5 50t-76.5 17q-30 0 -61.5 -12t-57 -37.5t-41.5 -65t-16 -93.5
q0 -59 24 -107t69 -76t109 -28q34 0 62 10t49.5 26.5t35.5 34.5q11 9 21 9q11 0 18.5 -8t7.5 -18q0 -12 -10 -21q-30 -36 -78 -62.5t-105 -26.5zM154 582q-16 0 -20.5 11t-1.5 32q6 33 31 50.5t59 17.5q18 0 36.5 -9t36.5 -20t33.5 -20t28.5 -9q14 0 22.5 10t9.5 28
q-1 11 6 18t17 7q17 0 22 -11.5t3 -30.5q-4 -22 -15.5 -38t-29.5 -24.5t-42 -8.5q-15 0 -33.5 8.5t-36.5 19.5t-34.5 19.5t-30.5 8.5q-13 0 -23 -8.5t-15 -28.5q1 -10 -6.5 -16t-16.5 -6z" />
    <glyph glyph-name="uni0259" unicode="&#x259;" horiz-adv-x="556" 
d="M250 516q77 0 136 -33t92 -92t33 -138q0 -85 -33.5 -145t-87 -92.5t-113.5 -32.5q-44 0 -85.5 15.5t-73.5 46t-52 74.5t-21 102q0 12 9 20.5t21 8.5h401l12 -54h-394l13 12v-20q5 -47 31 -80t62.5 -50t76.5 -17q30 0 61.5 12t57 37.5t41.5 65t16 93.5q0 59 -24 107
t-69 76t-109 28q-34 0 -62 -10t-49.5 -26.5t-35.5 -34.5q-11 -9 -21 -9q-11 0 -18.5 8t-7.5 18q0 12 10 21q30 36 78 62.5t105 26.5z" />
    <glyph glyph-name="f" unicode="f" horiz-adv-x="353" 
d="M264 736q15 0 32.5 -3t30.5 -10.5t13 -22.5q0 -11 -8 -19.5t-18 -8.5t-25 5.5t-32 5.5q-21 0 -36 -9.5t-23 -27t-8 -42.5v-574q0 -12 -8.5 -21t-21.5 -9t-21.5 9t-8.5 21v574q0 64 37.5 98t96.5 34zM302 501q12 0 20 -8t8 -20t-8 -20t-20 -8h-245q-11 0 -19.5 8.5
t-8.5 19.5q0 13 8.5 20.5t19.5 7.5h245z" />
    <glyph glyph-name="g" unicode="g" horiz-adv-x="620" 
d="M288 523q44 0 82 -15.5t66.5 -40t44.5 -52t16 -52.5l-16 24v93q0 13 8.5 22t21.5 9t21.5 -9t8.5 -22v-433q0 -80 -33 -135t-89.5 -83.5t-128.5 -28.5q-35 0 -73.5 9t-66 23t-31.5 29q-7 9 -6.5 17.5t8.5 14.5q9 7 20.5 1.5t33.5 -14.5q9 -3 26.5 -9t41 -10.5t48.5 -4.5
q90 0 140 51.5t50 135.5v96l11 -3q-9 -36 -30 -63t-49 -45.5t-60 -28t-64 -9.5q-69 0 -124.5 35t-87.5 95t-32 137q0 76 32 136.5t87 95t124 34.5zM294 467q-54 0 -97.5 -27.5t-68 -75t-24.5 -107.5t24.5 -108t68 -75.5t97.5 -27.5q55 0 98 27t68 74.5t25 109.5t-25 109.5
t-68 74t-98 26.5z" />
    <glyph glyph-name="gbreve" unicode="&#x11f;" horiz-adv-x="620" 
d="M288 523q44 0 82 -15.5t66.5 -40t44.5 -52t16 -52.5l-16 24v93q0 13 8.5 22t21.5 9t21.5 -9t8.5 -22v-433q0 -80 -33 -135t-89.5 -83.5t-128.5 -28.5q-35 0 -73.5 9t-66 23t-31.5 29q-7 9 -6.5 17.5t8.5 14.5q9 7 20.5 1.5t33.5 -14.5q9 -3 26.5 -9t41 -10.5t48.5 -4.5
q90 0 140 51.5t50 135.5v96l11 -3q-9 -36 -30 -63t-49 -45.5t-60 -28t-64 -9.5q-69 0 -124.5 35t-87.5 95t-32 137q0 76 32 136.5t87 95t124 34.5zM294 467q-54 0 -97.5 -27.5t-68 -75t-24.5 -107.5t24.5 -108t68 -75.5t97.5 -27.5q55 0 98 27t68 74.5t25 109.5t-25 109.5
t-68 74t-98 26.5zM303 573q-34 0 -62.5 16.5t-47 44t-21.5 59.5q-2 12 4.5 20t17.5 8q13 0 20 -6.5t11 -17.5q6 -36 27.5 -55.5t50.5 -19.5q28 0 49.5 20t28.5 55q5 11 11.5 17.5t18.5 6.5q11 0 18 -8t4 -19q-3 -32 -21 -60t-46 -44.5t-63 -16.5z" />
    <glyph glyph-name="gcaron" unicode="&#x1e7;" horiz-adv-x="620" 
d="M288 523q44 0 82 -15.5t66.5 -40t44.5 -52t16 -52.5l-16 24v93q0 13 8.5 22t21.5 9t21.5 -9t8.5 -22v-433q0 -80 -33 -135t-89.5 -83.5t-128.5 -28.5q-35 0 -73.5 9t-66 23t-31.5 29q-7 9 -6.5 17.5t8.5 14.5q9 7 20.5 1.5t33.5 -14.5q9 -3 26.5 -9t41 -10.5t48.5 -4.5
q90 0 140 51.5t50 135.5v96l11 -3q-9 -36 -30 -63t-49 -45.5t-60 -28t-64 -9.5q-69 0 -124.5 35t-87.5 95t-32 137q0 76 32 136.5t87 95t124 34.5zM294 467q-54 0 -97.5 -27.5t-68 -75t-24.5 -107.5t24.5 -108t68 -75.5t97.5 -27.5q55 0 98 27t68 74.5t25 109.5t-25 109.5
t-68 74t-98 26.5zM301 569q-22 0 -34 16l-71 78q-8 8 -8 17q0 7 5.5 11.5t13.5 4.5q10 0 26 -13l84 -68l-14 -2l82 70q8 7 14.5 10.5t13.5 3.5q8 0 13 -4.5t5 -11.5q0 -4 -2 -8.5t-7 -9.5l-72 -78q-11 -16 -33 -16h-16z" />
    <glyph glyph-name="gcircumflex" unicode="&#x11d;" horiz-adv-x="620" 
d="M288 523q44 0 82 -15.5t66.5 -40t44.5 -52t16 -52.5l-16 24v93q0 13 8.5 22t21.5 9t21.5 -9t8.5 -22v-433q0 -80 -33 -135t-89.5 -83.5t-128.5 -28.5q-35 0 -73.5 9t-66 23t-31.5 29q-7 9 -6.5 17.5t8.5 14.5q9 7 20.5 1.5t33.5 -14.5q9 -3 26.5 -9t41 -10.5t48.5 -4.5
q90 0 140 51.5t50 135.5v96l11 -3q-9 -36 -30 -63t-49 -45.5t-60 -28t-64 -9.5q-69 0 -124.5 35t-87.5 95t-32 137q0 76 32 136.5t87 95t124 34.5zM294 467q-54 0 -97.5 -27.5t-68 -75t-24.5 -107.5t24.5 -108t68 -75.5t97.5 -27.5q55 0 98 27t68 74.5t25 109.5t-25 109.5
t-68 74t-98 26.5zM321 662l-87 -73q-7 -6 -12.5 -10t-13.5 -4q-7 0 -12 5t-5 11q0 4 1.5 8t6.5 8l73 80q11 17 33 17h16q11 0 18.5 -3.5t13.5 -13.5l72 -79q4 -5 5.5 -8.5t1.5 -8.5t-4.5 -10t-11.5 -5q-8 0 -14 4t-13 10l-89 71z" />
    <glyph glyph-name="uni0123" unicode="&#x123;" horiz-adv-x="620" 
d="M254 642q0 22 8.5 43.5t23 39.5t30.5 28.5t32 10.5q10 0 18 -5.5t8 -16.5q0 -16 -11.5 -18.5t-24.5 -8.5q-14 -8 -21.5 -21.5t-7.5 -28.5q0 -11 6 -18t16 -7q7 0 14 2t13 6q5 -5 9 -11t3 -15q-1 -12 -9.5 -21.5t-21.5 -15t-26 -5.5q-26 0 -42.5 16.5t-16.5 45.5zM288 523
q44 0 82 -15.5t66.5 -40t44.5 -52t16 -52.5l-16 24v93q0 13 8.5 22t21.5 9t21.5 -9t8.5 -22v-433q0 -80 -33 -135t-89.5 -83.5t-128.5 -28.5q-35 0 -73.5 9t-66 23t-31.5 29q-7 9 -6.5 17.5t8.5 14.5q9 7 20.5 1.5t33.5 -14.5q9 -3 26.5 -9t41 -10.5t48.5 -4.5
q90 0 140 51.5t50 135.5v96l11 -3q-9 -36 -30 -63t-49 -45.5t-60 -28t-64 -9.5q-69 0 -124.5 35t-87.5 95t-32 137q0 76 32 136.5t87 95t124 34.5zM294 467q-54 0 -97.5 -27.5t-68 -75t-24.5 -107.5t24.5 -108t68 -75.5t97.5 -27.5q55 0 98 27t68 74.5t25 109.5t-25 109.5
t-68 74t-98 26.5z" />
    <glyph glyph-name="gdotaccent" unicode="&#x121;" horiz-adv-x="620" 
d="M288 523q44 0 82 -15.5t66.5 -40t44.5 -52t16 -52.5l-16 24v93q0 13 8.5 22t21.5 9t21.5 -9t8.5 -22v-433q0 -80 -33 -135t-89.5 -83.5t-128.5 -28.5q-35 0 -73.5 9t-66 23t-31.5 29q-7 9 -6.5 17.5t8.5 14.5q9 7 20.5 1.5t33.5 -14.5q9 -3 26.5 -9t41 -10.5t48.5 -4.5
q90 0 140 51.5t50 135.5v96l11 -3q-9 -36 -30 -63t-49 -45.5t-60 -28t-64 -9.5q-69 0 -124.5 35t-87.5 95t-32 137q0 76 32 136.5t87 95t124 34.5zM294 467q-54 0 -97.5 -27.5t-68 -75t-24.5 -107.5t24.5 -108t68 -75.5t97.5 -27.5q55 0 98 27t68 74.5t25 109.5t-25 109.5
t-68 74t-98 26.5zM310 587q-21 0 -31.5 9.5t-10.5 27.5v10q0 18 11.5 27.5t31.5 9.5q19 0 29.5 -9.5t10.5 -27.5v-10q0 -18 -10.5 -27.5t-30.5 -9.5z" />
    <glyph glyph-name="uni1E21" unicode="&#x1e21;" horiz-adv-x="620" 
d="M288 523q44 0 82 -15.5t66.5 -40t44.5 -52t16 -52.5l-16 24v93q0 13 8.5 22t21.5 9t21.5 -9t8.5 -22v-433q0 -80 -33 -135t-89.5 -83.5t-128.5 -28.5q-35 0 -73.5 9t-66 23t-31.5 29q-7 9 -6.5 17.5t8.5 14.5q9 7 20.5 1.5t33.5 -14.5q9 -3 26.5 -9t41 -10.5t48.5 -4.5
q90 0 140 51.5t50 135.5v96l11 -3q-9 -36 -30 -63t-49 -45.5t-60 -28t-64 -9.5q-69 0 -124.5 35t-87.5 95t-32 137q0 76 32 136.5t87 95t124 34.5zM294 467q-54 0 -97.5 -27.5t-68 -75t-24.5 -107.5t24.5 -108t68 -75.5t97.5 -27.5q55 0 98 27t68 74.5t25 109.5t-25 109.5
t-68 74t-98 26.5zM188 604q-28 0 -28 26q0 27 28 27h240q28 0 28 -27q0 -26 -28 -26h-240z" />
    <glyph glyph-name="h" unicode="h" horiz-adv-x="568" 
d="M312 515q63 0 102 -27t57.5 -73t18.5 -102v-283q0 -12 -9 -21t-21 -9q-14 0 -22 9t-8 21v283q0 41 -12.5 74t-40.5 52.5t-75 19.5q-42 0 -79.5 -19.5t-60.5 -52.5t-23 -74v-283q0 -12 -9 -21t-21 -9q-14 0 -22 9t-8 21v680q0 12 8.5 21t21.5 9t21.5 -9t8.5 -21v-324
l-23 -35q2 31 19.5 60.5t45.5 53t62 37t69 13.5z" />
    <glyph glyph-name="hbar" unicode="&#x127;" horiz-adv-x="568" 
d="M312 515q63 0 102 -27t57.5 -73t18.5 -102v-283q0 -12 -9 -21t-21 -9q-14 0 -22 9t-8 21v283q0 41 -12.5 74t-40.5 52.5t-75 19.5q-42 0 -79.5 -19.5t-60.5 -52.5t-23 -74v-283q0 -12 -9 -21t-21 -9q-14 0 -22 9t-8 21v680q0 12 8.5 21t21.5 9t21.5 -9t8.5 -21v-324
l-23 -35q2 31 19.5 60.5t45.5 53t62 37t69 13.5zM43 563q-14 0 -22 7.5t-8 21.5q0 12 8 19.5t22 7.5h164q14 0 22 -7.5t8 -20.5t-8 -20.5t-22 -7.5h-164z" />
    <glyph glyph-name="uni1E2B" unicode="&#x1e2b;" horiz-adv-x="568" 
d="M312 515q63 0 102 -27t57.5 -73t18.5 -102v-283q0 -12 -9 -21t-21 -9q-14 0 -22 9t-8 21v283q0 41 -12.5 74t-40.5 52.5t-75 19.5q-42 0 -79.5 -19.5t-60.5 -52.5t-23 -74v-283q0 -12 -9 -21t-21 -9q-14 0 -22 9t-8 21v680q0 12 8.5 21t21.5 9t21.5 -9t8.5 -21v-324
l-23 -35q2 31 19.5 60.5t45.5 53t62 37t69 13.5zM280 -161q-34 0 -62.5 16.5t-47 44t-21.5 59.5q-2 12 4.5 20t17.5 8q13 0 20 -6.5t11 -17.5q6 -36 27.5 -55.5t50.5 -19.5q28 0 49.5 20t28.5 55q5 11 11.5 17.5t18.5 6.5q11 0 18 -8t4 -19q-3 -32 -21 -60t-46 -44.5
t-63 -16.5z" />
    <glyph glyph-name="hcircumflex" unicode="&#x125;" horiz-adv-x="568" 
d="M312 515q63 0 102 -27t57.5 -73t18.5 -102v-283q0 -12 -9 -21t-21 -9q-14 0 -22 9t-8 21v283q0 41 -12.5 74t-40.5 52.5t-75 19.5q-42 0 -79.5 -19.5t-60.5 -52.5t-23 -74v-283q0 -12 -9 -21t-21 -9q-14 0 -22 9t-8 21v680q0 12 8.5 21t21.5 9t21.5 -9t8.5 -21v-324
l-23 -35q2 31 19.5 60.5t45.5 53t62 37t69 13.5zM116 853l-88 -69q-8 -5 -14.5 -9t-12.5 -4q-7 0 -12 5t-5 10t2 8.5t6 8.5l77 82q7 8 14.5 12.5t18.5 4.5h11q11 0 18.5 -4.5t15.5 -12.5l76 -81q5 -5 6.5 -9t1.5 -8q0 -5 -4.5 -10t-11.5 -5q-6 0 -12.5 3.5t-14.5 9.5l-90 65
z" />
    <glyph glyph-name="uni1E25" unicode="&#x1e25;" horiz-adv-x="568" 
d="M312 515q63 0 102 -27t57.5 -73t18.5 -102v-283q0 -12 -9 -21t-21 -9q-14 0 -22 9t-8 21v283q0 41 -12.5 74t-40.5 52.5t-75 19.5q-42 0 -79.5 -19.5t-60.5 -52.5t-23 -74v-283q0 -12 -9 -21t-21 -9q-14 0 -22 9t-8 21v680q0 12 8.5 21t21.5 9t21.5 -9t8.5 -21v-324
l-23 -35q2 31 19.5 60.5t45.5 53t62 37t69 13.5zM284 -137q-21 0 -31.5 9.5t-10.5 27.5v10q0 18 11.5 27.5t30.5 9.5q20 0 30.5 -9.5t10.5 -27.5v-10q0 -18 -10.5 -27.5t-30.5 -9.5z" />
    <glyph glyph-name="i" unicode="i" horiz-adv-x="214" 
d="M137 30q0 -12 -9 -21t-21 -9q-13 0 -21.5 9t-8.5 21v460q0 12 8.5 21t21.5 9t21.5 -9t8.5 -21v-460zM107 587q-21 0 -31.5 9.5t-10.5 27.5v10q0 18 11.5 27.5t31.5 9.5q19 0 29.5 -9.5t10.5 -27.5v-10q0 -18 -10.5 -27.5t-30.5 -9.5z" />
    <glyph glyph-name="dotlessi" unicode="&#x131;" horiz-adv-x="214" 
d="M137 30q0 -12 -9 -21t-21 -9q-13 0 -21.5 9t-8.5 21v460q0 12 8.5 21t21.5 9t21.5 -9t8.5 -21v-460z" />
    <glyph glyph-name="iacute" unicode="&#xed;" horiz-adv-x="214" 
d="M137 30q0 -12 -9 -21t-21 -9q-13 0 -21.5 9t-8.5 21v460q0 12 8.5 21t21.5 9t21.5 -9t8.5 -21v-460zM94 552q-5 0 -10.5 5.5t-5.5 12.5q0 6 5 14l61 95q5 8 13.5 15t20.5 7q15 0 24 -8t8 -23q0 -7 -2.5 -12.5t-7.5 -10.5l-75 -79q-6 -7 -14 -11.5t-17 -4.5z" />
    <glyph glyph-name="ibreve" unicode="&#x12d;" horiz-adv-x="214" 
d="M137 30q0 -12 -9 -21t-21 -9q-13 0 -21.5 9t-8.5 21v460q0 12 8.5 21t21.5 9t21.5 -9t8.5 -21v-460zM100 573q-34 0 -62.5 16.5t-47 44t-21.5 59.5q-2 12 4.5 20t17.5 8q13 0 20 -6.5t11 -17.5q6 -36 27.5 -55.5t50.5 -19.5q28 0 49.5 20t28.5 55q5 11 11.5 17.5
t18.5 6.5q11 0 18 -8t4 -19q-3 -32 -21 -60t-46 -44.5t-63 -16.5z" />
    <glyph glyph-name="uni01D0" unicode="&#x1d0;" horiz-adv-x="214" 
d="M137 30q0 -12 -9 -21t-21 -9q-13 0 -21.5 9t-8.5 21v460q0 12 8.5 21t21.5 9t21.5 -9t8.5 -21v-460zM98 569q-22 0 -34 16l-71 78q-8 8 -8 17q0 7 5.5 11.5t13.5 4.5q10 0 26 -13l84 -68l-14 -2l82 70q8 7 14.5 10.5t13.5 3.5q8 0 13 -4.5t5 -11.5q0 -4 -2 -8.5t-7 -9.5
l-72 -78q-11 -16 -33 -16h-16z" />
    <glyph glyph-name="icircumflex" unicode="&#xee;" horiz-adv-x="214" 
d="M137 30q0 -12 -9 -21t-21 -9q-13 0 -21.5 9t-8.5 21v460q0 12 8.5 21t21.5 9t21.5 -9t8.5 -21v-460zM118 662l-87 -73q-7 -6 -12.5 -10t-13.5 -4q-7 0 -12 5t-5 11q0 4 1.5 8t6.5 8l73 80q11 17 33 17h16q11 0 18.5 -3.5t13.5 -13.5l72 -79q4 -5 5.5 -8.5t1.5 -8.5
t-4.5 -10t-11.5 -5q-8 0 -14 4t-13 10l-89 71z" />
    <glyph glyph-name="uni0209" unicode="&#x209;" horiz-adv-x="214" 
d="M137 30q0 -12 -9 -21t-21 -9q-13 0 -21.5 9t-8.5 21v460q0 12 8.5 21t21.5 9t21.5 -9t8.5 -21v-460zM200 595q-7 0 -13.5 4t-11.5 8l-79 73q-6 5 -10 11.5t-4 14.5q0 14 9 21.5t21 7.5q11 0 19 -5.5t12 -11.5l68 -89q8 -9 8 -16t-5.5 -12.5t-13.5 -5.5zM57 595
q-6 0 -13 4t-12 8l-78 73q-7 5 -11 11.5t-4 14.5q0 14 9 21.5t21 7.5t19.5 -5.5t12.5 -11.5l68 -89q7 -9 7 -16t-5 -12.5t-14 -5.5z" />
    <glyph glyph-name="idieresis" unicode="&#xef;" horiz-adv-x="214" 
d="M137 30q0 -12 -9 -21t-21 -9q-13 0 -21.5 9t-8.5 21v460q0 12 8.5 21t21.5 9t21.5 -9t8.5 -21v-460zM184 592q-20 0 -30.5 10.5t-10.5 29.5v10q0 19 11 29.5t31 10.5q19 0 29.5 -10.5t10.5 -29.5v-10q0 -20 -11 -30t-30 -10zM12 592q-20 0 -30.5 10.5t-10.5 29.5v10
q0 19 11 29.5t30 10.5q20 0 30.5 -10.5t10.5 -29.5v-10q0 -20 -11 -30t-30 -10z" />
    <glyph glyph-name="uni1E2F" unicode="&#x1e2f;" horiz-adv-x="214" 
d="M137 30q0 -12 -9 -21t-21 -9q-13 0 -21.5 9t-8.5 21v460q0 12 8.5 21t21.5 9t21.5 -9t8.5 -21v-460zM184 592q-20 0 -30.5 10.5t-10.5 29.5v10q0 19 11 29.5t31 10.5q19 0 29.5 -10.5t10.5 -29.5v-10q0 -20 -11 -30t-30 -10zM12 592q-20 0 -30.5 10.5t-10.5 29.5v10
q0 19 11 29.5t30 10.5q20 0 30.5 -10.5t10.5 -29.5v-10q0 -20 -11 -30t-30 -10zM94 695q-5 0 -10.5 5.5t-5.5 12.5q0 6 5 14l61 95q5 8 13.5 15t20.5 7q15 0 24 -8t8 -23q0 -7 -2.5 -12.5t-7.5 -10.5l-75 -79q-6 -7 -14 -11.5t-17 -4.5z" />
    <glyph glyph-name="i.loclTRK" horiz-adv-x="214" 
d="M137 30q0 -12 -9 -21t-21 -9q-13 0 -21.5 9t-8.5 21v460q0 12 8.5 21t21.5 9t21.5 -9t8.5 -21v-460zM107 587q-21 0 -31.5 9.5t-10.5 27.5v10q0 18 11.5 27.5t31.5 9.5q19 0 29.5 -9.5t10.5 -27.5v-10q0 -18 -10.5 -27.5t-30.5 -9.5z" />
    <glyph glyph-name="uni1ECB" unicode="&#x1ecb;" horiz-adv-x="214" 
d="M137 30q0 -12 -9 -21t-21 -9q-13 0 -21.5 9t-8.5 21v460q0 12 8.5 21t21.5 9t21.5 -9t8.5 -21v-460zM107 587q-21 0 -31.5 9.5t-10.5 27.5v10q0 18 11.5 27.5t31.5 9.5q19 0 29.5 -9.5t10.5 -27.5v-10q0 -18 -10.5 -27.5t-30.5 -9.5zM109 -137q-21 0 -31.5 9.5
t-10.5 27.5v10q0 18 11.5 27.5t30.5 9.5q20 0 30.5 -9.5t10.5 -27.5v-10q0 -18 -10.5 -27.5t-30.5 -9.5z" />
    <glyph glyph-name="igrave" unicode="&#xec;" horiz-adv-x="214" 
d="M137 30q0 -12 -9 -21t-21 -9q-13 0 -21.5 9t-8.5 21v460q0 12 8.5 21t21.5 9t21.5 -9t8.5 -21v-460zM109 559q-7 0 -13.5 4t-11.5 8l-79 73q-6 5 -10 11.5t-4 14.5q0 14 9 21.5t21 7.5q11 0 19 -5.5t12 -11.5l68 -89q8 -9 8 -16t-5.5 -12.5t-13.5 -5.5z" />
    <glyph glyph-name="uni1EC9" unicode="&#x1ec9;" horiz-adv-x="214" 
d="M137 30q0 -12 -9 -21t-21 -9q-13 0 -21.5 9t-8.5 21v460q0 12 8.5 21t21.5 9t21.5 -9t8.5 -21v-460zM30 706q15 13 33.5 22t41.5 9q31 0 48.5 -12t25 -29.5t7.5 -32.5q0 -17 -9 -30.5t-24 -29.5q-6 -6 -9 -12t-4 -15q-1 -8 -7 -13t-14 -5q-10 0 -15.5 6t-5.5 13
q0 9 2.5 19.5t12.5 20.5q12 13 20.5 23t8.5 22q0 13 -11 21.5t-26 8.5q-13 0 -24.5 -5.5t-20.5 -12.5q-8 -7 -17 -7.5t-17 7.5q-6 7 -5 15.5t9 16.5z" />
    <glyph glyph-name="uni020B" unicode="&#x20b;" horiz-adv-x="214" 
d="M137 30q0 -12 -9 -21t-21 -9q-13 0 -21.5 9t-8.5 21v460q0 12 8.5 21t21.5 9t21.5 -9t8.5 -21v-460zM115 722q35 0 63 -16.5t46 -44t21 -60.5q3 -12 -4 -19.5t-18 -7.5q-12 0 -19 6.5t-11 17.5q-6 36 -28 55t-50 19q-29 0 -50.5 -20t-27.5 -54q-4 -11 -11 -17.5t-20 -6.5
q-11 0 -17.5 7.5t-4.5 18.5q3 34 21 61t46.5 44t63.5 17z" />
    <glyph glyph-name="ij" unicode="&#x133;" horiz-adv-x="476" 
d="M137 30q0 -12 -9 -21t-21 -9q-13 0 -21.5 9t-8.5 21v460q0 12 8.5 21t21.5 9t21.5 -9t8.5 -21v-460zM107 587q-21 0 -31.5 9.5t-10.5 27.5v10q0 18 11.5 27.5t31.5 9.5q19 0 29.5 -9.5t10.5 -27.5v-10q0 -18 -10.5 -27.5t-30.5 -9.5zM358 -46q0 -48 -22.5 -81.5
t-55.5 -51.5t-66 -18q-13 0 -20.5 8t-7.5 19v4q0 12 8 19t18 9q23 5 42.5 17t31.5 33t12 51v516q0 12 8.5 21t21.5 9t21.5 -9t8.5 -21v-525zM328 588q-21 0 -31.5 9.5t-10.5 27.5v10q0 18 11.5 27.5t31.5 9.5q19 0 29.5 -9.5t10.5 -27.5v-10q0 -18 -10.5 -27.5t-30.5 -9.5z
" />
    <glyph glyph-name="imacron" unicode="&#x12b;" horiz-adv-x="214" 
d="M137 30q0 -12 -9 -21t-21 -9q-13 0 -21.5 9t-8.5 21v460q0 12 8.5 21t21.5 9t21.5 -9t8.5 -21v-460zM-15 604q-28 0 -28 26q0 27 28 27h240q28 0 28 -27q0 -26 -28 -26h-240z" />
    <glyph glyph-name="iogonek" unicode="&#x12f;" horiz-adv-x="214" 
d="M81 -190q-37 0 -66.5 25t-29.5 70q0 28 10 48t28 34.5t39.5 24t43.5 16.5l-29 -20v482q0 12 8.5 21t21.5 9t21.5 -9t8.5 -21v-453q0 -16 -10 -26.5t-24.5 -19t-29.5 -18t-25 -22.5t-10 -34q0 -27 15 -41.5t34 -14.5q9 0 15.5 1.5t10.5 6.5q7 9 14.5 14t14.5 5
q10 0 16 -6.5t6 -16.5q0 -14 -11.5 -27t-30 -20.5t-41.5 -7.5zM107 587q-21 0 -31.5 9.5t-10.5 27.5v11q0 17 11.5 26.5t31.5 9.5q19 0 29.5 -9.5t10.5 -26.5v-11q0 -18 -11 -27.5t-30 -9.5z" />
    <glyph glyph-name="itilde" unicode="&#x129;" horiz-adv-x="214" 
d="M137 30q0 -12 -9 -21t-21 -9q-13 0 -21.5 9t-8.5 21v460q0 12 8.5 21t21.5 9t21.5 -9t8.5 -21v-460zM-22 582q-16 0 -20.5 11t-1.5 32q6 33 31 50.5t59 17.5q18 0 36.5 -9t36.5 -20t33.5 -20t28.5 -9q14 0 22.5 10t9.5 28q-1 11 6 18t17 7q17 0 22 -11.5t3 -30.5
q-4 -22 -15.5 -38t-29.5 -24.5t-42 -8.5q-15 0 -33.5 8.5t-36.5 19.5t-34.5 19.5t-30.5 8.5q-13 0 -23 -8.5t-15 -28.5q1 -10 -6.5 -16t-16.5 -6z" />
    <glyph glyph-name="j" unicode="j" horiz-adv-x="270" 
d="M152 -46q0 -48 -22.5 -81.5t-55.5 -51.5t-66 -18q-13 0 -20.5 8t-7.5 19v4q0 12 8 19t18 9q23 5 42.5 17t31.5 33t12 51v516q0 12 8.5 21t21.5 9t21.5 -9t8.5 -21v-525zM122 588q-21 0 -31.5 9.5t-10.5 27.5v10q0 18 11.5 27.5t31.5 9.5q19 0 29.5 -9.5t10.5 -27.5v-10
q0 -18 -10.5 -27.5t-30.5 -9.5z" />
    <glyph glyph-name="uni0237" unicode="&#x237;" horiz-adv-x="241" 
d="M152 -46q0 -48 -22.5 -81.5t-55.5 -51.5t-66 -18q-13 0 -20.5 8t-7.5 19v4q0 12 8 19t18 9q23 5 42.5 17t31.5 33t12 51v516q0 12 8.5 21t21.5 9t21.5 -9t8.5 -21v-525z" />
    <glyph glyph-name="jcircumflex" unicode="&#x135;" horiz-adv-x="241" 
d="M152 -46q0 -48 -22.5 -81.5t-55.5 -51.5t-66 -18q-13 0 -20.5 8t-7.5 19v4q0 12 8 19t18 9q23 5 42.5 17t31.5 33t12 51v516q0 12 8.5 21t21.5 9t21.5 -9t8.5 -21v-525zM133 663l-87 -73q-7 -6 -12.5 -10t-13.5 -4q-7 0 -12 5t-5 11q0 4 1.5 8t6.5 8l73 80q11 17 33 17
h16q11 0 18.5 -3.5t13.5 -13.5l72 -79q4 -5 5.5 -8.5t1.5 -8.5t-4.5 -10t-11.5 -5q-8 0 -14 4t-13 10l-89 71z" />
    <glyph glyph-name="k" unicode="k" horiz-adv-x="535" 
d="M115 0q-13 0 -21.5 9t-8.5 21v680q0 12 8.5 21t21.5 9t21.5 -9t8.5 -21v-680q0 -12 -8.5 -21t-21.5 -9zM455 513q11 0 20 -9.5t9 -20.5q0 -13 -11 -23l-336 -286l-3 71l300 258q9 10 21 10zM463 0q-13 0 -22 11l-228 242l45 41l226 -241q9 -10 9 -23q0 -14 -11 -22
t-19 -8z" />
    <glyph glyph-name="uni0137" unicode="&#x137;" horiz-adv-x="535" 
d="M115 0q-13 0 -21.5 9t-8.5 21v680q0 12 8.5 21t21.5 9t21.5 -9t8.5 -21v-680q0 -12 -8.5 -21t-21.5 -9zM455 513q11 0 20 -9.5t9 -20.5q0 -13 -11 -23l-336 -286l-3 71l300 258q9 10 21 10zM463 0q-13 0 -22 11l-228 242l45 41l226 -241q9 -10 9 -23q0 -14 -11 -22
t-19 -8zM320 -94q0 -22 -8.5 -43.5t-23 -39.5t-30.5 -28.5t-32 -10.5q-10 0 -18 5.5t-8 16.5q0 16 11.5 18.5t24.5 8.5q14 8 21.5 21.5t7.5 28.5q0 11 -6 18t-16 7q-7 0 -14 -2t-13 -6q-5 5 -9 11t-3 15q1 12 9.5 21.5t21.5 15t26 5.5q26 0 42.5 -16.5t16.5 -45.5z" />
    <glyph glyph-name="kgreenlandic" unicode="&#x138;" horiz-adv-x="535" 
d="M115 0q-13 0 -21.5 9t-8.5 21v448q0 12 8.5 21t21.5 9t21.5 -9t8.5 -21v-448q0 -12 -8.5 -21t-21.5 -9zM455 513q11 0 20 -9.5t9 -20.5q0 -13 -11 -23l-336 -286l-3 71l300 258q9 10 21 10zM463 0q-13 0 -22 11l-228 242l45 41l226 -241q9 -10 9 -23q0 -15 -12 -22.5
t-18 -7.5z" />
    <glyph glyph-name="l" unicode="l" horiz-adv-x="230" 
d="M145 30q0 -12 -9 -21t-21 -9q-13 0 -21.5 9t-8.5 21v680q0 12 9 21t21 9q13 0 21.5 -9t8.5 -21v-680z" />
    <glyph glyph-name="lacute" unicode="&#x13a;" horiz-adv-x="230" 
d="M145 30q0 -12 -9 -21t-21 -9q-13 0 -21.5 9t-8.5 21v680q0 12 9 21t21 9q13 0 21.5 -9t8.5 -21v-680zM118 786q-10 0 -14.5 5.5t-4.5 12.5q0 5 2.5 9.5t7.5 8.5l89 69q6 4 13 7.5t16 3.5q13 0 21.5 -8.5t8.5 -21.5q0 -10 -5 -18t-14 -13l-98 -49q-5 -2 -10.5 -4t-11.5 -2
z" />
    <glyph glyph-name="lcaron" unicode="&#x13e;" horiz-adv-x="310" 
d="M145 30q0 -12 -9 -21t-21 -9q-13 0 -21.5 9t-8.5 21v680q0 12 9 21t21 9q13 0 21.5 -9t8.5 -21v-680zM323 607q0 -22 -8.5 -43.5t-22.5 -39.5t-30 -28.5t-33 -10.5q-10 0 -17.5 5t-7.5 17q0 16 11.5 18.5t24.5 8.5q14 8 21.5 21.5t7.5 28.5q0 11 -6 18t-17 7
q-6 0 -13.5 -2.5t-12.5 -6.5q-6 5 -9.5 11.5t-2.5 15.5q0 11 9 20.5t22 15t25 5.5q26 0 42.5 -16t16.5 -45z" />
    <glyph glyph-name="uni013C" unicode="&#x13c;" horiz-adv-x="230" 
d="M145 30q0 -12 -9 -21t-21 -9q-13 0 -21.5 9t-8.5 21v680q0 12 9 21t21 9q13 0 21.5 -9t8.5 -21v-680zM167 -94q0 -22 -8.5 -43.5t-23 -39.5t-30.5 -28.5t-32 -10.5q-10 0 -18 5.5t-8 16.5q0 16 11.5 18.5t24.5 8.5q14 8 21.5 21.5t7.5 28.5q0 11 -6 18t-16 7q-7 0 -14 -2
t-13 -6q-5 5 -9 11t-3 15q1 12 9.5 21.5t21.5 15t26 5.5q26 0 42.5 -16.5t16.5 -45.5z" />
    <glyph glyph-name="ldot" unicode="&#x140;" horiz-adv-x="308" 
d="M145 30q0 -12 -9 -21t-21 -9q-13 0 -21.5 9t-8.5 21v680q0 12 9 21t21 9q13 0 21.5 -9t8.5 -21v-680zM277 312q-17 0 -27.5 10.5t-10.5 27.5v22q0 17 10.5 27.5t27.5 10.5h7q17 0 27.5 -10.5t10.5 -27.5v-22q0 -17 -10.5 -27.5t-27.5 -10.5h-7z" />
    <glyph glyph-name="uni1E37" unicode="&#x1e37;" horiz-adv-x="230" 
d="M145 30q0 -12 -9 -21t-21 -9q-13 0 -21.5 9t-8.5 21v680q0 12 9 21t21 9q13 0 21.5 -9t8.5 -21v-680zM115 -137q-21 0 -31.5 9.5t-10.5 27.5v10q0 18 11.5 27.5t30.5 9.5q20 0 30.5 -9.5t10.5 -27.5v-10q0 -18 -10.5 -27.5t-30.5 -9.5z" />
    <glyph glyph-name="uni01C9" unicode="&#x1c9;" horiz-adv-x="485" 
d="M145 30q0 -12 -9 -21t-21 -9q-13 0 -21.5 9t-8.5 21v680q0 12 9 21t21 9q13 0 21.5 -9t8.5 -21v-680zM368 -46q0 -48 -22.5 -81.5t-55.5 -51.5t-66 -18q-13 0 -20.5 8t-7.5 19v4q0 12 8 19t18 9q23 5 42.5 17t31.5 33t12 51v516q0 12 8.5 21t21.5 9t21.5 -9t8.5 -21v-525
zM338 588q-21 0 -31.5 9.5t-10.5 27.5v10q0 18 11.5 27.5t31.5 9.5q19 0 29.5 -9.5t10.5 -27.5v-10q0 -18 -10.5 -27.5t-30.5 -9.5z" />
    <glyph glyph-name="uni1E3B" unicode="&#x1e3b;" horiz-adv-x="230" 
d="M145 30q0 -12 -9 -21t-21 -9q-13 0 -21.5 9t-8.5 21v680q0 12 9 21t21 9q13 0 21.5 -9t8.5 -21v-680zM-6 -124q-28 0 -28 24q0 26 28 26h233q27 0 27 -26q0 -24 -27 -24h-233z" />
    <glyph glyph-name="lslash" unicode="&#x142;" horiz-adv-x="231" 
d="M16 330q-11 0 -18 8.5t-7 18.5q0 17 18 24l192 88q4 2 8.5 3t8.5 1q11 0 17.5 -8t6.5 -17q0 -10 -5.5 -16.5t-13.5 -10.5l-193 -87q-4 -2 -8 -3t-6 -1zM145 30q0 -12 -9 -21t-21 -9q-13 0 -21.5 9t-8.5 21v680q0 12 9 21t21 9q13 0 21.5 -9t8.5 -21v-680z" />
    </font>
</defs>
</svg>
